G04*
G04 #@! TF.GenerationSoftware,Altium Limited,Altium Designer,23.3.1 (30)*
G04*
G04 Layer_Physical_Order=1*
G04 Layer_Color=255*
%FSLAX44Y44*%
%MOMM*%
G71*
G04*
G04 #@! TF.SameCoordinates,A1D45208-1030-4CC9-A340-7643FE15EE58*
G04*
G04*
G04 #@! TF.FilePolarity,Positive*
G04*
G01*
G75*
%ADD13C,4.2000*%
G36*
X3316542Y3119952D02*
X3323669Y3118647D01*
X3330587Y3116491D01*
X3337193Y3113517D01*
X3343394Y3109769D01*
X3349097Y3105301D01*
X3354221Y3100177D01*
X3358689Y3094474D01*
X3362437Y3088273D01*
X3365411Y3081666D01*
X3367567Y3074749D01*
X3368872Y3067622D01*
X3369310Y3060390D01*
Y305390D01*
X3368872Y298158D01*
X3367567Y291031D01*
X3365411Y284114D01*
X3362437Y277507D01*
X3358689Y271306D01*
X3354221Y265603D01*
X3349097Y260479D01*
X3343394Y256011D01*
X3337193Y252263D01*
X3330587Y249289D01*
X3323669Y247134D01*
X3316542Y245828D01*
X3309310Y245390D01*
X179310D01*
X172078Y245828D01*
X164951Y247134D01*
X158034Y249289D01*
X151427Y252263D01*
X145226Y256011D01*
X139523Y260479D01*
X134399Y265603D01*
X129931Y271306D01*
X126183Y277507D01*
X123209Y284114D01*
X121054Y291031D01*
X119747Y298158D01*
X119310Y305390D01*
Y3060390D01*
X119747Y3067622D01*
X121054Y3074749D01*
X123209Y3081666D01*
X126183Y3088273D01*
X129931Y3094474D01*
X134399Y3100177D01*
X139523Y3105301D01*
X145226Y3109769D01*
X151427Y3113517D01*
X158034Y3116491D01*
X164951Y3118647D01*
X172078Y3119952D01*
X179310Y3120390D01*
X3309310D01*
X3316542Y3119952D01*
D02*
G37*
%LPC*%
G36*
X3282163Y3038430D02*
X3278457D01*
X3274798Y3037850D01*
X3271274Y3036705D01*
X3267972Y3035023D01*
X3264975Y3032845D01*
X3262355Y3030225D01*
X3260177Y3027228D01*
X3258495Y3023926D01*
X3257350Y3020402D01*
X3256770Y3016743D01*
Y3013037D01*
X3257350Y3009378D01*
X3258495Y3005854D01*
X3260177Y3002552D01*
X3262355Y2999555D01*
X3264975Y2996935D01*
X3267972Y2994757D01*
X3271274Y2993075D01*
X3274798Y2991930D01*
X3278457Y2991350D01*
X3282163D01*
X3285822Y2991930D01*
X3289346Y2993075D01*
X3292648Y2994757D01*
X3295645Y2996935D01*
X3298265Y2999555D01*
X3300443Y3002552D01*
X3302126Y3005854D01*
X3303270Y3009378D01*
X3303850Y3013037D01*
Y3016743D01*
X3303270Y3020402D01*
X3302126Y3023926D01*
X3300443Y3027228D01*
X3298265Y3030225D01*
X3295645Y3032845D01*
X3292648Y3035023D01*
X3289346Y3036705D01*
X3285822Y3037850D01*
X3282163Y3038430D01*
D02*
G37*
G36*
X210163D02*
X206457D01*
X202798Y3037850D01*
X199274Y3036705D01*
X195972Y3035023D01*
X192975Y3032845D01*
X190355Y3030225D01*
X188177Y3027228D01*
X186495Y3023926D01*
X185350Y3020402D01*
X184770Y3016743D01*
Y3013037D01*
X185350Y3009378D01*
X186495Y3005854D01*
X188177Y3002552D01*
X190355Y2999555D01*
X192975Y2996935D01*
X195972Y2994757D01*
X199274Y2993075D01*
X202798Y2991930D01*
X206457Y2991350D01*
X210163D01*
X213822Y2991930D01*
X217346Y2993075D01*
X220648Y2994757D01*
X223645Y2996935D01*
X226265Y2999555D01*
X228443Y3002552D01*
X230126Y3005854D01*
X231271Y3009378D01*
X231850Y3013037D01*
Y3016743D01*
X231271Y3020402D01*
X230126Y3023926D01*
X228443Y3027228D01*
X226265Y3030225D01*
X223645Y3032845D01*
X220648Y3035023D01*
X217346Y3036705D01*
X213822Y3037850D01*
X210163Y3038430D01*
D02*
G37*
G36*
X2449310Y2972980D02*
X1789310D01*
X1789166Y2972951D01*
X1789021Y2972964D01*
X1784571Y2972463D01*
X1784293Y2972375D01*
X1784005Y2972334D01*
X1779775Y2970854D01*
X1779524Y2970707D01*
X1779253Y2970603D01*
X1775462Y2968223D01*
X1775251Y2968023D01*
X1775009Y2967861D01*
X1771839Y2964691D01*
X1771677Y2964449D01*
X1771477Y2964237D01*
X1769097Y2960447D01*
X1768993Y2960176D01*
X1768846Y2959925D01*
X1767365Y2955695D01*
X1767325Y2955407D01*
X1767236Y2955129D01*
X1766736Y2950679D01*
X1766749Y2950533D01*
X1766720Y2950390D01*
Y2185390D01*
X1766749Y2185247D01*
X1766736Y2185101D01*
X1767236Y2180651D01*
X1767325Y2180373D01*
X1767365Y2180085D01*
X1768846Y2175855D01*
X1768993Y2175604D01*
X1769097Y2175333D01*
X1771477Y2171543D01*
X1771677Y2171331D01*
X1771839Y2171089D01*
X1775009Y2167919D01*
X1775251Y2167757D01*
X1775462Y2167557D01*
X1779253Y2165177D01*
X1779524Y2165073D01*
X1779775Y2164926D01*
X1784005Y2163446D01*
X1784293Y2163405D01*
X1784571Y2163317D01*
X1789021Y2162816D01*
X1789166Y2162829D01*
X1789310Y2162800D01*
X1883237D01*
X1902479Y2143559D01*
X1903319Y2142997D01*
X1904310Y2142800D01*
X2234310D01*
D01*
X2234310D01*
X2235301Y2142997D01*
X2235638Y2143222D01*
X2236141Y2143559D01*
X2236141Y2143559D01*
X2255383Y2162800D01*
X2449310D01*
X2449453Y2162829D01*
X2449599Y2162816D01*
X2454049Y2163317D01*
X2454327Y2163405D01*
X2454615Y2163446D01*
X2458845Y2164926D01*
X2459095Y2165073D01*
X2459367Y2165177D01*
X2463157Y2167557D01*
X2463369Y2167757D01*
X2463611Y2167919D01*
X2466781Y2171089D01*
X2466943Y2171331D01*
X2467143Y2171543D01*
X2469523Y2175333D01*
X2469626Y2175604D01*
X2469774Y2175855D01*
X2471254Y2180085D01*
X2471295Y2180373D01*
X2471383Y2180651D01*
X2471884Y2185101D01*
X2471871Y2185246D01*
X2471900Y2185390D01*
Y2950390D01*
X2471871Y2950533D01*
X2471884Y2950679D01*
X2471383Y2955129D01*
X2471295Y2955407D01*
X2471254Y2955695D01*
X2469774Y2959925D01*
X2469627Y2960175D01*
X2469523Y2960447D01*
X2467143Y2964237D01*
X2466943Y2964449D01*
X2466781Y2964691D01*
X2463611Y2967861D01*
X2463369Y2968023D01*
X2463157Y2968223D01*
X2459367Y2970603D01*
X2459095Y2970707D01*
X2458845Y2970854D01*
X2454615Y2972334D01*
X2454327Y2972375D01*
X2454049Y2972463D01*
X2449599Y2972964D01*
X2449453Y2972951D01*
X2449310Y2972980D01*
D02*
G37*
G36*
X3199310D02*
X2539310D01*
X2539166Y2972951D01*
X2539021Y2972964D01*
X2534571Y2972463D01*
X2534293Y2972375D01*
X2534005Y2972334D01*
X2529775Y2970854D01*
X2529524Y2970707D01*
X2529253Y2970603D01*
X2525463Y2968223D01*
X2525251Y2968023D01*
X2525009Y2967861D01*
X2521839Y2964691D01*
X2521677Y2964449D01*
X2521477Y2964237D01*
X2519097Y2960447D01*
X2518993Y2960175D01*
X2518846Y2959925D01*
X2517366Y2955695D01*
X2517325Y2955407D01*
X2517236Y2955129D01*
X2516736Y2950679D01*
X2516749Y2950533D01*
X2516720Y2950390D01*
Y2185390D01*
X2516749Y2185246D01*
X2516736Y2185101D01*
X2517236Y2180651D01*
X2517325Y2180373D01*
X2517366Y2180085D01*
X2518846Y2175855D01*
X2518993Y2175604D01*
X2519097Y2175333D01*
X2521477Y2171543D01*
X2521677Y2171331D01*
X2521839Y2171089D01*
X2525009Y2167919D01*
X2525251Y2167757D01*
X2525463Y2167557D01*
X2529253Y2165177D01*
X2529524Y2165073D01*
X2529775Y2164926D01*
X2534005Y2163446D01*
X2534293Y2163405D01*
X2534571Y2163317D01*
X2539021Y2162816D01*
X2539166Y2162829D01*
X2539310Y2162800D01*
X2633237D01*
X2652479Y2143559D01*
X2653319Y2142997D01*
X2654310Y2142800D01*
X2984310D01*
X2985301Y2142997D01*
X2986141Y2143559D01*
X3005383Y2162800D01*
X3199310D01*
X3199453Y2162829D01*
X3199599Y2162816D01*
X3204049Y2163317D01*
X3204327Y2163405D01*
X3204615Y2163446D01*
X3208845Y2164926D01*
X3209095Y2165073D01*
X3209367Y2165177D01*
X3213157Y2167557D01*
X3213369Y2167757D01*
X3213611Y2167919D01*
X3216781Y2171089D01*
X3216943Y2171331D01*
X3217143Y2171543D01*
X3219523Y2175333D01*
X3219627Y2175604D01*
X3219774Y2175855D01*
X3221254Y2180085D01*
X3221295Y2180373D01*
X3221383Y2180651D01*
X3221884Y2185101D01*
X3221871Y2185246D01*
X3221900Y2185390D01*
Y2950390D01*
X3221871Y2950533D01*
X3221884Y2950679D01*
X3221383Y2955129D01*
X3221295Y2955407D01*
X3221254Y2955695D01*
X3219774Y2959925D01*
X3219627Y2960175D01*
X3219523Y2960447D01*
X3217143Y2964237D01*
X3216943Y2964449D01*
X3216781Y2964691D01*
X3213611Y2967861D01*
X3213369Y2968023D01*
X3213157Y2968223D01*
X3209367Y2970603D01*
X3209095Y2970707D01*
X3208845Y2970854D01*
X3204615Y2972334D01*
X3204327Y2972375D01*
X3204049Y2972463D01*
X3199599Y2972964D01*
X3199453Y2972951D01*
X3199310Y2972980D01*
D02*
G37*
G36*
X1699310D02*
X1039310D01*
X1039166Y2972951D01*
X1039020Y2972964D01*
X1034571Y2972463D01*
X1034293Y2972375D01*
X1034005Y2972334D01*
X1029774Y2970854D01*
X1029524Y2970707D01*
X1029252Y2970603D01*
X1025462Y2968223D01*
X1025251Y2968023D01*
X1025008Y2967861D01*
X1021838Y2964691D01*
X1021676Y2964449D01*
X1021476Y2964237D01*
X1019097Y2960447D01*
X1018993Y2960176D01*
X1018845Y2959925D01*
X1017365Y2955695D01*
X1017324Y2955407D01*
X1017236Y2955129D01*
X1016736Y2950679D01*
X1016749Y2950533D01*
X1016720Y2950390D01*
Y2185390D01*
X1016749Y2185247D01*
X1016736Y2185101D01*
X1017236Y2180651D01*
X1017324Y2180373D01*
X1017365Y2180085D01*
X1018845Y2175855D01*
X1018993Y2175604D01*
X1019097Y2175333D01*
X1021476Y2171543D01*
X1021676Y2171331D01*
X1021838Y2171089D01*
X1025008Y2167919D01*
X1025251Y2167757D01*
X1025462Y2167557D01*
X1029252Y2165177D01*
X1029524Y2165073D01*
X1029774Y2164926D01*
X1034005Y2163446D01*
X1034293Y2163405D01*
X1034571Y2163317D01*
X1039020Y2162816D01*
X1039166Y2162829D01*
X1039310Y2162800D01*
X1133237D01*
X1152478Y2143559D01*
X1153319Y2142997D01*
X1154310Y2142800D01*
X1484310D01*
X1485301Y2142997D01*
X1486141Y2143559D01*
X1505382Y2162800D01*
X1699310D01*
X1699453Y2162829D01*
X1699599Y2162816D01*
X1704049Y2163317D01*
X1704326Y2163405D01*
X1704615Y2163446D01*
X1708845Y2164926D01*
X1709095Y2165073D01*
X1709367Y2165177D01*
X1713157Y2167557D01*
X1713369Y2167757D01*
X1713611Y2167919D01*
X1716781Y2171089D01*
X1716943Y2171331D01*
X1717143Y2171543D01*
X1719523Y2175333D01*
X1719626Y2175604D01*
X1719774Y2175855D01*
X1721254Y2180085D01*
X1721295Y2180373D01*
X1721383Y2180651D01*
X1721883Y2185101D01*
X1721871Y2185246D01*
X1721900Y2185390D01*
Y2950390D01*
X1721871Y2950533D01*
X1721883Y2950679D01*
X1721383Y2955129D01*
X1721295Y2955407D01*
X1721254Y2955695D01*
X1719774Y2959925D01*
X1719626Y2960175D01*
X1719523Y2960447D01*
X1717143Y2964237D01*
X1716943Y2964449D01*
X1716781Y2964691D01*
X1713611Y2967861D01*
X1713369Y2968023D01*
X1713157Y2968223D01*
X1709367Y2970603D01*
X1709095Y2970707D01*
X1708845Y2970854D01*
X1704615Y2972334D01*
X1704326Y2972375D01*
X1704049Y2972463D01*
X1699599Y2972964D01*
X1699453Y2972951D01*
X1699310Y2972980D01*
D02*
G37*
G36*
X949310D02*
X289310D01*
X289166Y2972951D01*
X289021Y2972964D01*
X284571Y2972463D01*
X284293Y2972375D01*
X284005Y2972334D01*
X279774Y2970854D01*
X279524Y2970707D01*
X279252Y2970603D01*
X275462Y2968223D01*
X275251Y2968023D01*
X275008Y2967861D01*
X271838Y2964691D01*
X271677Y2964449D01*
X271477Y2964237D01*
X269097Y2960447D01*
X268993Y2960175D01*
X268845Y2959925D01*
X267365Y2955695D01*
X267325Y2955407D01*
X267236Y2955129D01*
X266736Y2950679D01*
X266749Y2950533D01*
X266720Y2950390D01*
Y2185390D01*
X266749Y2185246D01*
X266736Y2185101D01*
X267236Y2180651D01*
X267325Y2180373D01*
X267365Y2180085D01*
X268845Y2175855D01*
X268993Y2175605D01*
X269097Y2175333D01*
X271477Y2171543D01*
X271677Y2171331D01*
X271838Y2171089D01*
X275008Y2167919D01*
X275251Y2167757D01*
X275462Y2167557D01*
X279252Y2165177D01*
X279524Y2165073D01*
X279774Y2164926D01*
X284005Y2163446D01*
X284293Y2163405D01*
X284571Y2163317D01*
X289021Y2162816D01*
X289166Y2162829D01*
X289310Y2162800D01*
X383237D01*
X402478Y2143559D01*
X403319Y2142997D01*
X404310Y2142800D01*
X734310D01*
X735301Y2142997D01*
X736141Y2143559D01*
X755382Y2162800D01*
X949310D01*
X949453Y2162829D01*
X949599Y2162816D01*
X954049Y2163317D01*
X954326Y2163405D01*
X954615Y2163446D01*
X958845Y2164926D01*
X959095Y2165073D01*
X959367Y2165177D01*
X963157Y2167557D01*
X963369Y2167757D01*
X963611Y2167919D01*
X966781Y2171089D01*
X966943Y2171331D01*
X967143Y2171543D01*
X969523Y2175333D01*
X969626Y2175604D01*
X969774Y2175855D01*
X971254Y2180085D01*
X971295Y2180373D01*
X971383Y2180651D01*
X971883Y2185101D01*
X971871Y2185246D01*
X971899Y2185390D01*
Y2950390D01*
X971871Y2950533D01*
X971883Y2950679D01*
X971383Y2955129D01*
X971295Y2955407D01*
X971254Y2955695D01*
X969774Y2959925D01*
X969626Y2960175D01*
X969523Y2960447D01*
X967143Y2964237D01*
X966943Y2964449D01*
X966781Y2964691D01*
X963611Y2967861D01*
X963369Y2968023D01*
X963157Y2968223D01*
X959367Y2970603D01*
X959095Y2970707D01*
X958845Y2970854D01*
X954615Y2972334D01*
X954326Y2972375D01*
X954049Y2972463D01*
X949599Y2972964D01*
X949453Y2972951D01*
X949310Y2972980D01*
D02*
G37*
G36*
X1039310Y2097980D02*
X1039166Y2097951D01*
X1039020Y2097964D01*
X1034571Y2097464D01*
X1034293Y2097375D01*
X1034005Y2097334D01*
X1029774Y2095855D01*
X1029524Y2095707D01*
X1029252Y2095603D01*
X1025462Y2093223D01*
X1025251Y2093023D01*
X1025008Y2092861D01*
X1021838Y2089691D01*
X1021676Y2089449D01*
X1021476Y2089237D01*
X1019097Y2085447D01*
X1018993Y2085176D01*
X1018845Y2084925D01*
X1017365Y2080695D01*
X1017324Y2080407D01*
X1017236Y2080129D01*
X1016736Y2075679D01*
X1016749Y2075533D01*
X1016720Y2075390D01*
Y1310390D01*
X1016749Y1310247D01*
X1016736Y1310101D01*
X1017236Y1305651D01*
X1017324Y1305373D01*
X1017365Y1305085D01*
X1018845Y1300855D01*
X1018993Y1300604D01*
X1019097Y1300333D01*
X1021476Y1296543D01*
X1021676Y1296331D01*
X1021838Y1296089D01*
X1025008Y1292919D01*
X1025251Y1292757D01*
X1025462Y1292557D01*
X1029252Y1290177D01*
X1029524Y1290073D01*
X1029774Y1289925D01*
X1034005Y1288445D01*
X1034293Y1288405D01*
X1034571Y1288316D01*
X1039020Y1287816D01*
X1039166Y1287829D01*
X1039310Y1287800D01*
X1133237D01*
X1152478Y1268559D01*
X1153319Y1267997D01*
X1154310Y1267800D01*
X1484310D01*
X1485301Y1267997D01*
X1486141Y1268559D01*
X1505382Y1287800D01*
X1699310D01*
X1699453Y1287829D01*
X1699599Y1287816D01*
X1704049Y1288316D01*
X1704326Y1288405D01*
X1704615Y1288445D01*
X1708845Y1289925D01*
X1709095Y1290073D01*
X1709367Y1290177D01*
X1713157Y1292557D01*
X1713369Y1292757D01*
X1713611Y1292919D01*
X1716781Y1296089D01*
X1716943Y1296331D01*
X1717143Y1296543D01*
X1719523Y1300333D01*
X1719626Y1300604D01*
X1719774Y1300855D01*
X1721254Y1305085D01*
X1721295Y1305373D01*
X1721383Y1305651D01*
X1721883Y1310101D01*
X1721871Y1310247D01*
X1721900Y1310390D01*
Y2075390D01*
X1721871Y2075533D01*
X1721883Y2075679D01*
X1721383Y2080129D01*
X1721295Y2080407D01*
X1721254Y2080695D01*
X1719774Y2084925D01*
X1719626Y2085176D01*
X1719523Y2085447D01*
X1717143Y2089237D01*
X1716943Y2089449D01*
X1716781Y2089691D01*
X1713611Y2092861D01*
X1713369Y2093023D01*
X1713157Y2093223D01*
X1709367Y2095603D01*
X1709095Y2095707D01*
X1708845Y2095854D01*
X1704615Y2097334D01*
X1704326Y2097375D01*
X1704049Y2097464D01*
X1699599Y2097963D01*
X1699453Y2097951D01*
X1699310Y2097980D01*
X1039310Y2097980D01*
D02*
G37*
G36*
X949310D02*
X289310D01*
X289166Y2097951D01*
X289021Y2097964D01*
X284571Y2097464D01*
X284293Y2097375D01*
X284005Y2097334D01*
X279774Y2095855D01*
X279524Y2095707D01*
X279252Y2095603D01*
X275462Y2093223D01*
X275251Y2093023D01*
X275008Y2092861D01*
X271838Y2089691D01*
X271677Y2089449D01*
X271477Y2089237D01*
X269097Y2085447D01*
X268993Y2085176D01*
X268845Y2084925D01*
X267365Y2080695D01*
X267325Y2080407D01*
X267236Y2080129D01*
X266736Y2075679D01*
X266749Y2075533D01*
X266720Y2075390D01*
Y1310390D01*
X266749Y1310247D01*
X266736Y1310101D01*
X267236Y1305651D01*
X267325Y1305373D01*
X267365Y1305085D01*
X268845Y1300855D01*
X268993Y1300604D01*
X269097Y1300333D01*
X271477Y1296543D01*
X271677Y1296331D01*
X271838Y1296089D01*
X275008Y1292919D01*
X275251Y1292757D01*
X275462Y1292557D01*
X279252Y1290177D01*
X279524Y1290073D01*
X279774Y1289925D01*
X284005Y1288445D01*
X284293Y1288405D01*
X284571Y1288316D01*
X289021Y1287816D01*
X289166Y1287829D01*
X289310Y1287800D01*
X383237D01*
X402478Y1268559D01*
X403319Y1267997D01*
X404310Y1267800D01*
X734310D01*
X735301Y1267997D01*
X736141Y1268559D01*
X755382Y1287800D01*
X949310D01*
X949453Y1287829D01*
X949599Y1287816D01*
X954049Y1288316D01*
X954326Y1288405D01*
X954615Y1288445D01*
X958845Y1289925D01*
X959095Y1290073D01*
X959367Y1290177D01*
X963157Y1292557D01*
X963369Y1292757D01*
X963611Y1292919D01*
X966781Y1296089D01*
X966943Y1296331D01*
X967143Y1296543D01*
X969523Y1300333D01*
X969626Y1300604D01*
X969774Y1300855D01*
X971254Y1305085D01*
X971295Y1305373D01*
X971383Y1305651D01*
X971883Y1310101D01*
X971871Y1310247D01*
X971899Y1310390D01*
Y2075390D01*
X971871Y2075533D01*
X971883Y2075679D01*
X971383Y2080129D01*
X971295Y2080407D01*
X971254Y2080695D01*
X969774Y2084925D01*
X969626Y2085176D01*
X969523Y2085447D01*
X967143Y2089237D01*
X966943Y2089449D01*
X966781Y2089691D01*
X963611Y2092861D01*
X963369Y2093023D01*
X963157Y2093223D01*
X959367Y2095603D01*
X959095Y2095707D01*
X958845Y2095855D01*
X954615Y2097334D01*
X954326Y2097375D01*
X954049Y2097464D01*
X949599Y2097964D01*
X949453Y2097951D01*
X949310Y2097980D01*
D02*
G37*
G36*
X2449310Y2097980D02*
X1789310D01*
X1789167Y2097951D01*
X1789021Y2097963D01*
X1784571Y2097464D01*
X1784293Y2097375D01*
X1784005Y2097334D01*
X1779774Y2095854D01*
X1779524Y2095707D01*
X1779253Y2095603D01*
X1775463Y2093223D01*
X1775251Y2093023D01*
X1775009Y2092861D01*
X1771839Y2089691D01*
X1771677Y2089449D01*
X1771477Y2089237D01*
X1769097Y2085447D01*
X1768993Y2085176D01*
X1768846Y2084925D01*
X1767365Y2080695D01*
X1767325Y2080407D01*
X1767236Y2080129D01*
X1766736Y2075679D01*
X1766749Y2075533D01*
X1766720Y2075390D01*
Y1310390D01*
X1766749Y1310247D01*
X1766736Y1310101D01*
X1767236Y1305651D01*
X1767325Y1305373D01*
X1767365Y1305085D01*
X1768846Y1300855D01*
X1768993Y1300604D01*
X1769097Y1300333D01*
X1771477Y1296543D01*
X1771677Y1296331D01*
X1771839Y1296089D01*
X1775009Y1292919D01*
X1775251Y1292757D01*
X1775462Y1292557D01*
X1779253Y1290177D01*
X1779524Y1290073D01*
X1779775Y1289925D01*
X1784005Y1288445D01*
X1784293Y1288405D01*
X1784571Y1288316D01*
X1789021Y1287816D01*
X1789166Y1287829D01*
X1789310Y1287800D01*
X1883237D01*
X1902479Y1268559D01*
X1903319Y1267997D01*
X1904310Y1267800D01*
X2234310D01*
D01*
X2234310D01*
X2235301Y1267997D01*
X2235638Y1268222D01*
X2236141Y1268559D01*
X2236141Y1268559D01*
X2255383Y1287800D01*
X2449310D01*
X2449453Y1287829D01*
X2449599Y1287816D01*
X2454049Y1288316D01*
X2454327Y1288405D01*
X2454615Y1288445D01*
X2458845Y1289925D01*
X2459095Y1290073D01*
X2459367Y1290177D01*
X2463157Y1292557D01*
X2463369Y1292757D01*
X2463611Y1292919D01*
X2466781Y1296089D01*
X2466943Y1296331D01*
X2467143Y1296543D01*
X2469523Y1300333D01*
X2469626Y1300604D01*
X2469774Y1300855D01*
X2471254Y1305085D01*
X2471295Y1305373D01*
X2471383Y1305651D01*
X2471884Y1310101D01*
X2471871Y1310247D01*
X2471900Y1310390D01*
Y2075390D01*
X2471871Y2075533D01*
X2471884Y2075679D01*
X2471383Y2080129D01*
X2471295Y2080407D01*
X2471254Y2080695D01*
X2469774Y2084925D01*
X2469627Y2085176D01*
X2469523Y2085447D01*
X2467143Y2089237D01*
X2466943Y2089449D01*
X2466781Y2089691D01*
X2463611Y2092861D01*
X2463369Y2093023D01*
X2463157Y2093223D01*
X2459367Y2095603D01*
X2459096Y2095707D01*
X2458845Y2095854D01*
X2454615Y2097334D01*
X2454327Y2097375D01*
X2454049Y2097464D01*
X2449599Y2097963D01*
X2449453Y2097951D01*
X2449310Y2097980D01*
D02*
G37*
G36*
X3199310D02*
X2539310D01*
X2539167Y2097951D01*
X2539021Y2097963D01*
X2534571Y2097464D01*
X2534293Y2097375D01*
X2534005Y2097334D01*
X2529775Y2095854D01*
X2529524Y2095707D01*
X2529253Y2095603D01*
X2525463Y2093223D01*
X2525251Y2093023D01*
X2525009Y2092861D01*
X2521839Y2089691D01*
X2521677Y2089449D01*
X2521477Y2089237D01*
X2519097Y2085447D01*
X2518993Y2085176D01*
X2518846Y2084925D01*
X2517366Y2080695D01*
X2517325Y2080407D01*
X2517236Y2080129D01*
X2516736Y2075679D01*
X2516749Y2075533D01*
X2516720Y2075390D01*
Y1310390D01*
X2516749Y1310247D01*
X2516736Y1310101D01*
X2517236Y1305651D01*
X2517325Y1305373D01*
X2517366Y1305085D01*
X2518846Y1300855D01*
X2518993Y1300604D01*
X2519097Y1300333D01*
X2521477Y1296543D01*
X2521677Y1296331D01*
X2521839Y1296089D01*
X2525009Y1292919D01*
X2525251Y1292757D01*
X2525463Y1292557D01*
X2529253Y1290177D01*
X2529524Y1290073D01*
X2529775Y1289925D01*
X2534005Y1288445D01*
X2534293Y1288405D01*
X2534571Y1288316D01*
X2539021Y1287816D01*
X2539166Y1287829D01*
X2539310Y1287800D01*
X2633237D01*
X2652479Y1268559D01*
X2653319Y1267997D01*
X2654310Y1267800D01*
X2984310D01*
X2985301Y1267997D01*
X2986141Y1268559D01*
X3005383Y1287800D01*
X3199310D01*
X3199453Y1287829D01*
X3199599Y1287816D01*
X3204049Y1288316D01*
X3204327Y1288405D01*
X3204615Y1288445D01*
X3208845Y1289925D01*
X3209095Y1290073D01*
X3209367Y1290177D01*
X3213157Y1292557D01*
X3213369Y1292757D01*
X3213611Y1292919D01*
X3216781Y1296089D01*
X3216943Y1296331D01*
X3217143Y1296543D01*
X3219523Y1300333D01*
X3219627Y1300604D01*
X3219774Y1300855D01*
X3221254Y1305085D01*
X3221295Y1305373D01*
X3221383Y1305651D01*
X3221884Y1310101D01*
X3221871Y1310247D01*
X3221900Y1310390D01*
Y2075390D01*
X3221871Y2075533D01*
X3221884Y2075679D01*
X3221383Y2080129D01*
X3221295Y2080407D01*
X3221254Y2080695D01*
X3219774Y2084925D01*
X3219627Y2085176D01*
X3219523Y2085447D01*
X3217143Y2089237D01*
X3216943Y2089449D01*
X3216781Y2089691D01*
X3213611Y2092861D01*
X3213369Y2093023D01*
X3213157Y2093223D01*
X3209367Y2095603D01*
X3209096Y2095707D01*
X3208845Y2095854D01*
X3204615Y2097334D01*
X3204327Y2097375D01*
X3204049Y2097464D01*
X3199599Y2097963D01*
X3199453Y2097951D01*
X3199310Y2097980D01*
D02*
G37*
G36*
X2449310Y1222980D02*
X1789310D01*
X1789166Y1222951D01*
X1789021Y1222963D01*
X1784571Y1222463D01*
X1784293Y1222375D01*
X1784005Y1222334D01*
X1779775Y1220854D01*
X1779524Y1220707D01*
X1779253Y1220603D01*
X1775462Y1218223D01*
X1775251Y1218023D01*
X1775009Y1217861D01*
X1771839Y1214691D01*
X1771677Y1214449D01*
X1771477Y1214237D01*
X1769097Y1210447D01*
X1768993Y1210176D01*
X1768846Y1209925D01*
X1767365Y1205695D01*
X1767325Y1205407D01*
X1767236Y1205129D01*
X1766736Y1200679D01*
X1766749Y1200533D01*
X1766720Y1200390D01*
X1766720Y435390D01*
X1766749Y435246D01*
X1766736Y435101D01*
X1767236Y430651D01*
X1767325Y430373D01*
X1767365Y430085D01*
X1768845Y425855D01*
X1768993Y425604D01*
X1769097Y425332D01*
X1771477Y421543D01*
X1771677Y421331D01*
X1771839Y421089D01*
X1775008Y417919D01*
X1775251Y417757D01*
X1775463Y417557D01*
X1779253Y415177D01*
X1779524Y415073D01*
X1779774Y414925D01*
X1784005Y413445D01*
X1784293Y413405D01*
X1784571Y413316D01*
X1789021Y412816D01*
X1789167Y412829D01*
X1789310Y412800D01*
X1883237D01*
X1902478Y393559D01*
X1903319Y392997D01*
X1904310Y392800D01*
X1904310D01*
D01*
X2234310D01*
D01*
X2234310D01*
X2234507Y392839D01*
X2235301Y392997D01*
X2236141Y393559D01*
Y393559D01*
X2236141D01*
X2255383Y412800D01*
X2449310D01*
X2449453Y412829D01*
X2449599Y412816D01*
X2454049Y413316D01*
X2454327Y413405D01*
X2454615Y413445D01*
X2458845Y414925D01*
X2459096Y415073D01*
X2459367Y415177D01*
X2463157Y417557D01*
X2463369Y417757D01*
X2463611Y417919D01*
X2466781Y421089D01*
X2466943Y421331D01*
X2467143Y421543D01*
X2469523Y425333D01*
X2469626Y425604D01*
X2469774Y425854D01*
X2471254Y430084D01*
X2471295Y430373D01*
X2471384Y430651D01*
X2471883Y435101D01*
X2471871Y435247D01*
X2471900Y435390D01*
X2471900Y1200390D01*
X2471871Y1200534D01*
X2471884Y1200679D01*
X2471383Y1205129D01*
X2471295Y1205407D01*
X2471254Y1205695D01*
X2469774Y1209925D01*
X2469627Y1210175D01*
X2469523Y1210447D01*
X2467143Y1214237D01*
X2466943Y1214449D01*
X2466781Y1214691D01*
X2463611Y1217861D01*
X2463369Y1218023D01*
X2463157Y1218223D01*
X2459367Y1220603D01*
X2459095Y1220707D01*
X2458845Y1220854D01*
X2454615Y1222334D01*
X2454327Y1222375D01*
X2454049Y1222463D01*
X2449599Y1222963D01*
X2449453Y1222951D01*
X2449310Y1222980D01*
D02*
G37*
G36*
X3199310D02*
X2539310D01*
X2539166Y1222951D01*
X2539021Y1222963D01*
X2534571Y1222463D01*
X2534293Y1222375D01*
X2534005Y1222334D01*
X2529775Y1220854D01*
X2529524Y1220707D01*
X2529253Y1220603D01*
X2525463Y1218223D01*
X2525251Y1218023D01*
X2525009Y1217861D01*
X2521839Y1214691D01*
X2521677Y1214449D01*
X2521477Y1214237D01*
X2519097Y1210447D01*
X2518993Y1210175D01*
X2518846Y1209925D01*
X2517366Y1205695D01*
X2517325Y1205407D01*
X2517236Y1205129D01*
X2516736Y1200679D01*
X2516749Y1200534D01*
X2516720Y1200390D01*
Y435390D01*
X2516749Y435246D01*
X2516736Y435101D01*
X2517236Y430651D01*
X2517325Y430373D01*
X2517366Y430085D01*
X2518846Y425855D01*
X2518993Y425604D01*
X2519097Y425332D01*
X2521477Y421543D01*
X2521677Y421331D01*
X2521839Y421089D01*
X2525009Y417919D01*
X2525251Y417757D01*
X2525463Y417557D01*
X2529253Y415177D01*
X2529524Y415073D01*
X2529775Y414925D01*
X2534005Y413445D01*
X2534293Y413405D01*
X2534571Y413316D01*
X2539021Y412816D01*
X2539167Y412829D01*
X2539310Y412800D01*
X2633237D01*
X2652479Y393559D01*
X2653319Y392997D01*
X2654310Y392800D01*
X2654310D01*
D01*
X2984310D01*
D01*
X2984310D01*
X2984507Y392839D01*
X2985301Y392997D01*
X2986141Y393559D01*
Y393559D01*
X2986141D01*
X3005383Y412800D01*
X3199310D01*
X3199453Y412829D01*
X3199599Y412816D01*
X3204049Y413316D01*
X3204327Y413405D01*
X3204615Y413445D01*
X3208845Y414925D01*
X3209095Y415073D01*
X3209367Y415177D01*
X3213157Y417557D01*
X3213369Y417757D01*
X3213611Y417919D01*
X3216781Y421089D01*
X3216943Y421331D01*
X3217143Y421543D01*
X3219523Y425332D01*
X3219627Y425604D01*
X3219774Y425855D01*
X3221254Y430085D01*
X3221295Y430373D01*
X3221383Y430651D01*
X3221884Y435101D01*
X3221871Y435246D01*
X3221900Y435390D01*
Y1200390D01*
X3221871Y1200534D01*
X3221884Y1200679D01*
X3221383Y1205129D01*
X3221295Y1205407D01*
X3221254Y1205695D01*
X3219774Y1209925D01*
X3219627Y1210175D01*
X3219523Y1210447D01*
X3217143Y1214237D01*
X3216943Y1214449D01*
X3216781Y1214691D01*
X3213611Y1217861D01*
X3213369Y1218023D01*
X3213157Y1218223D01*
X3209367Y1220603D01*
X3209095Y1220707D01*
X3208845Y1220854D01*
X3204615Y1222334D01*
X3204327Y1222375D01*
X3204049Y1222463D01*
X3199599Y1222963D01*
X3199453Y1222951D01*
X3199310Y1222980D01*
D02*
G37*
G36*
X1699310D02*
X1039310D01*
X1039166Y1222951D01*
X1039020Y1222963D01*
X1034571Y1222463D01*
X1034293Y1222375D01*
X1034005Y1222334D01*
X1029774Y1220854D01*
X1029524Y1220707D01*
X1029252Y1220603D01*
X1025462Y1218223D01*
X1025251Y1218023D01*
X1025008Y1217861D01*
X1021838Y1214691D01*
X1021676Y1214449D01*
X1021476Y1214237D01*
X1019097Y1210447D01*
X1018993Y1210176D01*
X1018845Y1209925D01*
X1017365Y1205695D01*
X1017324Y1205407D01*
X1017236Y1205129D01*
X1016736Y1200679D01*
X1016749Y1200533D01*
X1016720Y1200390D01*
Y435390D01*
X1016749Y435247D01*
X1016736Y435101D01*
X1017236Y430651D01*
X1017324Y430373D01*
X1017365Y430084D01*
X1018845Y425854D01*
X1018993Y425604D01*
X1019097Y425333D01*
X1021476Y421543D01*
X1021676Y421331D01*
X1021838Y421089D01*
X1025008Y417919D01*
X1025251Y417757D01*
X1025462Y417557D01*
X1029252Y415177D01*
X1029524Y415073D01*
X1029774Y414925D01*
X1034005Y413445D01*
X1034293Y413405D01*
X1034571Y413316D01*
X1039021Y412816D01*
X1039166Y412829D01*
X1039310Y412800D01*
X1133237D01*
X1152478Y393559D01*
X1153319Y392997D01*
X1154310Y392800D01*
X1154310D01*
D01*
X1484310D01*
D01*
X1484310D01*
X1484507Y392839D01*
X1485301Y392997D01*
X1486141Y393559D01*
Y393559D01*
X1486141D01*
X1505382Y412800D01*
X1699310D01*
X1699453Y412829D01*
X1699599Y412816D01*
X1704049Y413316D01*
X1704326Y413405D01*
X1704615Y413445D01*
X1708845Y414925D01*
X1709095Y415073D01*
X1709367Y415177D01*
X1713157Y417557D01*
X1713369Y417757D01*
X1713611Y417919D01*
X1716781Y421089D01*
X1716943Y421331D01*
X1717143Y421543D01*
X1719523Y425333D01*
X1719626Y425604D01*
X1719774Y425854D01*
X1721254Y430084D01*
X1721295Y430373D01*
X1721383Y430651D01*
X1721883Y435101D01*
X1721871Y435246D01*
X1721900Y435390D01*
Y1200390D01*
X1721871Y1200534D01*
X1721883Y1200679D01*
X1721383Y1205129D01*
X1721295Y1205407D01*
X1721254Y1205695D01*
X1719774Y1209925D01*
X1719626Y1210175D01*
X1719523Y1210447D01*
X1717143Y1214237D01*
X1716943Y1214449D01*
X1716781Y1214691D01*
X1713611Y1217861D01*
X1713369Y1218023D01*
X1713157Y1218223D01*
X1709367Y1220603D01*
X1709095Y1220707D01*
X1708845Y1220854D01*
X1704615Y1222334D01*
X1704326Y1222375D01*
X1704049Y1222463D01*
X1699599Y1222963D01*
X1699453Y1222951D01*
X1699310Y1222980D01*
D02*
G37*
G36*
X949310D02*
X289310D01*
X289166Y1222951D01*
X289021Y1222963D01*
X284571Y1222463D01*
X284293Y1222375D01*
X284005Y1222334D01*
X279774Y1220854D01*
X279524Y1220707D01*
X279252Y1220603D01*
X275462Y1218223D01*
X275251Y1218023D01*
X275008Y1217861D01*
X271838Y1214691D01*
X271677Y1214449D01*
X271477Y1214237D01*
X269097Y1210447D01*
X268993Y1210175D01*
X268845Y1209925D01*
X267365Y1205695D01*
X267325Y1205407D01*
X267236Y1205129D01*
X266736Y1200679D01*
X266749Y1200534D01*
X266720Y1200390D01*
Y435390D01*
X266749Y435246D01*
X266736Y435101D01*
X267236Y430651D01*
X267325Y430373D01*
X267365Y430085D01*
X268845Y425855D01*
X268993Y425604D01*
X269097Y425332D01*
X271477Y421543D01*
X271677Y421331D01*
X271838Y421089D01*
X275008Y417919D01*
X275251Y417757D01*
X275462Y417557D01*
X279253Y415177D01*
X279524Y415073D01*
X279774Y414925D01*
X284004Y413445D01*
X284293Y413405D01*
X284571Y413316D01*
X289021Y412816D01*
X289166Y412829D01*
X289310Y412800D01*
X383237D01*
X402478Y393559D01*
X403319Y392997D01*
X404310Y392800D01*
X404310D01*
D01*
X734310D01*
D01*
X734310D01*
X734507Y392839D01*
X735301Y392997D01*
X736141Y393559D01*
Y393559D01*
X736141D01*
X755382Y412800D01*
X949310D01*
X949453Y412829D01*
X949599Y412816D01*
X954049Y413316D01*
X954326Y413405D01*
X954615Y413445D01*
X958845Y414925D01*
X959095Y415073D01*
X959367Y415177D01*
X963157Y417557D01*
X963369Y417757D01*
X963611Y417919D01*
X966781Y421089D01*
X966943Y421331D01*
X967143Y421543D01*
X969523Y425332D01*
X969626Y425604D01*
X969774Y425855D01*
X971254Y430085D01*
X971295Y430373D01*
X971383Y430651D01*
X971883Y435101D01*
X971871Y435246D01*
X971899Y435390D01*
Y1200390D01*
X971871Y1200534D01*
X971883Y1200679D01*
X971383Y1205129D01*
X971295Y1205407D01*
X971254Y1205695D01*
X969774Y1209925D01*
X969626Y1210175D01*
X969523Y1210447D01*
X967143Y1214237D01*
X966943Y1214449D01*
X966781Y1214691D01*
X963611Y1217861D01*
X963369Y1218023D01*
X963157Y1218223D01*
X959367Y1220603D01*
X959095Y1220707D01*
X958845Y1220854D01*
X954615Y1222334D01*
X954326Y1222375D01*
X954049Y1222463D01*
X949599Y1222963D01*
X949453Y1222951D01*
X949310Y1222980D01*
D02*
G37*
G36*
X3282163Y374430D02*
X3278457D01*
X3274798Y373850D01*
X3271274Y372705D01*
X3267972Y371023D01*
X3264975Y368845D01*
X3262355Y366225D01*
X3260177Y363228D01*
X3258495Y359926D01*
X3257350Y356402D01*
X3256770Y352743D01*
Y349037D01*
X3257350Y345378D01*
X3258495Y341854D01*
X3260177Y338552D01*
X3262355Y335555D01*
X3264975Y332935D01*
X3267972Y330757D01*
X3271274Y329075D01*
X3274798Y327930D01*
X3278457Y327350D01*
X3282163D01*
X3285822Y327930D01*
X3289346Y329075D01*
X3292648Y330757D01*
X3295645Y332935D01*
X3298265Y335555D01*
X3300443Y338552D01*
X3302126Y341854D01*
X3303270Y345378D01*
X3303850Y349037D01*
Y352743D01*
X3303270Y356402D01*
X3302126Y359926D01*
X3300443Y363228D01*
X3298265Y366225D01*
X3295645Y368845D01*
X3292648Y371023D01*
X3289346Y372705D01*
X3285822Y373850D01*
X3282163Y374430D01*
D02*
G37*
G36*
X210163D02*
X206457D01*
X202798Y373850D01*
X199274Y372705D01*
X195972Y371023D01*
X192975Y368845D01*
X190355Y366225D01*
X188177Y363228D01*
X186495Y359926D01*
X185350Y356402D01*
X184770Y352743D01*
Y349037D01*
X185350Y345378D01*
X186495Y341854D01*
X188177Y338552D01*
X190355Y335555D01*
X192975Y332935D01*
X195972Y330757D01*
X199274Y329075D01*
X202798Y327930D01*
X206457Y327350D01*
X210163D01*
X213822Y327930D01*
X217346Y329075D01*
X220648Y330757D01*
X223645Y332935D01*
X226265Y335555D01*
X228443Y338552D01*
X230126Y341854D01*
X231271Y345378D01*
X231850Y349037D01*
Y352743D01*
X231271Y356402D01*
X230126Y359926D01*
X228443Y363228D01*
X226265Y366225D01*
X223645Y368845D01*
X220648Y371023D01*
X217346Y372705D01*
X213822Y373850D01*
X210163Y374430D01*
D02*
G37*
%LPD*%
D13*
X3280310Y3014890D02*
D03*
X208310D02*
D03*
Y350890D02*
D03*
X3280310D02*
D03*
M02*
