G04*
G04 #@! TF.GenerationSoftware,Altium Limited,Altium Designer,20.2.5 (213)*
G04*
G04 Layer_Color=8388736*
%FSLAX44Y44*%
%MOMM*%
G71*
G04*
G04 #@! TF.SameCoordinates,4E08065F-C35F-452A-8956-60BBE1E5935A*
G04*
G04*
G04 #@! TF.FilePolarity,Negative*
G04*
G01*
G75*
%ADD19R,0.9000X1.0000*%
%ADD20R,0.9500X1.0000*%
%ADD21R,7.4000X7.4000*%
%ADD22O,0.4500X1.0500*%
%ADD23O,1.0500X0.4500*%
%ADD24R,5.6000X5.6000*%
%ADD25O,0.5000X0.9500*%
%ADD26O,0.9500X0.5000*%
%ADD27R,0.2000X0.2000*%
%ADD28R,0.2000X0.2000*%
%ADD29R,1.4000X1.1000*%
%ADD30R,2.1000X1.5000*%
%ADD31R,1.3000X0.8000*%
%ADD32R,1.0000X0.9500*%
%ADD33R,1.0000X0.9000*%
%ADD34R,4.2000X2.2000*%
%ADD35R,3.7000X2.2000*%
%ADD36R,2.4000X0.7000*%
G04:AMPARAMS|DCode=37|XSize=1.3mm|YSize=1.95mm|CornerRadius=0.2375mm|HoleSize=0mm|Usage=FLASHONLY|Rotation=90.000|XOffset=0mm|YOffset=0mm|HoleType=Round|Shape=RoundedRectangle|*
%AMROUNDEDRECTD37*
21,1,1.3000,1.4750,0,0,90.0*
21,1,0.8250,1.9500,0,0,90.0*
1,1,0.4750,0.7375,0.4125*
1,1,0.4750,0.7375,-0.4125*
1,1,0.4750,-0.7375,-0.4125*
1,1,0.4750,-0.7375,0.4125*
%
%ADD37ROUNDEDRECTD37*%
G04:AMPARAMS|DCode=38|XSize=1.3mm|YSize=1.95mm|CornerRadius=0.2375mm|HoleSize=0mm|Usage=FLASHONLY|Rotation=90.000|XOffset=0mm|YOffset=0mm|HoleType=Round|Shape=RoundedRectangle|*
%AMROUNDEDRECTD38*
21,1,1.3000,1.4750,0,0,90.0*
21,1,0.8250,1.9500,0,0,90.0*
1,1,0.4750,0.7375,0.4125*
1,1,0.4750,0.7375,-0.4125*
1,1,0.4750,-0.7375,-0.4125*
1,1,0.4750,-0.7375,0.4125*
%
%ADD38ROUNDEDRECTD38*%
G04:AMPARAMS|DCode=39|XSize=3.7mm|YSize=1.95mm|CornerRadius=0.3188mm|HoleSize=0mm|Usage=FLASHONLY|Rotation=90.000|XOffset=0mm|YOffset=0mm|HoleType=Round|Shape=RoundedRectangle|*
%AMROUNDEDRECTD39*
21,1,3.7000,1.3125,0,0,90.0*
21,1,3.0625,1.9500,0,0,90.0*
1,1,0.6375,0.6563,1.5313*
1,1,0.6375,0.6563,-1.5313*
1,1,0.6375,-0.6563,-1.5313*
1,1,0.6375,-0.6563,1.5313*
%
%ADD39ROUNDEDRECTD39*%
G04:AMPARAMS|DCode=40|XSize=3.7mm|YSize=1.95mm|CornerRadius=0.3188mm|HoleSize=0mm|Usage=FLASHONLY|Rotation=180.000|XOffset=0mm|YOffset=0mm|HoleType=Round|Shape=RoundedRectangle|*
%AMROUNDEDRECTD40*
21,1,3.7000,1.3125,0,0,180.0*
21,1,3.0625,1.9500,0,0,180.0*
1,1,0.6375,-1.5313,0.6563*
1,1,0.6375,1.5313,0.6563*
1,1,0.6375,1.5313,-0.6563*
1,1,0.6375,-1.5313,-0.6563*
%
%ADD40ROUNDEDRECTD40*%
G04:AMPARAMS|DCode=41|XSize=1.3mm|YSize=1.95mm|CornerRadius=0.2375mm|HoleSize=0mm|Usage=FLASHONLY|Rotation=180.000|XOffset=0mm|YOffset=0mm|HoleType=Round|Shape=RoundedRectangle|*
%AMROUNDEDRECTD41*
21,1,1.3000,1.4750,0,0,180.0*
21,1,0.8250,1.9500,0,0,180.0*
1,1,0.4750,-0.4125,0.7375*
1,1,0.4750,0.4125,0.7375*
1,1,0.4750,0.4125,-0.7375*
1,1,0.4750,-0.4125,-0.7375*
%
%ADD41ROUNDEDRECTD41*%
G04:AMPARAMS|DCode=42|XSize=1.3mm|YSize=1.95mm|CornerRadius=0.2375mm|HoleSize=0mm|Usage=FLASHONLY|Rotation=180.000|XOffset=0mm|YOffset=0mm|HoleType=Round|Shape=RoundedRectangle|*
%AMROUNDEDRECTD42*
21,1,1.3000,1.4750,0,0,180.0*
21,1,0.8250,1.9500,0,0,180.0*
1,1,0.4750,-0.4125,0.7375*
1,1,0.4750,0.4125,0.7375*
1,1,0.4750,0.4125,-0.7375*
1,1,0.4750,-0.4125,-0.7375*
%
%ADD42ROUNDEDRECTD42*%
G04:AMPARAMS|DCode=43|XSize=1mm|YSize=1mm|CornerRadius=0.2mm|HoleSize=0mm|Usage=FLASHONLY|Rotation=0.000|XOffset=0mm|YOffset=0mm|HoleType=Round|Shape=RoundedRectangle|*
%AMROUNDEDRECTD43*
21,1,1.0000,0.6000,0,0,0.0*
21,1,0.6000,1.0000,0,0,0.0*
1,1,0.4000,0.3000,-0.3000*
1,1,0.4000,-0.3000,-0.3000*
1,1,0.4000,-0.3000,0.3000*
1,1,0.4000,0.3000,0.3000*
%
%ADD43ROUNDEDRECTD43*%
G04:AMPARAMS|DCode=44|XSize=0.85mm|YSize=1.55mm|CornerRadius=0.1813mm|HoleSize=0mm|Usage=FLASHONLY|Rotation=180.000|XOffset=0mm|YOffset=0mm|HoleType=Round|Shape=RoundedRectangle|*
%AMROUNDEDRECTD44*
21,1,0.8500,1.1875,0,0,180.0*
21,1,0.4875,1.5500,0,0,180.0*
1,1,0.3625,-0.2438,0.5938*
1,1,0.3625,0.2438,0.5938*
1,1,0.3625,0.2438,-0.5938*
1,1,0.3625,-0.2438,-0.5938*
%
%ADD44ROUNDEDRECTD44*%
%ADD45R,1.6000X2.3000*%
%ADD46C,2.2000*%
%ADD47R,1.7000X1.7000*%
%ADD48C,1.7000*%
%ADD49R,1.7000X1.7000*%
%ADD50C,3.4720*%
%ADD51R,2.2000X2.2000*%
%ADD52C,2.0000*%
%ADD53P,2.1648X8X202.5*%
%ADD54C,0.2000*%
%ADD55C,1.8000*%
%ADD56C,1.0000*%
%ADD57C,0.8600*%
D19*
X1137570Y802640D02*
D03*
X1125570D02*
D03*
X677830Y847090D02*
D03*
Y833120D02*
D03*
X1243900Y532130D02*
D03*
X1243900Y549910D02*
D03*
X1289970Y1041400D02*
D03*
X1277970D02*
D03*
X1289970Y1026160D02*
D03*
X1277970D02*
D03*
X1289970Y1010920D02*
D03*
X1277970D02*
D03*
X1260190Y807720D02*
D03*
X1272190D02*
D03*
Y791210D02*
D03*
X1260190D02*
D03*
X1272190Y777240D02*
D03*
X1260190D02*
D03*
X1171290Y664210D02*
D03*
X1183290D02*
D03*
X1196690D02*
D03*
X1208690Y664210D02*
D03*
X1231900Y532130D02*
D03*
X1231900Y549910D02*
D03*
X914750Y736600D02*
D03*
X926750Y736600D02*
D03*
X914750Y751840D02*
D03*
X926750D02*
D03*
X914750Y767080D02*
D03*
X926750D02*
D03*
X914750Y782320D02*
D03*
X926750D02*
D03*
X677830Y861060D02*
D03*
X665830D02*
D03*
Y847090D02*
D03*
Y833120D02*
D03*
D20*
X1139590Y772160D02*
D03*
X1126090D02*
D03*
X678580Y806450D02*
D03*
X1173080Y1042670D02*
D03*
X1186580D02*
D03*
X1259440Y840740D02*
D03*
X1272940D02*
D03*
X1259440Y828040D02*
D03*
X1272940D02*
D03*
X1128630Y502920D02*
D03*
X1142130D02*
D03*
X1128630Y490220D02*
D03*
X1142130D02*
D03*
X1231500Y577850D02*
D03*
X1245000D02*
D03*
X1231500Y565150D02*
D03*
X1245000D02*
D03*
X1063390Y808990D02*
D03*
X1049890D02*
D03*
X851770Y877570D02*
D03*
X865270D02*
D03*
Y826770D02*
D03*
X851770D02*
D03*
X678580Y876300D02*
D03*
X665080D02*
D03*
X678580Y819150D02*
D03*
X665080D02*
D03*
Y806450D02*
D03*
X1206900Y948690D02*
D03*
X1156570Y948690D02*
D03*
X1170070D02*
D03*
X1193400Y948690D02*
D03*
D21*
X762000Y839470D02*
D03*
D22*
X724500Y884220D02*
D03*
X729500D02*
D03*
X734500D02*
D03*
X739500D02*
D03*
X744500D02*
D03*
X749500D02*
D03*
X754500D02*
D03*
X759500D02*
D03*
X764500D02*
D03*
X769500D02*
D03*
X774500D02*
D03*
X779500D02*
D03*
X784500D02*
D03*
X789500D02*
D03*
X794500D02*
D03*
X799500D02*
D03*
Y794720D02*
D03*
X794500D02*
D03*
X789500D02*
D03*
X784500D02*
D03*
X779500D02*
D03*
X774500D02*
D03*
X769500D02*
D03*
X764500D02*
D03*
X759500D02*
D03*
X754500D02*
D03*
X749500D02*
D03*
X744500D02*
D03*
X739500D02*
D03*
X734500D02*
D03*
X729500D02*
D03*
X724500D02*
D03*
D23*
X806750Y876970D02*
D03*
Y871970D02*
D03*
Y866970D02*
D03*
Y861970D02*
D03*
Y856970D02*
D03*
Y851970D02*
D03*
Y846970D02*
D03*
Y841970D02*
D03*
Y836970D02*
D03*
Y831970D02*
D03*
Y826970D02*
D03*
Y821970D02*
D03*
Y816970D02*
D03*
Y811970D02*
D03*
Y806970D02*
D03*
Y801970D02*
D03*
X717250D02*
D03*
Y806970D02*
D03*
Y811970D02*
D03*
Y816970D02*
D03*
Y821970D02*
D03*
Y826970D02*
D03*
Y831970D02*
D03*
Y836970D02*
D03*
Y841970D02*
D03*
Y846970D02*
D03*
Y851970D02*
D03*
Y856970D02*
D03*
Y861970D02*
D03*
Y866970D02*
D03*
Y871970D02*
D03*
Y876970D02*
D03*
D24*
X1193800Y800100D02*
D03*
D25*
X1221300Y833600D02*
D03*
X1216300D02*
D03*
X1211300D02*
D03*
X1206300D02*
D03*
X1201300D02*
D03*
X1196300D02*
D03*
X1191300D02*
D03*
X1186300D02*
D03*
X1181300D02*
D03*
X1176300D02*
D03*
X1171300D02*
D03*
X1166300D02*
D03*
Y766600D02*
D03*
X1171300D02*
D03*
X1176300D02*
D03*
X1181300D02*
D03*
X1186300D02*
D03*
X1191300D02*
D03*
X1196300D02*
D03*
X1201300D02*
D03*
X1206300D02*
D03*
X1211300D02*
D03*
X1216300D02*
D03*
X1221300Y766600D02*
D03*
D26*
X1160300Y827600D02*
D03*
Y822600D02*
D03*
Y817600D02*
D03*
Y812600D02*
D03*
Y807600D02*
D03*
Y802600D02*
D03*
X1160300Y797600D02*
D03*
X1160300Y792600D02*
D03*
Y787600D02*
D03*
Y782600D02*
D03*
Y777600D02*
D03*
Y772600D02*
D03*
X1227300D02*
D03*
Y777600D02*
D03*
Y782600D02*
D03*
Y787600D02*
D03*
Y792600D02*
D03*
Y797600D02*
D03*
Y802600D02*
D03*
Y807600D02*
D03*
Y812600D02*
D03*
Y817600D02*
D03*
Y822600D02*
D03*
Y827600D02*
D03*
D27*
X1193800Y808600D02*
D03*
Y791600D02*
D03*
Y803600D02*
D03*
Y796600D02*
D03*
D28*
X1202300Y800100D02*
D03*
X1185300D02*
D03*
X1197300D02*
D03*
X1190300D02*
D03*
D29*
X1290350Y550020D02*
D03*
Y532020D02*
D03*
X1262350D02*
D03*
Y550020D02*
D03*
D30*
X601220Y936430D02*
D03*
Y991430D02*
D03*
X633220Y936430D02*
D03*
Y991430D02*
D03*
D31*
X1176450Y637540D02*
D03*
X1198900Y647540D02*
D03*
Y627040D02*
D03*
D32*
X1188720Y875430D02*
D03*
Y861930D02*
D03*
X1162050D02*
D03*
Y875430D02*
D03*
X1221740Y861930D02*
D03*
Y875430D02*
D03*
Y728110D02*
D03*
Y714610D02*
D03*
X937260Y912730D02*
D03*
Y926230D02*
D03*
X571500Y922890D02*
D03*
Y936390D02*
D03*
X666750Y922890D02*
D03*
Y936390D02*
D03*
X779780Y757320D02*
D03*
Y743820D02*
D03*
X767080Y757320D02*
D03*
Y743820D02*
D03*
X754380Y757320D02*
D03*
X754380Y743820D02*
D03*
X571500Y884320D02*
D03*
Y833990D02*
D03*
Y870820D02*
D03*
Y847490D02*
D03*
D33*
X1174750Y874680D02*
D03*
Y862680D02*
D03*
X1153160Y714090D02*
D03*
Y726090D02*
D03*
X1167130D02*
D03*
Y714090D02*
D03*
X1181100D02*
D03*
Y726090D02*
D03*
X1196340Y714090D02*
D03*
Y726090D02*
D03*
X728980Y931260D02*
D03*
Y943260D02*
D03*
X730250Y755300D02*
D03*
Y743300D02*
D03*
X716280D02*
D03*
Y755300D02*
D03*
D34*
X1322020Y644420D02*
D03*
Y742420D02*
D03*
D35*
X1271020Y644420D02*
D03*
Y742420D02*
D03*
D36*
Y709420D02*
D03*
Y701420D02*
D03*
Y693420D02*
D03*
Y685420D02*
D03*
Y677420D02*
D03*
D37*
X1193780Y526910D02*
D03*
D38*
Y549910D02*
D03*
Y572910D02*
D03*
D39*
X1127780Y549910D02*
D03*
D40*
X984250Y859810D02*
D03*
D41*
X961250Y925810D02*
D03*
X984250D02*
D03*
D42*
X1007250D02*
D03*
D43*
X958460Y736600D02*
D03*
X941460Y736600D02*
D03*
X941460Y751840D02*
D03*
X958460D02*
D03*
X941460Y767080D02*
D03*
X958460D02*
D03*
Y782320D02*
D03*
X941460D02*
D03*
D44*
X1258570Y1038160D02*
D03*
Y1014160D02*
D03*
D45*
X1077870Y956860D02*
D03*
X1032870D02*
D03*
X1077870Y866860D02*
D03*
X1032870D02*
D03*
Y696680D02*
D03*
X1077870D02*
D03*
X1032870Y786680D02*
D03*
X1077870D02*
D03*
D46*
X800870Y496570D02*
D03*
X572270Y1106170D02*
D03*
X572270Y1131570D02*
D03*
X800870D02*
D03*
X724670Y1106170D02*
D03*
Y1131570D02*
D03*
X750070Y1106170D02*
D03*
Y1131570D02*
D03*
X775470Y1106170D02*
D03*
Y1131570D02*
D03*
X800870Y1106170D02*
D03*
X699270Y1131570D02*
D03*
X699270Y1106170D02*
D03*
X673870Y1131570D02*
D03*
X673870Y1106170D02*
D03*
X648470Y1131570D02*
D03*
Y1106170D02*
D03*
X623070Y1131570D02*
D03*
Y1106170D02*
D03*
X597670D02*
D03*
Y1131570D02*
D03*
X953770Y1106170D02*
D03*
X953770Y1131570D02*
D03*
X979170Y1106170D02*
D03*
X979170Y1131570D02*
D03*
X1004570Y1106170D02*
D03*
Y1131570D02*
D03*
X1029970Y1106170D02*
D03*
X928370Y1131570D02*
D03*
Y1106170D02*
D03*
X902970Y1131570D02*
D03*
Y1106170D02*
D03*
X877570Y1131570D02*
D03*
Y1106170D02*
D03*
X852170Y1131570D02*
D03*
X852170Y1106170D02*
D03*
X826770Y1106170D02*
D03*
Y1131570D02*
D03*
X572270Y521970D02*
D03*
X800870D02*
D03*
X724670Y496570D02*
D03*
X724670Y521970D02*
D03*
X699270D02*
D03*
X673870D02*
D03*
X648470D02*
D03*
X623070D02*
D03*
X597670D02*
D03*
X953770Y496570D02*
D03*
Y521970D02*
D03*
X979170Y496570D02*
D03*
Y521970D02*
D03*
X1004570Y496570D02*
D03*
X1004570Y521970D02*
D03*
X1029970Y496570D02*
D03*
X928370Y521970D02*
D03*
Y496570D02*
D03*
X877570Y521970D02*
D03*
X877570Y496570D02*
D03*
X572270Y496570D02*
D03*
X597670Y496570D02*
D03*
X623070D02*
D03*
X648470Y496570D02*
D03*
X673870D02*
D03*
X699270D02*
D03*
X750070D02*
D03*
Y521970D02*
D03*
X775470Y496570D02*
D03*
Y521970D02*
D03*
X826770Y496570D02*
D03*
Y521970D02*
D03*
X852170Y496570D02*
D03*
Y521970D02*
D03*
X902970Y496570D02*
D03*
X902970Y521970D02*
D03*
D47*
X934720Y807720D02*
D03*
X1322070D02*
D03*
X998220Y680720D02*
D03*
D48*
X934720Y833120D02*
D03*
X1283970Y1131570D02*
D03*
Y496570D02*
D03*
X1322070Y833120D02*
D03*
X1125220Y1042670D02*
D03*
X1245870Y941070D02*
D03*
X1271270D02*
D03*
X1296670D02*
D03*
X1156970Y1131570D02*
D03*
X998220Y731520D02*
D03*
Y706120D02*
D03*
X750570Y1055370D02*
D03*
X775970D02*
D03*
X801370D02*
D03*
X826770D02*
D03*
X852170D02*
D03*
X877570D02*
D03*
X902970D02*
D03*
X572770Y572770D02*
D03*
X598170D02*
D03*
X623570D02*
D03*
X648970D02*
D03*
X674370D02*
D03*
X699770D02*
D03*
X725170D02*
D03*
X1131570Y1080770D02*
D03*
X1182370D02*
D03*
X1233170D02*
D03*
X1156970D02*
D03*
X1207770D02*
D03*
D49*
X1309370Y1131570D02*
D03*
Y496570D02*
D03*
X1150620Y1042670D02*
D03*
X1322070Y941070D02*
D03*
X1131570Y1131570D02*
D03*
X928370Y1055370D02*
D03*
X750570Y572770D02*
D03*
X1258570Y1080770D02*
D03*
D50*
X1068070Y1055370D02*
D03*
X1055370Y572770D02*
D03*
X547370Y725170D02*
D03*
D51*
X1029970Y1131570D02*
D03*
Y521970D02*
D03*
D52*
X572770Y1055370D02*
D03*
X598170D02*
D03*
X623570D02*
D03*
X648970D02*
D03*
X674370D02*
D03*
X791210Y572770D02*
D03*
X816610D02*
D03*
X842010D02*
D03*
X867410D02*
D03*
X892810D02*
D03*
X918210D02*
D03*
X994410D02*
D03*
X969010D02*
D03*
X943610D02*
D03*
D53*
X699770Y1055370D02*
D03*
X1019810Y572770D02*
D03*
D54*
X1303020Y671420D02*
D03*
Y715420D02*
D03*
D55*
X617270Y833828D02*
D03*
Y883828D02*
D03*
X1207370Y909320D02*
D03*
X1157370D02*
D03*
D56*
X789500Y811970D02*
D03*
X778500D02*
D03*
X767500D02*
D03*
X756500D02*
D03*
X745500D02*
D03*
X734500D02*
D03*
X789500Y822970D02*
D03*
X778500D02*
D03*
X767500D02*
D03*
X756500D02*
D03*
X745500D02*
D03*
X734500D02*
D03*
X789500Y833970D02*
D03*
X778500D02*
D03*
X767500D02*
D03*
X756500D02*
D03*
X745500D02*
D03*
X734500D02*
D03*
X789500Y844970D02*
D03*
X778500D02*
D03*
X767500D02*
D03*
X756500D02*
D03*
X745500D02*
D03*
X734500D02*
D03*
X789500Y855970D02*
D03*
X778500D02*
D03*
X767500D02*
D03*
X756500D02*
D03*
X745500D02*
D03*
X734500D02*
D03*
X789500Y866970D02*
D03*
X778500D02*
D03*
X767500D02*
D03*
X756500D02*
D03*
X745500D02*
D03*
X734500D02*
D03*
D57*
X1193800Y800100D02*
D03*
X1171800Y778100D02*
D03*
Y789100D02*
D03*
Y800100D02*
D03*
Y811100D02*
D03*
Y822100D02*
D03*
X1182800D02*
D03*
X1182800Y811100D02*
D03*
X1182800Y800100D02*
D03*
X1182800Y789100D02*
D03*
X1182800Y778100D02*
D03*
X1193800Y778100D02*
D03*
X1193800Y789100D02*
D03*
Y811100D02*
D03*
X1193800Y822100D02*
D03*
X1204800Y822100D02*
D03*
X1204800Y811100D02*
D03*
X1204800Y800100D02*
D03*
X1204800Y789100D02*
D03*
X1204800Y778100D02*
D03*
X1215800Y778100D02*
D03*
X1215800Y789100D02*
D03*
X1215800Y800100D02*
D03*
X1215800Y811100D02*
D03*
X1215800Y822100D02*
D03*
M02*
