G04*
G04 #@! TF.GenerationSoftware,Altium Limited,Altium Designer,20.2.5 (213)*
G04*
G04 Layer_Physical_Order=1*
G04 Layer_Color=255*
%FSLAX44Y44*%
%MOMM*%
G71*
G04*
G04 #@! TF.SameCoordinates,4E08065F-C35F-452A-8956-60BBE1E5935A*
G04*
G04*
G04 #@! TF.FilePolarity,Positive*
G04*
G01*
G75*
%ADD14C,0.2000*%
%ADD55C,1.8000*%
%ADD58R,0.7000X0.8000*%
%ADD59R,0.7500X0.8000*%
%ADD60R,7.2000X7.2000*%
%ADD61O,0.2500X0.8500*%
%ADD62O,0.8500X0.2500*%
%ADD63R,5.4000X5.4000*%
%ADD64O,0.3000X0.7500*%
%ADD65O,0.7500X0.3000*%
%ADD66R,1.2000X0.9000*%
%ADD67R,1.9000X1.3000*%
%ADD68R,1.1000X0.6000*%
%ADD69R,0.8000X0.7500*%
%ADD70R,0.8000X0.7000*%
%ADD71R,4.0000X2.0000*%
%ADD72R,3.5000X2.0000*%
%ADD73R,2.2000X0.5000*%
G04:AMPARAMS|DCode=74|XSize=1.1mm|YSize=1.75mm|CornerRadius=0.1375mm|HoleSize=0mm|Usage=FLASHONLY|Rotation=90.000|XOffset=0mm|YOffset=0mm|HoleType=Round|Shape=RoundedRectangle|*
%AMROUNDEDRECTD74*
21,1,1.1000,1.4750,0,0,90.0*
21,1,0.8250,1.7500,0,0,90.0*
1,1,0.2750,0.7375,0.4125*
1,1,0.2750,0.7375,-0.4125*
1,1,0.2750,-0.7375,-0.4125*
1,1,0.2750,-0.7375,0.4125*
%
%ADD74ROUNDEDRECTD74*%
G04:AMPARAMS|DCode=75|XSize=1.1mm|YSize=1.75mm|CornerRadius=0.1375mm|HoleSize=0mm|Usage=FLASHONLY|Rotation=90.000|XOffset=0mm|YOffset=0mm|HoleType=Round|Shape=RoundedRectangle|*
%AMROUNDEDRECTD75*
21,1,1.1000,1.4750,0,0,90.0*
21,1,0.8250,1.7500,0,0,90.0*
1,1,0.2750,0.7375,0.4125*
1,1,0.2750,0.7375,-0.4125*
1,1,0.2750,-0.7375,-0.4125*
1,1,0.2750,-0.7375,0.4125*
%
%ADD75ROUNDEDRECTD75*%
G04:AMPARAMS|DCode=76|XSize=3.5mm|YSize=1.75mm|CornerRadius=0.2188mm|HoleSize=0mm|Usage=FLASHONLY|Rotation=90.000|XOffset=0mm|YOffset=0mm|HoleType=Round|Shape=RoundedRectangle|*
%AMROUNDEDRECTD76*
21,1,3.5000,1.3125,0,0,90.0*
21,1,3.0625,1.7500,0,0,90.0*
1,1,0.4375,0.6563,1.5313*
1,1,0.4375,0.6563,-1.5313*
1,1,0.4375,-0.6563,-1.5313*
1,1,0.4375,-0.6563,1.5313*
%
%ADD76ROUNDEDRECTD76*%
G04:AMPARAMS|DCode=77|XSize=3.5mm|YSize=1.75mm|CornerRadius=0.2188mm|HoleSize=0mm|Usage=FLASHONLY|Rotation=180.000|XOffset=0mm|YOffset=0mm|HoleType=Round|Shape=RoundedRectangle|*
%AMROUNDEDRECTD77*
21,1,3.5000,1.3125,0,0,180.0*
21,1,3.0625,1.7500,0,0,180.0*
1,1,0.4375,-1.5313,0.6563*
1,1,0.4375,1.5313,0.6563*
1,1,0.4375,1.5313,-0.6563*
1,1,0.4375,-1.5313,-0.6563*
%
%ADD77ROUNDEDRECTD77*%
G04:AMPARAMS|DCode=78|XSize=1.1mm|YSize=1.75mm|CornerRadius=0.1375mm|HoleSize=0mm|Usage=FLASHONLY|Rotation=180.000|XOffset=0mm|YOffset=0mm|HoleType=Round|Shape=RoundedRectangle|*
%AMROUNDEDRECTD78*
21,1,1.1000,1.4750,0,0,180.0*
21,1,0.8250,1.7500,0,0,180.0*
1,1,0.2750,-0.4125,0.7375*
1,1,0.2750,0.4125,0.7375*
1,1,0.2750,0.4125,-0.7375*
1,1,0.2750,-0.4125,-0.7375*
%
%ADD78ROUNDEDRECTD78*%
G04:AMPARAMS|DCode=79|XSize=1.1mm|YSize=1.75mm|CornerRadius=0.1375mm|HoleSize=0mm|Usage=FLASHONLY|Rotation=180.000|XOffset=0mm|YOffset=0mm|HoleType=Round|Shape=RoundedRectangle|*
%AMROUNDEDRECTD79*
21,1,1.1000,1.4750,0,0,180.0*
21,1,0.8250,1.7500,0,0,180.0*
1,1,0.2750,-0.4125,0.7375*
1,1,0.2750,0.4125,0.7375*
1,1,0.2750,0.4125,-0.7375*
1,1,0.2750,-0.4125,-0.7375*
%
%ADD79ROUNDEDRECTD79*%
G04:AMPARAMS|DCode=80|XSize=0.8mm|YSize=0.8mm|CornerRadius=0.1mm|HoleSize=0mm|Usage=FLASHONLY|Rotation=0.000|XOffset=0mm|YOffset=0mm|HoleType=Round|Shape=RoundedRectangle|*
%AMROUNDEDRECTD80*
21,1,0.8000,0.6000,0,0,0.0*
21,1,0.6000,0.8000,0,0,0.0*
1,1,0.2000,0.3000,-0.3000*
1,1,0.2000,-0.3000,-0.3000*
1,1,0.2000,-0.3000,0.3000*
1,1,0.2000,0.3000,0.3000*
%
%ADD80ROUNDEDRECTD80*%
G04:AMPARAMS|DCode=81|XSize=0.65mm|YSize=1.35mm|CornerRadius=0.0813mm|HoleSize=0mm|Usage=FLASHONLY|Rotation=180.000|XOffset=0mm|YOffset=0mm|HoleType=Round|Shape=RoundedRectangle|*
%AMROUNDEDRECTD81*
21,1,0.6500,1.1875,0,0,180.0*
21,1,0.4875,1.3500,0,0,180.0*
1,1,0.1625,-0.2438,0.5938*
1,1,0.1625,0.2438,0.5938*
1,1,0.1625,0.2438,-0.5938*
1,1,0.1625,-0.2438,-0.5938*
%
%ADD81ROUNDEDRECTD81*%
%ADD82R,1.4000X2.1000*%
%ADD83C,0.7500*%
%ADD84C,0.5000*%
%ADD85C,0.4000*%
%ADD86C,0.3000*%
%ADD87C,2.0000*%
%ADD88R,1.5000X1.5000*%
%ADD89C,1.5000*%
%ADD90R,1.5000X1.5000*%
%ADD91C,3.2720*%
%ADD92R,2.0000X2.0000*%
%ADD93P,1.9483X8X202.5*%
%ADD94C,1.6000*%
%ADD95C,0.6000*%
%ADD96C,0.8000*%
%ADD97C,0.6600*%
G36*
X712979Y1128437D02*
X714188Y1125518D01*
X716112Y1123011D01*
X718618Y1121088D01*
X721537Y1119879D01*
X724335Y1119510D01*
Y1118230D01*
X721537Y1117861D01*
X718618Y1116652D01*
X716112Y1114728D01*
X714188Y1112222D01*
X712979Y1109303D01*
X712610Y1106505D01*
X711329D01*
X710961Y1109303D01*
X709752Y1112222D01*
X707829Y1114728D01*
X705322Y1116652D01*
X702403Y1117861D01*
X702329Y1117871D01*
Y1119869D01*
X702403Y1119879D01*
X705322Y1121088D01*
X707829Y1123011D01*
X709752Y1125518D01*
X710961Y1128437D01*
X711329Y1131236D01*
X712610D01*
X712979Y1128437D01*
D02*
G37*
G36*
X789179D02*
X790388Y1125518D01*
X792311Y1123011D01*
X794818Y1121088D01*
X797737Y1119879D01*
X800535Y1119510D01*
Y1118230D01*
X797737Y1117861D01*
X794818Y1116652D01*
X792311Y1114728D01*
X790388Y1112222D01*
X789179Y1109303D01*
X788811Y1106505D01*
X787530D01*
X787161Y1109303D01*
X785952Y1112222D01*
X784028Y1114728D01*
X781522Y1116652D01*
X778603Y1117861D01*
X775805Y1118230D01*
Y1119510D01*
X778603Y1119879D01*
X781522Y1121088D01*
X784028Y1123011D01*
X785952Y1125518D01*
X787161Y1128437D01*
X787530Y1131236D01*
X788811D01*
X789179Y1128437D01*
D02*
G37*
G36*
X662179D02*
X663388Y1125518D01*
X665312Y1123011D01*
X667818Y1121088D01*
X670737Y1119879D01*
X671061Y1119836D01*
Y1117904D01*
X670737Y1117861D01*
X667818Y1116652D01*
X665312Y1114728D01*
X663388Y1112222D01*
X662179Y1109303D01*
X661811Y1106505D01*
X660529D01*
X660161Y1109303D01*
X658952Y1112222D01*
X657029Y1114728D01*
X654522Y1116652D01*
X651779Y1117788D01*
Y1119952D01*
X654522Y1121088D01*
X657029Y1123011D01*
X658952Y1125518D01*
X660161Y1128437D01*
X660529Y1131236D01*
X661811D01*
X662179Y1128437D01*
D02*
G37*
G36*
X738379D02*
X739588Y1125518D01*
X741512Y1123011D01*
X744018Y1121088D01*
X745732Y1120378D01*
Y1117362D01*
X744018Y1116652D01*
X741512Y1114728D01*
X739588Y1112222D01*
X738379Y1109303D01*
X738010Y1106505D01*
X736730D01*
X736361Y1109303D01*
X735152Y1112222D01*
X733229Y1114728D01*
X730722Y1116652D01*
X727803Y1117861D01*
X725005Y1118230D01*
Y1119510D01*
X727803Y1119879D01*
X730722Y1121088D01*
X733229Y1123011D01*
X735152Y1125518D01*
X736361Y1128437D01*
X736730Y1131236D01*
X738010D01*
X738379Y1128437D01*
D02*
G37*
G36*
X763779D02*
X764988Y1125518D01*
X766911Y1123011D01*
X769418Y1121088D01*
X772337Y1119879D01*
X775135Y1119510D01*
Y1118230D01*
X772337Y1117861D01*
X769418Y1116652D01*
X766911Y1114728D01*
X764988Y1112222D01*
X763779Y1109303D01*
X763410Y1106505D01*
X762130D01*
X761761Y1109303D01*
X760552Y1112222D01*
X758628Y1114728D01*
X756122Y1116652D01*
X754908Y1117155D01*
Y1120585D01*
X756122Y1121088D01*
X758628Y1123011D01*
X760552Y1125518D01*
X761761Y1128437D01*
X762130Y1131236D01*
X763410D01*
X763779Y1128437D01*
D02*
G37*
G36*
X636779D02*
X637988Y1125518D01*
X639911Y1123011D01*
X642418Y1121088D01*
X645337Y1119879D01*
X645661Y1119836D01*
Y1117904D01*
X645337Y1117861D01*
X642418Y1116652D01*
X639911Y1114728D01*
X637988Y1112222D01*
X636779Y1109303D01*
X636410Y1106505D01*
X635130D01*
X634761Y1109303D01*
X633552Y1112222D01*
X631628Y1114728D01*
X629122Y1116652D01*
X626379Y1117788D01*
Y1119952D01*
X629122Y1121088D01*
X631628Y1123011D01*
X633552Y1125518D01*
X634761Y1128437D01*
X635130Y1131236D01*
X636410D01*
X636779Y1128437D01*
D02*
G37*
G36*
X611379D02*
X612588Y1125518D01*
X614511Y1123011D01*
X617018Y1121088D01*
X619937Y1119879D01*
X620261Y1119836D01*
Y1117904D01*
X619937Y1117861D01*
X617018Y1116652D01*
X614511Y1114728D01*
X612588Y1112222D01*
X611379Y1109303D01*
X611011Y1106505D01*
X609729D01*
X609361Y1109303D01*
X608152Y1112222D01*
X606228Y1114728D01*
X603722Y1116652D01*
X600979Y1117788D01*
Y1119952D01*
X603722Y1121088D01*
X606228Y1123011D01*
X608152Y1125518D01*
X609361Y1128437D01*
X609729Y1131236D01*
X611011D01*
X611379Y1128437D01*
D02*
G37*
G36*
X585979D02*
X587188Y1125518D01*
X589112Y1123011D01*
X591618Y1121088D01*
X594537Y1119879D01*
X594861Y1119836D01*
Y1117904D01*
X594537Y1117861D01*
X591618Y1116652D01*
X589112Y1114728D01*
X587188Y1112222D01*
X585979Y1109303D01*
X585611Y1106504D01*
X584329D01*
X583961Y1109303D01*
X582752Y1112222D01*
X580829Y1114728D01*
X578322Y1116652D01*
X575579Y1117788D01*
Y1119952D01*
X578322Y1121088D01*
X580829Y1123011D01*
X582752Y1125518D01*
X583961Y1128437D01*
X584329Y1131235D01*
X585611D01*
X585979Y1128437D01*
D02*
G37*
G36*
X687579D02*
X688788Y1125518D01*
X690712Y1123011D01*
X693218Y1121088D01*
X696137Y1119879D01*
X696211Y1119869D01*
Y1117871D01*
X696137Y1117861D01*
X693218Y1116652D01*
X690712Y1114728D01*
X688788Y1112222D01*
X687579Y1109303D01*
X687210Y1106504D01*
X685929D01*
X685561Y1109303D01*
X684352Y1112222D01*
X682429Y1114728D01*
X679922Y1116652D01*
X677179Y1117788D01*
Y1119952D01*
X679922Y1121088D01*
X682429Y1123011D01*
X684352Y1125518D01*
X685561Y1128437D01*
X685929Y1131235D01*
X687210D01*
X687579Y1128437D01*
D02*
G37*
G36*
X687579Y1103037D02*
X688788Y1100118D01*
X690712Y1097611D01*
X693218Y1095688D01*
X696137Y1094479D01*
X696211Y1094469D01*
Y1066370D01*
X694270D01*
X688770Y1060870D01*
Y1049870D01*
X694270Y1044370D01*
X705270D01*
X705857Y1044957D01*
X711722Y1039092D01*
X711236Y1037919D01*
X696147D01*
X684056Y1050010D01*
X685087Y1052498D01*
X685465Y1055370D01*
X685087Y1058242D01*
X683978Y1060918D01*
X682215Y1063215D01*
X679917Y1064978D01*
X677242Y1066087D01*
X677179Y1066095D01*
Y1094552D01*
X679922Y1095688D01*
X682429Y1097611D01*
X684352Y1100118D01*
X685561Y1103037D01*
X685929Y1105836D01*
X687210D01*
X687579Y1103037D01*
D02*
G37*
G36*
X662179D02*
X663388Y1100118D01*
X665312Y1097611D01*
X667818Y1095688D01*
X670737Y1094479D01*
X671061Y1094436D01*
Y1065906D01*
X668822Y1064978D01*
X666525Y1063215D01*
X664762Y1060918D01*
X663653Y1058242D01*
X663275Y1055370D01*
X663653Y1052498D01*
X664762Y1049822D01*
X666525Y1047525D01*
X668822Y1045761D01*
X671498Y1044653D01*
X674370Y1044275D01*
X677242Y1044653D01*
X679730Y1045684D01*
X690322Y1035092D01*
X689836Y1033919D01*
X674747D01*
X658656Y1050010D01*
X659687Y1052498D01*
X660065Y1055370D01*
X659687Y1058242D01*
X658578Y1060918D01*
X656815Y1063215D01*
X654517Y1064978D01*
X651842Y1066087D01*
X651779Y1066095D01*
Y1094552D01*
X654522Y1095688D01*
X657029Y1097611D01*
X658952Y1100118D01*
X660161Y1103037D01*
X660529Y1105835D01*
X661811D01*
X662179Y1103037D01*
D02*
G37*
G36*
X636779Y1103037D02*
X637988Y1100118D01*
X639911Y1097611D01*
X642418Y1095688D01*
X645337Y1094479D01*
X645661Y1094436D01*
Y1065906D01*
X643422Y1064978D01*
X641125Y1063215D01*
X639361Y1060918D01*
X638253Y1058242D01*
X637875Y1055370D01*
X638253Y1052498D01*
X639361Y1049822D01*
X641125Y1047525D01*
X643422Y1045761D01*
X646098Y1044653D01*
X648970Y1044275D01*
X651842Y1044653D01*
X654330Y1045684D01*
X668922Y1031092D01*
X668436Y1029919D01*
X653347D01*
X633256Y1050010D01*
X634287Y1052498D01*
X634665Y1055370D01*
X634287Y1058242D01*
X633178Y1060918D01*
X631415Y1063215D01*
X629117Y1064978D01*
X626441Y1066087D01*
X626379Y1066095D01*
Y1094552D01*
X629122Y1095688D01*
X631628Y1097611D01*
X633552Y1100118D01*
X634761Y1103037D01*
X635130Y1105835D01*
X636410D01*
X636779Y1103037D01*
D02*
G37*
G36*
X611379D02*
X612588Y1100118D01*
X614511Y1097611D01*
X617018Y1095688D01*
X619937Y1094479D01*
X620261Y1094436D01*
Y1065906D01*
X618022Y1064978D01*
X615725Y1063215D01*
X613961Y1060918D01*
X612853Y1058242D01*
X612475Y1055370D01*
X612853Y1052498D01*
X613961Y1049822D01*
X615725Y1047525D01*
X618022Y1045761D01*
X620698Y1044653D01*
X623570Y1044275D01*
X626441Y1044653D01*
X628930Y1045684D01*
X647522Y1027092D01*
X647036Y1025919D01*
X631947D01*
X607856Y1050010D01*
X608887Y1052498D01*
X609265Y1055370D01*
X608887Y1058242D01*
X607778Y1060918D01*
X606015Y1063215D01*
X603717Y1064978D01*
X601041Y1066087D01*
X600979Y1066095D01*
Y1094552D01*
X603722Y1095688D01*
X606228Y1097611D01*
X608152Y1100118D01*
X609361Y1103037D01*
X609729Y1105835D01*
X611011D01*
X611379Y1103037D01*
D02*
G37*
G36*
X585979D02*
X587188Y1100118D01*
X589112Y1097611D01*
X591618Y1095688D01*
X594537Y1094479D01*
X594861Y1094436D01*
Y1065906D01*
X592622Y1064978D01*
X590325Y1063215D01*
X588561Y1060918D01*
X587453Y1058242D01*
X587075Y1055370D01*
X587453Y1052498D01*
X588561Y1049822D01*
X590325Y1047525D01*
X592622Y1045761D01*
X595298Y1044653D01*
X598170Y1044275D01*
X601041Y1044653D01*
X603530Y1045684D01*
X626122Y1023092D01*
X625636Y1021919D01*
X610547D01*
X582456Y1050010D01*
X583487Y1052498D01*
X583865Y1055370D01*
X583487Y1058242D01*
X582378Y1060918D01*
X580615Y1063215D01*
X578317Y1064978D01*
X575642Y1066087D01*
X575579Y1066095D01*
Y1094552D01*
X578322Y1095688D01*
X580829Y1097611D01*
X582752Y1100118D01*
X583961Y1103037D01*
X584329Y1105836D01*
X585611D01*
X585979Y1103037D01*
D02*
G37*
G36*
X1331135Y1160568D02*
X1334712Y1159316D01*
X1337921Y1157300D01*
X1340600Y1154621D01*
X1342616Y1151412D01*
X1343868Y1147835D01*
X1344311Y1143898D01*
X1344311Y755570D01*
X1343041Y754420D01*
X1323020D01*
Y742420D01*
Y730420D01*
X1343041D01*
X1344020Y730420D01*
X1344311Y729271D01*
Y657569D01*
X1343041Y656420D01*
X1323020D01*
Y644420D01*
X1322020D01*
D01*
X1323020D01*
Y632420D01*
X1343041D01*
X1344020Y632420D01*
X1344311Y631271D01*
X1344311Y484242D01*
X1343868Y480305D01*
X1342616Y476728D01*
X1340600Y473519D01*
X1337921Y470840D01*
X1334712Y468824D01*
X1331136Y467572D01*
X1327198Y467129D01*
X1105429D01*
X1105429Y624070D01*
X1105397Y624229D01*
X1105412Y624390D01*
X1105303Y625429D01*
X1105208Y625736D01*
X1105170Y626055D01*
X1104847Y627049D01*
X1104690Y627329D01*
X1104587Y627633D01*
X1104064Y628538D01*
X1103852Y628780D01*
X1103688Y629056D01*
X1102989Y629832D01*
X1102731Y630025D01*
X1102514Y630260D01*
X1101668Y630875D01*
X1101376Y631009D01*
X1101114Y631194D01*
X1100159Y631620D01*
X1099846Y631690D01*
X1099551Y631817D01*
X1098529Y632035D01*
X1098207Y632039D01*
X1097893Y632101D01*
X1096847D01*
X1096533Y632039D01*
X1096211Y632035D01*
X1095189Y631817D01*
X1094894Y631690D01*
X1094581Y631620D01*
X1093626Y631194D01*
X1093364Y631009D01*
X1093072Y630875D01*
X1092226Y630260D01*
X1092009Y630025D01*
X1091751Y629832D01*
X1091052Y629056D01*
X1090888Y628780D01*
X1090676Y628538D01*
X1090153Y627633D01*
X1090050Y627329D01*
X1089893Y627049D01*
X1089570Y626055D01*
X1089532Y625736D01*
X1089437Y625429D01*
X1089328Y624390D01*
X1089343Y624229D01*
X1089311Y624070D01*
Y602040D01*
X1088697Y601693D01*
X1088041Y601575D01*
X1058429Y631187D01*
Y733873D01*
X1075687Y751131D01*
X1100207D01*
X1100207Y751131D01*
X1101377Y751364D01*
X1102370Y752027D01*
X1110828Y760485D01*
X1112001Y759999D01*
Y740410D01*
X1112001Y740410D01*
X1112234Y739240D01*
X1112897Y738247D01*
X1117710Y733434D01*
X1117582Y732790D01*
X1117970Y730839D01*
X1119075Y729185D01*
X1120729Y728080D01*
X1122680Y727692D01*
X1124631Y728080D01*
X1126131Y729083D01*
X1126789Y728907D01*
X1127401Y728570D01*
Y700880D01*
X1127401Y700880D01*
X1127634Y699709D01*
X1128297Y698717D01*
X1142107Y684907D01*
X1143100Y684244D01*
X1144270Y684011D01*
X1144270Y684011D01*
X1182370D01*
X1182370Y684011D01*
X1183540Y684244D01*
X1184533Y684907D01*
X1198503Y698877D01*
X1198503Y698877D01*
X1199166Y699869D01*
X1199399Y701040D01*
Y708590D01*
X1201981D01*
Y698653D01*
X1201981Y698653D01*
X1202214Y697483D01*
X1202877Y696490D01*
X1214110Y685257D01*
X1215103Y684594D01*
X1216273Y684361D01*
X1216273Y684361D01*
X1255753D01*
X1256857Y683257D01*
X1256857Y683257D01*
X1257850Y682594D01*
X1258020Y682560D01*
Y681045D01*
X1236573D01*
X1235144Y682001D01*
X1232900Y682447D01*
X1136650D01*
X1134407Y682001D01*
X1132505Y680730D01*
X1131234Y678828D01*
X1130787Y676584D01*
Y674370D01*
X1131234Y672126D01*
X1132505Y670225D01*
X1134407Y668954D01*
X1136650Y668507D01*
X1138894Y668954D01*
X1140796Y670225D01*
X1141128Y670722D01*
X1164732D01*
X1165790Y670210D01*
X1165790Y669452D01*
Y658210D01*
X1167721D01*
Y651160D01*
X1167993Y649794D01*
X1168767Y648637D01*
X1172881Y644522D01*
Y642540D01*
X1168950D01*
Y641109D01*
X1146810D01*
X1145444Y640837D01*
X1144287Y640063D01*
X1125257Y621033D01*
X1124483Y619876D01*
X1124211Y618510D01*
Y569492D01*
X1121217D01*
X1119584Y569167D01*
X1118198Y568242D01*
X1117273Y566856D01*
X1116948Y565223D01*
Y534598D01*
X1117273Y532964D01*
X1118198Y531578D01*
X1119584Y530653D01*
X1121217Y530328D01*
X1125061D01*
Y508920D01*
X1122880D01*
Y496920D01*
X1122880D01*
Y496220D01*
X1122880D01*
Y484220D01*
X1134380D01*
Y496220D01*
X1134380D01*
Y496920D01*
X1134380D01*
Y508920D01*
X1132199D01*
Y530328D01*
X1134342D01*
X1135976Y530653D01*
X1137362Y531578D01*
X1138287Y532964D01*
X1138612Y534598D01*
Y565223D01*
X1138287Y566856D01*
X1137362Y568242D01*
X1135976Y569167D01*
X1134342Y569492D01*
X1131349D01*
Y617032D01*
X1148288Y633971D01*
X1168950D01*
Y632540D01*
X1183950D01*
Y642540D01*
X1180019D01*
Y646000D01*
X1179747Y647366D01*
X1178973Y648523D01*
X1174859Y652638D01*
Y658210D01*
X1176520D01*
X1176790Y658210D01*
X1177790D01*
X1178060Y658210D01*
X1188790D01*
Y661151D01*
X1191190D01*
Y658210D01*
X1195841D01*
Y652540D01*
X1191400D01*
Y642540D01*
X1195127D01*
X1195512Y641270D01*
X1195295Y641125D01*
X1194190Y639471D01*
X1193802Y637520D01*
X1194190Y635569D01*
X1195295Y633915D01*
X1195841Y633550D01*
Y632040D01*
X1191400D01*
Y622040D01*
X1206400D01*
Y632040D01*
X1201959D01*
Y633550D01*
X1202505Y633915D01*
X1203610Y635569D01*
X1203998Y637520D01*
X1203610Y639471D01*
X1202505Y641125D01*
X1202288Y641270D01*
X1202673Y642540D01*
X1206400D01*
Y652540D01*
X1201959D01*
Y658116D01*
X1203190Y658210D01*
X1203460Y658210D01*
X1214190D01*
Y661151D01*
X1286510D01*
X1286510Y661151D01*
X1287681Y661384D01*
X1288673Y662047D01*
X1289943Y663317D01*
X1289943Y663317D01*
X1290606Y664309D01*
X1290839Y665480D01*
Y692150D01*
X1290839Y692150D01*
X1290606Y693320D01*
X1289943Y694313D01*
X1288673Y695583D01*
X1287681Y696246D01*
X1286510Y696479D01*
X1286510Y696479D01*
X1284020D01*
Y700420D01*
X1271020D01*
X1258020D01*
Y696280D01*
X1257850Y696246D01*
X1256857Y695583D01*
X1255753Y694479D01*
X1219197D01*
X1212099Y701577D01*
Y751840D01*
X1211866Y753010D01*
X1211203Y754003D01*
X1208859Y756347D01*
Y760244D01*
X1208974Y760362D01*
X1209934Y761053D01*
X1211300Y760781D01*
X1212666Y761053D01*
X1213800Y761811D01*
X1214934Y761053D01*
X1215300Y760980D01*
Y766600D01*
X1217300D01*
Y760685D01*
X1218241Y760026D01*
Y744086D01*
X1218135Y744015D01*
X1217030Y742361D01*
X1216642Y740410D01*
X1217030Y738459D01*
X1218135Y736805D01*
X1218241Y736734D01*
Y733860D01*
X1215740D01*
Y722360D01*
X1227740D01*
Y733860D01*
X1224359D01*
Y736146D01*
X1225345Y736805D01*
X1226450Y738459D01*
X1226838Y740410D01*
X1226450Y742361D01*
X1225345Y744015D01*
X1224359Y744674D01*
Y762628D01*
X1224597Y762984D01*
X1224869Y764350D01*
Y767799D01*
X1225027Y768873D01*
X1226101Y769031D01*
X1229550D01*
X1230916Y769303D01*
X1232073Y770077D01*
X1232847Y771234D01*
X1233119Y772600D01*
X1232985Y773271D01*
X1233874Y774541D01*
X1236580D01*
X1237185Y773635D01*
X1238839Y772530D01*
X1240790Y772142D01*
X1242741Y772530D01*
X1244395Y773635D01*
X1245000Y774541D01*
X1254690D01*
Y771240D01*
X1265420D01*
X1265690Y771240D01*
X1266690D01*
X1266960Y771240D01*
X1271190D01*
Y777240D01*
Y783240D01*
X1266960D01*
X1266690Y783240D01*
X1265690D01*
X1265420Y783240D01*
X1263249D01*
Y785210D01*
X1265420D01*
X1265690Y785210D01*
X1266690D01*
X1266960Y785210D01*
X1277690D01*
Y785436D01*
X1278960Y786351D01*
X1280160Y786112D01*
X1282111Y786500D01*
X1283765Y787605D01*
X1284870Y789259D01*
X1285258Y791210D01*
X1284870Y793161D01*
X1283765Y794815D01*
X1282111Y795920D01*
X1280160Y796308D01*
X1278960Y796069D01*
X1277690Y796984D01*
Y797210D01*
X1266960D01*
X1266690Y797210D01*
X1265690D01*
X1265420Y797210D01*
X1254690D01*
Y785210D01*
X1257131D01*
Y783240D01*
X1254690D01*
Y780659D01*
X1244519D01*
X1244395Y780845D01*
X1242741Y781950D01*
X1240790Y782338D01*
X1238839Y781950D01*
X1237185Y780845D01*
X1237061Y780659D01*
X1233874D01*
X1232985Y781929D01*
X1233119Y782600D01*
X1232847Y783966D01*
X1232089Y785100D01*
X1232847Y786234D01*
X1233119Y787600D01*
X1232847Y788966D01*
X1232089Y790100D01*
X1232847Y791234D01*
X1233119Y792600D01*
X1232847Y793966D01*
X1232089Y795100D01*
X1232847Y796234D01*
X1233119Y797600D01*
X1232847Y798966D01*
X1232089Y800100D01*
X1232847Y801234D01*
X1233119Y802600D01*
X1232985Y803271D01*
X1233874Y804541D01*
X1254690D01*
Y801720D01*
X1265690D01*
Y801720D01*
X1266690D01*
Y801720D01*
X1271190D01*
Y807720D01*
X1272190D01*
Y808720D01*
X1277690D01*
Y812281D01*
X1288958D01*
X1288958Y812281D01*
X1289801Y812449D01*
X1291071Y811732D01*
Y772157D01*
X1285243Y766329D01*
X1247833D01*
X1247833Y766329D01*
X1246663Y766096D01*
X1245670Y765433D01*
X1245670Y765433D01*
X1234627Y754390D01*
X1233964Y753397D01*
X1233731Y752227D01*
X1233731Y752227D01*
Y712353D01*
X1232459Y712100D01*
X1230805Y710995D01*
X1229700Y709341D01*
X1229312Y707390D01*
X1229700Y705439D01*
X1230805Y703785D01*
X1232459Y702680D01*
X1234410Y702292D01*
X1236361Y702680D01*
X1237458Y703413D01*
X1238805Y703684D01*
X1240459Y702579D01*
X1242410Y702191D01*
X1244361Y702579D01*
X1246015Y703684D01*
X1247120Y705338D01*
X1247508Y707289D01*
X1247120Y709240D01*
X1246015Y710893D01*
X1244361Y711999D01*
X1243849Y712101D01*
Y749303D01*
X1250757Y756211D01*
X1288167D01*
X1288167Y756211D01*
X1289337Y756444D01*
X1290330Y757107D01*
X1300293Y767070D01*
X1300293Y767070D01*
X1300956Y768063D01*
X1301189Y769233D01*
Y885713D01*
X1301496Y886173D01*
X1301729Y887343D01*
Y916403D01*
X1316896Y931570D01*
X1331570D01*
Y950570D01*
X1312570D01*
Y935896D01*
X1296670Y919996D01*
X1279852Y936814D01*
X1280219Y937363D01*
X1280956Y941070D01*
X1280219Y944777D01*
X1278119Y947919D01*
X1274977Y950019D01*
X1271270Y950756D01*
X1267563Y950019D01*
X1264869Y948219D01*
X1264260Y948458D01*
X1263635Y948855D01*
X1263280Y950641D01*
X1262175Y952295D01*
X1260521Y953400D01*
X1258570Y953788D01*
X1256619Y953400D01*
X1254965Y952295D01*
X1253860Y950641D01*
X1253505Y948855D01*
X1252880Y948458D01*
X1252271Y948219D01*
X1249577Y950019D01*
X1245870Y950756D01*
X1242163Y950019D01*
X1239021Y947919D01*
X1236921Y944777D01*
X1236184Y941070D01*
X1236921Y937363D01*
X1239021Y934221D01*
X1242163Y932121D01*
X1245870Y931384D01*
X1249577Y932121D01*
X1252719Y934221D01*
X1254241Y936499D01*
X1255511Y936114D01*
Y935990D01*
X1255511Y935990D01*
X1255744Y934819D01*
X1256407Y933827D01*
X1287071Y903163D01*
Y818399D01*
X1262380D01*
X1261209Y818166D01*
X1260217Y817503D01*
X1260217Y817503D01*
X1257677Y814963D01*
X1257014Y813970D01*
X1256964Y813720D01*
X1254690D01*
Y810659D01*
X1233874D01*
X1232985Y811929D01*
X1233119Y812600D01*
X1232847Y813966D01*
X1232089Y815100D01*
X1232847Y816234D01*
X1233119Y817600D01*
X1232847Y818966D01*
X1232089Y820100D01*
X1232847Y821234D01*
X1232920Y821600D01*
X1227300D01*
Y823600D01*
X1233215D01*
X1233874Y824541D01*
X1234055D01*
X1235710Y824212D01*
X1237365Y824541D01*
X1253690D01*
Y822040D01*
X1265190D01*
Y834040D01*
X1265190D01*
Y834740D01*
X1265190D01*
Y846740D01*
X1253690D01*
Y834740D01*
X1253690D01*
Y834040D01*
X1253690D01*
Y830659D01*
X1240540D01*
X1240420Y831261D01*
X1239315Y832915D01*
X1237661Y834020D01*
X1235710Y834408D01*
X1233759Y834020D01*
X1232105Y832915D01*
X1231000Y831261D01*
X1229682Y831142D01*
X1229550Y831169D01*
X1226101D01*
X1225027Y831327D01*
X1224869Y832401D01*
Y835850D01*
X1224597Y837216D01*
X1224359Y837572D01*
Y856180D01*
X1227740D01*
Y867680D01*
X1222306D01*
X1221740Y867793D01*
X1216173D01*
Y869680D01*
X1220740D01*
Y875430D01*
Y881180D01*
X1216173D01*
Y884671D01*
X1223010D01*
X1224181Y884904D01*
X1225173Y885567D01*
X1225836Y886560D01*
X1226069Y887730D01*
Y972301D01*
X1289970D01*
X1291140Y972534D01*
X1292133Y973197D01*
X1292796Y974190D01*
X1293029Y975360D01*
Y1004920D01*
X1295470D01*
Y1016920D01*
X1284470D01*
Y1016920D01*
X1283470D01*
Y1016920D01*
X1281029D01*
Y1020160D01*
X1283200D01*
X1283470Y1020160D01*
X1284470D01*
X1284740Y1020160D01*
X1288970D01*
Y1026160D01*
Y1032160D01*
X1284740D01*
X1284470Y1032160D01*
X1283470D01*
X1283200Y1032160D01*
X1272470D01*
Y1020160D01*
X1274911D01*
Y1016920D01*
X1272470D01*
Y1013979D01*
X1263875D01*
Y1020098D01*
X1263657Y1021195D01*
X1263035Y1022125D01*
X1262105Y1022747D01*
X1261008Y1022965D01*
X1256133D01*
X1255035Y1022747D01*
X1254105Y1022125D01*
X1253483Y1021195D01*
X1253265Y1020098D01*
Y1008223D01*
X1253483Y1007125D01*
X1254105Y1006195D01*
X1255035Y1005573D01*
X1255511Y1005479D01*
Y994407D01*
X1252223Y991119D01*
X1247615D01*
X1247144Y992389D01*
X1248040Y993729D01*
X1248428Y995680D01*
X1248040Y997631D01*
X1246935Y999285D01*
X1246389Y999650D01*
Y1012190D01*
X1246389Y1012190D01*
X1246156Y1013361D01*
X1245493Y1014353D01*
X1245493Y1014353D01*
X1200034Y1059812D01*
Y1073137D01*
X1201304Y1073665D01*
X1204063Y1071821D01*
X1206770Y1071283D01*
Y1080770D01*
Y1090257D01*
X1204063Y1089719D01*
X1200921Y1087619D01*
X1200093Y1086380D01*
X1198490Y1086267D01*
X1162420Y1122337D01*
Y1123786D01*
X1163819Y1124721D01*
X1165919Y1127863D01*
X1166656Y1131570D01*
X1165919Y1135277D01*
X1163819Y1138419D01*
X1160677Y1140519D01*
X1156970Y1141256D01*
X1153263Y1140519D01*
X1150121Y1138419D01*
X1148021Y1135277D01*
X1147284Y1131570D01*
X1148021Y1127863D01*
X1150121Y1124721D01*
X1153263Y1122621D01*
X1155675Y1122142D01*
X1156302Y1121070D01*
X1156535Y1119900D01*
X1157198Y1118907D01*
X1184847Y1091258D01*
X1184221Y1090088D01*
X1182370Y1090456D01*
X1178663Y1089719D01*
X1175521Y1087619D01*
X1173999Y1085341D01*
X1172729Y1085726D01*
Y1090930D01*
X1172496Y1092101D01*
X1171833Y1093093D01*
X1152783Y1112143D01*
X1151790Y1112806D01*
X1150620Y1113039D01*
X1150620Y1113039D01*
X1140457D01*
X1134629Y1118867D01*
Y1122070D01*
X1141070D01*
Y1141070D01*
X1122070D01*
Y1122070D01*
X1128511D01*
Y1117600D01*
X1128511Y1117600D01*
X1128744Y1116430D01*
X1129407Y1115437D01*
X1137027Y1107817D01*
X1138019Y1107154D01*
X1139190Y1106921D01*
X1149353D01*
X1166611Y1089663D01*
Y1085726D01*
X1165341Y1085341D01*
X1163819Y1087619D01*
X1160677Y1089719D01*
X1156970Y1090456D01*
X1153263Y1089719D01*
X1150121Y1087619D01*
X1148021Y1084477D01*
X1147284Y1080770D01*
X1148021Y1077063D01*
X1150121Y1073921D01*
X1153263Y1071821D01*
X1156970Y1071084D01*
X1160677Y1071821D01*
X1163819Y1073921D01*
X1165341Y1076199D01*
X1166611Y1075814D01*
Y1072040D01*
X1166065Y1071675D01*
X1164960Y1070021D01*
X1164572Y1068070D01*
X1164960Y1066119D01*
X1166065Y1064465D01*
X1167381Y1063586D01*
X1167507Y1063397D01*
X1170021Y1060883D01*
Y1048670D01*
X1167330D01*
Y1036670D01*
X1178830D01*
Y1048670D01*
X1176139D01*
Y1062150D01*
X1176139Y1062150D01*
X1175906Y1063321D01*
X1175243Y1064313D01*
X1174002Y1065554D01*
X1174380Y1066119D01*
X1174768Y1068070D01*
X1174380Y1070021D01*
X1173275Y1071675D01*
X1172729Y1072040D01*
Y1075814D01*
X1173999Y1076199D01*
X1175521Y1073921D01*
X1178663Y1071821D01*
X1182370Y1071084D01*
X1186077Y1071821D01*
X1189219Y1073921D01*
X1191319Y1077063D01*
X1192056Y1080770D01*
X1191688Y1082622D01*
X1192858Y1083247D01*
X1193916Y1082189D01*
Y1058545D01*
X1193916Y1058545D01*
X1194149Y1057374D01*
X1194812Y1056382D01*
X1240271Y1010923D01*
Y999650D01*
X1239725Y999285D01*
X1238620Y997631D01*
X1238232Y995680D01*
X1238620Y993729D01*
X1239516Y992389D01*
X1239045Y991119D01*
X1226661D01*
X1226276Y992389D01*
X1226615Y992615D01*
X1227720Y994269D01*
X1228108Y996220D01*
X1227720Y998171D01*
X1226615Y999825D01*
Y1000615D01*
X1227720Y1002269D01*
X1228108Y1004220D01*
X1227720Y1006171D01*
X1226615Y1007825D01*
X1224961Y1008930D01*
X1223010Y1009318D01*
X1221059Y1008930D01*
X1219405Y1007825D01*
X1218300Y1006171D01*
X1218123Y1005279D01*
X1203573D01*
X1202403Y1005046D01*
X1201410Y1004383D01*
X1196146Y999119D01*
X989441D01*
X989441Y999119D01*
X988270Y998886D01*
X987278Y998223D01*
X912935Y923880D01*
X911761Y924366D01*
Y1006126D01*
X911761Y1006126D01*
X911528Y1007297D01*
X910865Y1008289D01*
X900042Y1019113D01*
X899050Y1019776D01*
X897879Y1020009D01*
X897879Y1020009D01*
X752821D01*
X731807Y1041023D01*
X730815Y1041686D01*
X729644Y1041919D01*
X729644Y1041919D01*
X717547D01*
X710183Y1049283D01*
X710770Y1049870D01*
Y1060870D01*
X705270Y1066370D01*
X702329D01*
Y1094469D01*
X702403Y1094479D01*
X705322Y1095688D01*
X707829Y1097611D01*
X709752Y1100118D01*
X710961Y1103037D01*
X711329Y1105835D01*
X712610D01*
X712979Y1103037D01*
X714188Y1100118D01*
X716112Y1097611D01*
X718618Y1095688D01*
X721537Y1094479D01*
X724670Y1094066D01*
X727803Y1094479D01*
X730722Y1095688D01*
X733229Y1097611D01*
X735152Y1100118D01*
X736361Y1103037D01*
X736730Y1105835D01*
X738010D01*
X738379Y1103037D01*
X739588Y1100118D01*
X741512Y1097611D01*
X744018Y1095688D01*
X745732Y1094978D01*
Y1063563D01*
X743721Y1062219D01*
X741621Y1059077D01*
X740884Y1055370D01*
X741621Y1051663D01*
X743721Y1048521D01*
X746863Y1046421D01*
X750570Y1045684D01*
X754277Y1046421D01*
X757419Y1048521D01*
X759519Y1051663D01*
X760256Y1055370D01*
X759519Y1059077D01*
X757419Y1062219D01*
X754908Y1063897D01*
Y1095185D01*
X756122Y1095688D01*
X758628Y1097611D01*
X760552Y1100118D01*
X761761Y1103037D01*
X762130Y1105835D01*
X763410D01*
X763779Y1103037D01*
X764988Y1100118D01*
X766911Y1097611D01*
X769418Y1095688D01*
X772337Y1094479D01*
X774470Y1094198D01*
Y1106170D01*
X776470D01*
Y1094198D01*
X778603Y1094479D01*
X781522Y1095688D01*
X784028Y1097611D01*
X785952Y1100118D01*
X787161Y1103037D01*
X787530Y1105835D01*
X788811D01*
X789179Y1103037D01*
X790388Y1100118D01*
X792311Y1097611D01*
X794818Y1095688D01*
X797737Y1094479D01*
X799870Y1094198D01*
Y1106170D01*
X800870D01*
Y1107170D01*
X812842D01*
X812561Y1109303D01*
X811352Y1112222D01*
X809428Y1114728D01*
X806922Y1116652D01*
X804003Y1117861D01*
X801205Y1118230D01*
Y1119510D01*
X804003Y1119879D01*
X806922Y1121088D01*
X809428Y1123011D01*
X811352Y1125518D01*
X812561Y1128437D01*
X812842Y1130570D01*
X800870D01*
Y1131570D01*
X799870D01*
Y1143542D01*
X797737Y1143261D01*
X794818Y1142052D01*
X792311Y1140128D01*
X790388Y1137622D01*
X789179Y1134703D01*
X788811Y1131904D01*
X787530D01*
X787161Y1134703D01*
X785952Y1137622D01*
X784028Y1140128D01*
X781522Y1142052D01*
X778603Y1143261D01*
X776470Y1143542D01*
Y1131570D01*
X774470D01*
Y1143542D01*
X772337Y1143261D01*
X769418Y1142052D01*
X766911Y1140128D01*
X764988Y1137622D01*
X763779Y1134703D01*
X763410Y1131905D01*
X762130D01*
X761761Y1134703D01*
X760552Y1137622D01*
X758628Y1140128D01*
X756122Y1142052D01*
X753203Y1143261D01*
X750070Y1143674D01*
X746937Y1143261D01*
X744018Y1142052D01*
X741512Y1140128D01*
X739588Y1137622D01*
X738379Y1134703D01*
X738010Y1131905D01*
X736730D01*
X736361Y1134703D01*
X735152Y1137622D01*
X733229Y1140128D01*
X730722Y1142052D01*
X727803Y1143261D01*
X724670Y1143674D01*
X721537Y1143261D01*
X718618Y1142052D01*
X716112Y1140128D01*
X714188Y1137622D01*
X712979Y1134703D01*
X712610Y1131904D01*
X711329D01*
X710961Y1134703D01*
X709752Y1137622D01*
X707829Y1140128D01*
X705322Y1142052D01*
X702403Y1143261D01*
X699270Y1143674D01*
X696137Y1143261D01*
X693218Y1142052D01*
X690712Y1140128D01*
X688788Y1137622D01*
X687579Y1134703D01*
X687210Y1131905D01*
X685929D01*
X685561Y1134703D01*
X684352Y1137622D01*
X682429Y1140128D01*
X679922Y1142052D01*
X677003Y1143261D01*
X673870Y1143674D01*
X670737Y1143261D01*
X667818Y1142052D01*
X665312Y1140128D01*
X663388Y1137622D01*
X662179Y1134703D01*
X661811Y1131905D01*
X660529D01*
X660161Y1134703D01*
X658952Y1137622D01*
X657029Y1140128D01*
X654522Y1142052D01*
X651603Y1143261D01*
X648470Y1143674D01*
X645337Y1143261D01*
X642418Y1142052D01*
X639911Y1140128D01*
X637988Y1137622D01*
X636779Y1134703D01*
X636410Y1131905D01*
X635130D01*
X634761Y1134703D01*
X633552Y1137622D01*
X631628Y1140128D01*
X629122Y1142052D01*
X626203Y1143261D01*
X623070Y1143674D01*
X619937Y1143261D01*
X617018Y1142052D01*
X614511Y1140128D01*
X612588Y1137622D01*
X611379Y1134703D01*
X611011Y1131905D01*
X609729D01*
X609361Y1134703D01*
X608152Y1137622D01*
X606228Y1140128D01*
X603722Y1142052D01*
X600803Y1143261D01*
X597670Y1143674D01*
X594537Y1143261D01*
X591618Y1142052D01*
X589112Y1140128D01*
X587188Y1137622D01*
X585979Y1134703D01*
X585611Y1131905D01*
X584329D01*
X583961Y1134703D01*
X582752Y1137622D01*
X580829Y1140128D01*
X578322Y1142052D01*
X575403Y1143261D01*
X572270Y1143674D01*
X569137Y1143261D01*
X566218Y1142052D01*
X563712Y1140128D01*
X561788Y1137622D01*
X560579Y1134703D01*
X560167Y1131570D01*
X560579Y1128437D01*
X561788Y1125518D01*
X563712Y1123011D01*
X566218Y1121088D01*
X569137Y1119879D01*
X569461Y1119836D01*
Y1117904D01*
X569137Y1117861D01*
X566218Y1116652D01*
X563712Y1114728D01*
X561788Y1112222D01*
X560579Y1109303D01*
X560166Y1106170D01*
X560579Y1103037D01*
X561788Y1100118D01*
X563712Y1097611D01*
X566218Y1095688D01*
X569137Y1094479D01*
X569461Y1094436D01*
Y1065906D01*
X567223Y1064978D01*
X564925Y1063215D01*
X563162Y1060918D01*
X562053Y1058242D01*
X561675Y1055370D01*
X562053Y1052498D01*
X563162Y1049822D01*
X564925Y1047525D01*
X567223Y1045761D01*
X569898Y1044653D01*
X572770Y1044275D01*
X575642Y1044653D01*
X578130Y1045684D01*
X607117Y1016697D01*
X607117Y1016697D01*
X608109Y1016034D01*
X609280Y1015801D01*
X609280Y1015801D01*
X720093D01*
X741107Y994787D01*
X741107Y994787D01*
X742100Y994124D01*
X743270Y993891D01*
X743270Y993891D01*
X883401D01*
Y934676D01*
X879347Y930622D01*
X878684Y929630D01*
X878656Y929488D01*
X877559Y929270D01*
X875905Y928165D01*
X874800Y926511D01*
X874412Y924560D01*
X874800Y922609D01*
X875905Y920955D01*
X877559Y919850D01*
X879510Y919462D01*
X881181Y919794D01*
X882451Y919101D01*
Y918519D01*
X882451Y918518D01*
X882684Y917348D01*
X883347Y916356D01*
X893644Y906059D01*
Y896692D01*
X892374Y896566D01*
X892206Y897411D01*
X891543Y898403D01*
X891543Y898403D01*
X889193Y900753D01*
X888201Y901416D01*
X887030Y901649D01*
X887030Y901649D01*
X833499D01*
X832805Y902919D01*
X833138Y904590D01*
X832750Y906541D01*
X831985Y907685D01*
X831748Y908590D01*
X831985Y909495D01*
X832750Y910639D01*
X833138Y912590D01*
X832750Y914541D01*
X831645Y916195D01*
X829991Y917300D01*
X828040Y917688D01*
X826089Y917300D01*
X824435Y916195D01*
X823330Y914541D01*
X823153Y913649D01*
X820417D01*
X820239Y913827D01*
Y948580D01*
X820006Y949751D01*
X819343Y950743D01*
X819343Y950743D01*
X781429Y988658D01*
X780436Y989321D01*
X779266Y989554D01*
X779266Y989554D01*
X741385D01*
X740214Y989321D01*
X739222Y988658D01*
X739222Y988658D01*
X735333Y984769D01*
X687200D01*
X687200Y984769D01*
X686030Y984536D01*
X685037Y983873D01*
X685037Y983873D01*
X681993Y980829D01*
X547589D01*
X547589Y980829D01*
X546418Y980596D01*
X545426Y979933D01*
X526699Y961206D01*
X525429Y961732D01*
Y1027803D01*
X544533Y1046907D01*
X544533Y1046907D01*
X545196Y1047899D01*
X545429Y1049070D01*
Y1143898D01*
X545872Y1147835D01*
X547124Y1151412D01*
X549140Y1154621D01*
X551819Y1157300D01*
X555028Y1159316D01*
X558604Y1160568D01*
X562542Y1161011D01*
X1089311D01*
Y1009070D01*
X1089343Y1008911D01*
X1089328Y1008750D01*
X1089437Y1007711D01*
X1089532Y1007404D01*
X1089570Y1007085D01*
X1089893Y1006091D01*
X1090050Y1005811D01*
X1090153Y1005507D01*
X1090676Y1004602D01*
X1090888Y1004360D01*
X1091052Y1004084D01*
X1091751Y1003308D01*
X1092008Y1003116D01*
X1092226Y1002880D01*
X1093072Y1002265D01*
X1093363Y1002131D01*
X1093626Y1001945D01*
X1094581Y1001520D01*
X1094894Y1001450D01*
X1095189Y1001323D01*
X1096211Y1001105D01*
X1096533Y1001101D01*
X1096847Y1001039D01*
X1097893D01*
X1098208Y1001101D01*
X1098529Y1001105D01*
X1099551Y1001323D01*
X1099846Y1001450D01*
X1100159Y1001520D01*
X1101114Y1001945D01*
X1101376Y1002131D01*
X1101668Y1002265D01*
X1102514Y1002880D01*
X1102731Y1003115D01*
X1102989Y1003307D01*
X1103688Y1004084D01*
X1103852Y1004360D01*
X1104064Y1004602D01*
X1104587Y1005507D01*
X1104690Y1005811D01*
X1104847Y1006091D01*
X1105170Y1007085D01*
X1105208Y1007404D01*
X1105303Y1007711D01*
X1105412Y1008751D01*
X1105397Y1008912D01*
X1105429Y1009070D01*
Y1161011D01*
X1327198Y1161011D01*
X1331135Y1160568D01*
D02*
G37*
G36*
X1272470Y1004920D02*
X1283470D01*
Y1004920D01*
X1284470D01*
Y1004920D01*
X1286911D01*
Y978419D01*
X1223010D01*
X1221840Y978186D01*
X1220847Y977523D01*
X1220184Y976531D01*
X1219951Y975360D01*
Y890789D01*
X1215182D01*
X1214455Y891876D01*
X1212553Y893146D01*
X1210310Y893593D01*
X1208066Y893146D01*
X1206164Y891876D01*
X1204894Y889974D01*
X1204475Y887870D01*
X1203814Y887468D01*
X1203296Y887253D01*
X1188407Y902142D01*
X1192527Y906261D01*
X1197783D01*
X1197950Y905418D01*
X1200160Y902110D01*
X1203468Y899900D01*
X1207370Y899124D01*
X1211272Y899900D01*
X1214580Y902110D01*
X1216790Y905418D01*
X1217566Y909320D01*
X1216790Y913222D01*
X1214580Y916530D01*
X1211272Y918740D01*
X1210429Y918907D01*
Y942690D01*
X1212650D01*
Y954690D01*
X1201150D01*
Y942690D01*
X1204311D01*
Y918907D01*
X1203468Y918740D01*
X1200160Y916530D01*
X1197950Y913222D01*
X1197783Y912379D01*
X1191260D01*
X1190089Y912146D01*
X1189097Y911483D01*
X1189097Y911483D01*
X1182910Y905296D01*
X1176723Y911483D01*
X1175731Y912146D01*
X1174560Y912379D01*
X1174560Y912379D01*
X1166957D01*
X1166790Y913222D01*
X1164580Y916530D01*
X1161272Y918740D01*
X1160429Y918907D01*
Y942690D01*
X1162320D01*
Y954690D01*
X1150820D01*
Y942690D01*
X1154311D01*
Y918907D01*
X1153468Y918740D01*
X1150160Y916530D01*
X1149814Y916011D01*
X1148599Y916380D01*
Y969013D01*
X1164587Y985001D01*
X1253490D01*
X1253490Y985001D01*
X1254660Y985234D01*
X1255653Y985897D01*
X1260733Y990977D01*
X1260733Y990977D01*
X1261396Y991970D01*
X1261629Y993140D01*
X1261629Y993140D01*
Y1005479D01*
X1262105Y1005573D01*
X1263035Y1006195D01*
X1263657Y1007125D01*
X1263803Y1007861D01*
X1272470D01*
Y1004920D01*
D02*
G37*
G36*
X756401Y946150D02*
X756401Y946150D01*
X756441Y945949D01*
Y919281D01*
X755268Y918795D01*
X753957Y920106D01*
X754085Y920750D01*
X753697Y922701D01*
X752592Y924355D01*
X750938Y925460D01*
X748987Y925848D01*
X747316Y925516D01*
X746046Y926209D01*
Y936030D01*
X748656Y938640D01*
X749300Y938512D01*
X751251Y938900D01*
X752905Y940005D01*
X754010Y941659D01*
X754398Y943610D01*
X754010Y945561D01*
X752905Y947215D01*
X751473Y948171D01*
X751602Y949227D01*
X751685Y949441D01*
X756401D01*
Y946150D01*
D02*
G37*
G36*
X1291611Y916403D02*
Y908934D01*
X1290438Y908448D01*
X1268183Y930703D01*
X1268808Y931874D01*
X1271270Y931384D01*
X1274977Y932121D01*
X1275526Y932488D01*
X1291611Y916403D01*
D02*
G37*
G36*
X682909Y949441D02*
X682741Y948598D01*
X682741Y948598D01*
Y896780D01*
X682195Y896415D01*
X681090Y894761D01*
X680702Y892810D01*
X681090Y890859D01*
X682195Y889205D01*
X683849Y888100D01*
X685800Y887712D01*
X687751Y888100D01*
X689405Y889205D01*
X690510Y890859D01*
X690898Y892810D01*
X690510Y894761D01*
X689405Y896415D01*
X688859Y896780D01*
Y946711D01*
X694990D01*
X694990Y946711D01*
X696161Y946944D01*
X697153Y947607D01*
X698987Y949441D01*
X721992D01*
X722980Y948760D01*
X722980Y948171D01*
Y944260D01*
X728980D01*
Y942260D01*
X722980D01*
Y938030D01*
X722980Y937760D01*
Y936760D01*
X722980Y936490D01*
Y925760D01*
X725921D01*
Y920932D01*
X724594Y919605D01*
X723932Y918613D01*
X723699Y917442D01*
X723699Y917442D01*
Y908347D01*
X723699Y908347D01*
X723932Y907177D01*
X724594Y906184D01*
X726441Y904338D01*
Y891243D01*
X725500Y890618D01*
Y884220D01*
X723500D01*
Y890335D01*
X723232Y890281D01*
X723022Y890141D01*
X722260Y889681D01*
X721155Y891335D01*
X719501Y892440D01*
X717550Y892828D01*
X715599Y892440D01*
X713945Y891335D01*
X713580Y890789D01*
X699770D01*
X699770Y890789D01*
X698599Y890556D01*
X697607Y889893D01*
X697607Y889893D01*
X695094Y887380D01*
X694431Y886387D01*
X694198Y885217D01*
X694198Y885217D01*
Y882529D01*
X686905D01*
X686905Y882529D01*
X685734Y882296D01*
X685600Y882206D01*
X684330Y882300D01*
X684330Y882300D01*
X684330Y882300D01*
X672830D01*
Y870300D01*
X684330D01*
Y873699D01*
X685329Y873898D01*
X686321Y874561D01*
X687535Y875775D01*
X688644Y875087D01*
X688322Y873470D01*
X688710Y871519D01*
X689815Y869865D01*
X691469Y868760D01*
X691666Y868721D01*
X692035Y867506D01*
X691257Y866728D01*
X690594Y865736D01*
X690361Y864565D01*
X690361Y864565D01*
Y862165D01*
X689689Y861158D01*
X688300Y860751D01*
X685828Y863223D01*
X684835Y863886D01*
X683665Y864119D01*
X683330Y865306D01*
Y867060D01*
X672600D01*
X672330Y867060D01*
X671330D01*
X671060Y867060D01*
X666830D01*
Y861060D01*
Y855060D01*
X671060D01*
X671330Y855060D01*
X672330D01*
X672600Y855060D01*
X683330D01*
Y855410D01*
X684503Y855896D01*
X689197Y851202D01*
X688711Y850029D01*
X683330D01*
Y853090D01*
X672600D01*
X672330Y853090D01*
X671330D01*
X671060Y853090D01*
X666830D01*
Y847090D01*
Y841090D01*
X671060D01*
X671330Y841090D01*
X672330D01*
X672600Y841090D01*
X674771D01*
Y839120D01*
X672600D01*
X672330Y839120D01*
X671330D01*
X671060Y839120D01*
X666830D01*
Y833120D01*
Y827120D01*
X671060D01*
X671330Y827120D01*
X672330D01*
X672600Y827120D01*
X683330D01*
Y837046D01*
X685028D01*
X686549Y836030D01*
X688500Y835642D01*
X690451Y836030D01*
X692105Y837135D01*
X692513Y837745D01*
X693361Y837914D01*
X694353Y838577D01*
X694687Y838911D01*
X710227D01*
X711070Y837641D01*
X710936Y836970D01*
X711189Y835702D01*
X711907Y834627D01*
Y834313D01*
X711189Y833238D01*
X710936Y831970D01*
X711189Y830702D01*
X711346Y830466D01*
X711831Y829470D01*
X711346Y828474D01*
X711189Y828238D01*
X711135Y827970D01*
X717250D01*
Y825970D01*
X710852D01*
X710227Y825029D01*
X706400D01*
X706400Y825029D01*
X705229Y824796D01*
X704237Y824133D01*
X704237Y824133D01*
X702577Y822473D01*
X688500D01*
X686256Y822026D01*
X685600Y821588D01*
X684330Y822267D01*
Y825150D01*
X672830D01*
Y813150D01*
X672830D01*
Y812450D01*
X672830D01*
Y800450D01*
X684330D01*
Y810953D01*
X685600Y811632D01*
X686256Y811194D01*
X688500Y810747D01*
X704140D01*
X706384Y811194D01*
X708286Y812465D01*
X708645Y812824D01*
X708876Y813169D01*
X710206Y813207D01*
X710992Y812252D01*
X710936Y811970D01*
X711189Y810702D01*
X710440Y809536D01*
X710430Y809529D01*
X707003D01*
X705833Y809296D01*
X704840Y808633D01*
X704840Y808633D01*
X686362Y790155D01*
X657857D01*
X656219Y791793D01*
Y862527D01*
X656219Y862527D01*
X655986Y863697D01*
X655323Y864690D01*
X655323Y864690D01*
X640599Y879414D01*
Y894467D01*
X640366Y895637D01*
X639703Y896630D01*
X623009Y913324D01*
Y927103D01*
X623836Y927930D01*
X644720D01*
Y933371D01*
X660750D01*
Y930640D01*
X672750D01*
Y942140D01*
X660750D01*
Y939489D01*
X644720D01*
Y944930D01*
X621720D01*
Y934466D01*
X617950Y930696D01*
X612720Y935926D01*
Y944930D01*
X589720D01*
Y939449D01*
X577500D01*
Y942140D01*
X565500D01*
Y930640D01*
X577500D01*
Y933331D01*
X589720D01*
Y927930D01*
X612064D01*
X612891Y927103D01*
Y910400D01*
X612891Y910400D01*
X613124Y909230D01*
X613787Y908237D01*
X630481Y891543D01*
Y876490D01*
X630481Y876490D01*
X630714Y875320D01*
X631377Y874327D01*
X640222Y865482D01*
X639736Y864309D01*
X622297D01*
X620329Y866277D01*
Y874241D01*
X621172Y874408D01*
X624480Y876618D01*
X626690Y879926D01*
X627466Y883828D01*
X626690Y887730D01*
X624480Y891038D01*
X621172Y893248D01*
X617270Y894024D01*
X613368Y893248D01*
X610060Y891038D01*
X607850Y887730D01*
X607682Y886887D01*
X577500D01*
Y890070D01*
X565500D01*
Y878570D01*
X577500D01*
Y880769D01*
X607682D01*
X607850Y879926D01*
X610060Y876618D01*
X613368Y874408D01*
X614211Y874241D01*
Y865010D01*
X614211Y865010D01*
X614444Y863839D01*
X615107Y862847D01*
X618704Y859250D01*
X615107Y855653D01*
X614444Y854660D01*
X614211Y853490D01*
X614211Y853490D01*
Y843416D01*
X613368Y843248D01*
X610060Y841038D01*
X607850Y837730D01*
X607682Y836887D01*
X577500D01*
Y839740D01*
X565500D01*
Y838406D01*
X564327Y837920D01*
X555969Y846277D01*
Y888539D01*
X555969Y888540D01*
X555736Y889710D01*
X555509Y890051D01*
Y947423D01*
X558797Y950711D01*
X682193D01*
X682909Y949441D01*
D02*
G37*
G36*
X798121Y940686D02*
Y905933D01*
X798121Y905933D01*
X798297Y905050D01*
X797706Y904268D01*
X797342Y903991D01*
X796000Y904258D01*
X794049Y903870D01*
X792395Y902765D01*
X791605D01*
X789951Y903870D01*
X788000Y904258D01*
X786049Y903870D01*
X784395Y902765D01*
X783290Y901111D01*
X782902Y899160D01*
X783290Y897209D01*
X784395Y895555D01*
X786049Y894450D01*
X786441Y894372D01*
Y891243D01*
X785171Y890400D01*
X784500Y890534D01*
X783232Y890281D01*
X782157Y889563D01*
X781843D01*
X780768Y890281D01*
X779500Y890534D01*
X778232Y890281D01*
X777996Y890124D01*
X777000Y889639D01*
X776004Y890124D01*
X775768Y890281D01*
X774500Y890534D01*
X773232Y890281D01*
X772996Y890124D01*
X772000Y889639D01*
X771004Y890124D01*
X770768Y890281D01*
X769500Y890534D01*
X768829Y890400D01*
X767559Y891243D01*
Y951945D01*
X767559Y951945D01*
X767326Y953116D01*
X766663Y954108D01*
X766663Y954108D01*
X762108Y958663D01*
X761116Y959326D01*
X759945Y959559D01*
X759945Y959559D01*
X754599D01*
X753905Y960829D01*
X754238Y962500D01*
X753850Y964451D01*
X752745Y966105D01*
X752653Y966166D01*
X753038Y967436D01*
X771371D01*
X798121Y940686D01*
D02*
G37*
G36*
X1177851Y901703D02*
Y899350D01*
X1177851Y899350D01*
X1178084Y898179D01*
X1178747Y897187D01*
X1185287Y890647D01*
X1185287Y890647D01*
X1185287Y890647D01*
X1193484Y882450D01*
X1192958Y881180D01*
X1189720D01*
Y875430D01*
Y869680D01*
X1194551D01*
X1194720Y869680D01*
X1195821Y869273D01*
Y868087D01*
X1194720Y867680D01*
Y867680D01*
X1182720D01*
Y865739D01*
X1180750D01*
Y868180D01*
X1180750Y868180D01*
Y869180D01*
X1180750D01*
X1180750Y869450D01*
Y880180D01*
X1177809D01*
Y883760D01*
X1178355Y884125D01*
X1179460Y885779D01*
X1179848Y887730D01*
X1179460Y889681D01*
X1178355Y891335D01*
X1176701Y892440D01*
X1174750Y892828D01*
X1172799Y892440D01*
X1171145Y891335D01*
X1170040Y889681D01*
X1169652Y887730D01*
X1170040Y885779D01*
X1171145Y884125D01*
X1171691Y883760D01*
Y880180D01*
X1168750D01*
X1168050Y881160D01*
Y881180D01*
X1163050D01*
Y875430D01*
X1161050D01*
Y881180D01*
X1156050D01*
Y881180D01*
X1154949Y881587D01*
Y898311D01*
X1156132Y899370D01*
X1157370Y899124D01*
X1161272Y899900D01*
X1164580Y902110D01*
X1166790Y905418D01*
X1166957Y906261D01*
X1173293D01*
X1177851Y901703D01*
D02*
G37*
G36*
X814360Y888427D02*
X814360Y888427D01*
X815352Y887764D01*
X816523Y887531D01*
X816523Y887531D01*
X878321D01*
Y869195D01*
X876889Y868910D01*
X875235Y867805D01*
X874130Y866151D01*
X874026Y865626D01*
X872588Y864909D01*
X871985Y865029D01*
X871985Y865029D01*
X842031D01*
X841352Y866299D01*
X841640Y866729D01*
X842028Y868680D01*
X841640Y870631D01*
X840535Y872285D01*
X840001Y872641D01*
X840387Y873911D01*
X846020D01*
Y871570D01*
X857520D01*
Y883570D01*
X846020D01*
Y880029D01*
X832930D01*
X832565Y880575D01*
X830911Y881680D01*
X828960Y882068D01*
X827009Y881680D01*
X825355Y880575D01*
X824990Y880029D01*
X811022D01*
X811018Y880031D01*
X809750Y880284D01*
X803922D01*
X803361Y880615D01*
X803146Y880831D01*
X802814Y881392D01*
Y883220D01*
X799500D01*
Y884220D01*
X798500D01*
Y890618D01*
X797559Y891243D01*
Y894372D01*
X797951Y894450D01*
X799605Y895555D01*
X800710Y897209D01*
X801098Y899160D01*
X800916Y900075D01*
X802086Y900701D01*
X814360Y888427D01*
D02*
G37*
G36*
X1158762Y987828D02*
X1143377Y972443D01*
X1142714Y971451D01*
X1142481Y970280D01*
X1142481Y970280D01*
Y905510D01*
X1142481Y905510D01*
X1142714Y904340D01*
X1143377Y903347D01*
X1148831Y897893D01*
Y854710D01*
X1148831Y854710D01*
X1149064Y853540D01*
X1149727Y852547D01*
X1154762Y847512D01*
X1154276Y846339D01*
X1148240D01*
X1147875Y846885D01*
X1146221Y847990D01*
X1144270Y848378D01*
X1142319Y847990D01*
X1140665Y846885D01*
X1139560Y845231D01*
X1139416Y844507D01*
X1137248Y842339D01*
X1114673D01*
X1114673Y842339D01*
X1113503Y842106D01*
X1112510Y841443D01*
X1106602Y835535D01*
X1105429Y836021D01*
X1105429Y974070D01*
X1105397Y974229D01*
X1105412Y974390D01*
X1105303Y975429D01*
X1105208Y975736D01*
X1105170Y976055D01*
X1104847Y977049D01*
X1104690Y977329D01*
X1104587Y977633D01*
X1104064Y978538D01*
X1103852Y978780D01*
X1103688Y979056D01*
X1102989Y979832D01*
X1102731Y980025D01*
X1102514Y980260D01*
X1101668Y980875D01*
X1101376Y981009D01*
X1101114Y981195D01*
X1100159Y981620D01*
X1099846Y981691D01*
X1099551Y981817D01*
X1098529Y982035D01*
X1098208Y982039D01*
X1097893Y982102D01*
X1096847D01*
X1096532Y982039D01*
X1096211Y982035D01*
X1095189Y981817D01*
X1094894Y981691D01*
X1094581Y981620D01*
X1093626Y981195D01*
X1093363Y981009D01*
X1093072Y980875D01*
X1092226Y980260D01*
X1092009Y980025D01*
X1091751Y979833D01*
X1091052Y979056D01*
X1090888Y978780D01*
X1090676Y978538D01*
X1090153Y977633D01*
X1090050Y977329D01*
X1089893Y977049D01*
X1089570Y976055D01*
X1089532Y975736D01*
X1089437Y975429D01*
X1089328Y974390D01*
X1089343Y974229D01*
X1089311Y974070D01*
Y784070D01*
X1089343Y783911D01*
X1089328Y783750D01*
X1089437Y782711D01*
X1089532Y782404D01*
X1089570Y782085D01*
X1089893Y781091D01*
X1090050Y780811D01*
X1090153Y780507D01*
X1090676Y779602D01*
X1090888Y779360D01*
X1091052Y779084D01*
X1091751Y778308D01*
X1092009Y778115D01*
X1092226Y777880D01*
X1093072Y777265D01*
X1093364Y777131D01*
X1093626Y776946D01*
X1094581Y776520D01*
X1094894Y776450D01*
X1095189Y776323D01*
X1096211Y776105D01*
X1096533Y776101D01*
X1096847Y776039D01*
X1097893D01*
X1098207Y776101D01*
X1098529Y776105D01*
X1099551Y776323D01*
X1099846Y776450D01*
X1100159Y776520D01*
X1101114Y776946D01*
X1101376Y777131D01*
X1101668Y777265D01*
X1102041Y777537D01*
X1103311Y776936D01*
Y767277D01*
X1097283Y761249D01*
X1072763D01*
X1071593Y761016D01*
X1070600Y760353D01*
X1070600Y760353D01*
X1049207Y738960D01*
X1048544Y737967D01*
X1048311Y736797D01*
X1048311Y736797D01*
Y628263D01*
X1048311Y628263D01*
X1048544Y627093D01*
X1049207Y626100D01*
X1078981Y596326D01*
Y524507D01*
X1038863Y484389D01*
X1036952D01*
X1036473Y484868D01*
Y486434D01*
X1038529Y488012D01*
X1040452Y490518D01*
X1041661Y493437D01*
X1042074Y496570D01*
X1041661Y499703D01*
X1040452Y502622D01*
X1038529Y505129D01*
X1036022Y507052D01*
X1033103Y508261D01*
X1029970Y508674D01*
X1026837Y508261D01*
X1023918Y507052D01*
X1021412Y505129D01*
X1019488Y502622D01*
X1018279Y499703D01*
X1017911Y496905D01*
X1016629D01*
X1016261Y499703D01*
X1015052Y502622D01*
X1013129Y505129D01*
X1010622Y507052D01*
X1007703Y508261D01*
X1007629Y508271D01*
Y510269D01*
X1007703Y510279D01*
X1010622Y511488D01*
X1013129Y513411D01*
X1015052Y515918D01*
X1016261Y518837D01*
X1016674Y521970D01*
X1016261Y525103D01*
X1015052Y528022D01*
X1013129Y530529D01*
X1010622Y532452D01*
X1007703Y533661D01*
X1007629Y533671D01*
Y541023D01*
X1021973Y555367D01*
X1021973Y555367D01*
X1022636Y556359D01*
X1022869Y557530D01*
X1022869Y557530D01*
Y561770D01*
X1025310D01*
X1030810Y567270D01*
Y578270D01*
X1025310Y583770D01*
X1014310D01*
X1013723Y583183D01*
X1010359Y586547D01*
Y646817D01*
X1010126Y647987D01*
X1009463Y648980D01*
X1009463Y648980D01*
X1000960Y657483D01*
X999967Y658146D01*
X998797Y658379D01*
X998797Y658379D01*
X920937D01*
X868119Y711197D01*
Y712663D01*
X869011Y712840D01*
X870665Y713945D01*
X871770Y715599D01*
X872158Y717550D01*
X871770Y719501D01*
X870665Y721155D01*
X869011Y722260D01*
X867060Y722648D01*
X865109Y722260D01*
X863965Y721495D01*
X863060Y721258D01*
X862155Y721495D01*
X861011Y722260D01*
X859060Y722648D01*
X857109Y722260D01*
X855455Y721155D01*
X854350Y719501D01*
X853962Y717550D01*
X854350Y715599D01*
X855455Y713945D01*
X857109Y712840D01*
X858001Y712663D01*
Y708273D01*
X858001Y708273D01*
X858234Y707103D01*
X858897Y706110D01*
X915850Y649157D01*
X915850Y649157D01*
X916843Y648494D01*
X918013Y648261D01*
X995873D01*
X1000241Y643893D01*
Y583636D01*
X999041Y582758D01*
X997282Y583487D01*
X994410Y583865D01*
X991538Y583487D01*
X988863Y582379D01*
X986565Y580615D01*
X984801Y578317D01*
X983693Y575642D01*
X983315Y572770D01*
X983693Y569898D01*
X984801Y567223D01*
X986565Y564925D01*
X988863Y563162D01*
X991351Y562131D01*
Y551177D01*
X977307Y537133D01*
X976644Y536141D01*
X976411Y534970D01*
X976411Y534970D01*
Y533710D01*
X976037Y533661D01*
X973118Y532452D01*
X970611Y530529D01*
X968688Y528022D01*
X967479Y525103D01*
X967111Y522305D01*
X965829D01*
X965461Y525103D01*
X964252Y528022D01*
X962328Y530529D01*
X959822Y532452D01*
X956903Y533661D01*
X956829Y533671D01*
Y538483D01*
X971173Y552827D01*
X971173Y552827D01*
X971836Y553819D01*
X972069Y554990D01*
X972069Y554990D01*
Y562131D01*
X974557Y563162D01*
X976855Y564925D01*
X978618Y567223D01*
X979727Y569898D01*
X980105Y572770D01*
X979727Y575642D01*
X978618Y578317D01*
X976855Y580615D01*
X974557Y582379D01*
X971881Y583487D01*
X969010Y583865D01*
X966138Y583487D01*
X963463Y582379D01*
X961165Y580615D01*
X959401Y578317D01*
X958293Y575642D01*
X957915Y572770D01*
X958293Y569898D01*
X959401Y567223D01*
X961165Y564925D01*
X963463Y563162D01*
X965951Y562131D01*
Y556257D01*
X951607Y541913D01*
X950944Y540920D01*
X950711Y539750D01*
X950711Y539750D01*
Y533671D01*
X950637Y533661D01*
X947718Y532452D01*
X945211Y530529D01*
X943288Y528022D01*
X942079Y525103D01*
X941711Y522305D01*
X940430D01*
X940061Y525103D01*
X938852Y528022D01*
X936928Y530529D01*
X934422Y532452D01*
X931503Y533661D01*
X929370Y533942D01*
Y521970D01*
X927370D01*
Y533942D01*
X925237Y533661D01*
X922318Y532452D01*
X919811Y530529D01*
X917888Y528022D01*
X916679Y525103D01*
X916311Y522305D01*
X915030D01*
X914661Y525103D01*
X913452Y528022D01*
X911528Y530529D01*
X909022Y532452D01*
X906103Y533661D01*
X906029Y533671D01*
Y538483D01*
X920373Y552827D01*
X921036Y553820D01*
X921269Y554990D01*
Y562131D01*
X923757Y563162D01*
X926055Y564925D01*
X927819Y567223D01*
X928927Y569898D01*
X929305Y572770D01*
X928927Y575642D01*
X927819Y578317D01*
X926055Y580615D01*
X923757Y582379D01*
X921082Y583487D01*
X918210Y583865D01*
X915338Y583487D01*
X912850Y582456D01*
X899869Y595437D01*
Y605294D01*
X899636Y606464D01*
X898973Y607457D01*
X898973Y607457D01*
X839099Y667331D01*
Y672604D01*
X838866Y673774D01*
X838203Y674767D01*
X838203Y674767D01*
X836559Y676411D01*
Y711344D01*
X837500Y712452D01*
X839451Y712840D01*
X841105Y713945D01*
X842210Y715599D01*
X842598Y717550D01*
X842210Y719501D01*
X841105Y721155D01*
X839451Y722260D01*
X837500Y722648D01*
X835549Y722260D01*
X834717Y721704D01*
X833105Y721830D01*
X831451Y722935D01*
X829500Y723323D01*
X827549Y722935D01*
X825895Y721830D01*
X825444Y721155D01*
X825105D01*
X823451Y722260D01*
X821500Y722648D01*
X819549Y722260D01*
X817895Y721155D01*
X816790Y719501D01*
X816402Y717550D01*
X816790Y715599D01*
X817895Y713945D01*
X819549Y712840D01*
X821500Y712452D01*
X822441Y711344D01*
Y671830D01*
X822441Y671830D01*
X822674Y670659D01*
X823337Y669667D01*
X824981Y668023D01*
Y662750D01*
X824981Y662750D01*
X825214Y661580D01*
X825877Y660587D01*
X885751Y600713D01*
Y595437D01*
X872770Y582456D01*
X870282Y583487D01*
X867410Y583865D01*
X864538Y583487D01*
X861862Y582379D01*
X859565Y580615D01*
X857802Y578317D01*
X856693Y575642D01*
X856315Y572770D01*
X856693Y569898D01*
X857802Y567223D01*
X859565Y564925D01*
X861862Y563162D01*
X864351Y562131D01*
Y554987D01*
X850007Y540643D01*
X849344Y539650D01*
X849111Y538480D01*
X849111Y538480D01*
Y533671D01*
X849037Y533661D01*
X846118Y532452D01*
X843612Y530529D01*
X841688Y528022D01*
X840479Y525103D01*
X840110Y522305D01*
X838829D01*
X838461Y525103D01*
X837252Y528022D01*
X837207Y528081D01*
X844173Y535047D01*
X844173Y535047D01*
X844836Y536040D01*
X845069Y537210D01*
X845069Y537210D01*
Y562131D01*
X847558Y563162D01*
X849855Y564925D01*
X851618Y567223D01*
X852727Y569898D01*
X853105Y572770D01*
X852727Y575642D01*
X851618Y578317D01*
X849855Y580615D01*
X847558Y582379D01*
X844882Y583487D01*
X842010Y583865D01*
X839138Y583487D01*
X836650Y582456D01*
X823669Y595437D01*
Y613067D01*
X823436Y614237D01*
X822773Y615230D01*
X822773Y615230D01*
X820497Y617505D01*
Y648142D01*
X820264Y649312D01*
X819601Y650304D01*
X819601Y650304D01*
X763704Y706202D01*
X763745Y706461D01*
X765181Y707467D01*
X765810Y707342D01*
X767761Y707730D01*
X769415Y708835D01*
X770520Y710489D01*
X770697Y711381D01*
X799899D01*
X799899Y711381D01*
X801069Y711614D01*
X802062Y712277D01*
X816976Y727191D01*
X877410D01*
X877775Y726645D01*
X879429Y725540D01*
X881380Y725152D01*
X883331Y725540D01*
X884985Y726645D01*
X886090Y728299D01*
X886478Y730250D01*
X886090Y732201D01*
X884985Y733855D01*
X883331Y734960D01*
X881380Y735348D01*
X879429Y734960D01*
X877775Y733855D01*
X877410Y733309D01*
X827885D01*
X827802Y733523D01*
X827673Y734579D01*
X829105Y735535D01*
X830210Y737189D01*
X830521Y738753D01*
X830929Y739161D01*
X907863D01*
X909250Y737774D01*
Y730600D01*
X919980D01*
X920250Y730600D01*
X921250Y730600D01*
X921520Y730600D01*
X932250D01*
Y733541D01*
X935413D01*
X935634Y732430D01*
X936297Y731437D01*
X937290Y730774D01*
X938460Y730541D01*
X944460D01*
X945630Y730774D01*
X946623Y731437D01*
X946732Y731600D01*
X953188D01*
X953297Y731437D01*
X954289Y730774D01*
X955460Y730541D01*
X957460D01*
Y736600D01*
Y742659D01*
X955460D01*
X954289Y742426D01*
X953297Y741763D01*
X953188Y741600D01*
X946732D01*
X946623Y741763D01*
X945630Y742426D01*
X944460Y742659D01*
X938460D01*
X937290Y742426D01*
X936297Y741763D01*
X935634Y740770D01*
X935413Y739659D01*
X932250D01*
Y742600D01*
X921520D01*
X921250Y742600D01*
X920250Y742600D01*
X919980Y742600D01*
X913076D01*
X911456Y744220D01*
X913076Y745840D01*
X919980D01*
X920250Y745840D01*
X921250D01*
X921520Y745840D01*
X932250D01*
Y748781D01*
X935413D01*
X935634Y747670D01*
X936297Y746677D01*
X937290Y746014D01*
X938460Y745781D01*
X944460D01*
X945630Y746014D01*
X946623Y746677D01*
X946732Y746840D01*
X953188D01*
X953297Y746677D01*
X954289Y746014D01*
X955460Y745781D01*
X957460D01*
Y751840D01*
Y757899D01*
X955460D01*
X954289Y757666D01*
X953297Y757003D01*
X953188Y756840D01*
X946732D01*
X946623Y757003D01*
X945630Y757666D01*
X944460Y757899D01*
X938460D01*
X937290Y757666D01*
X936297Y757003D01*
X935634Y756011D01*
X935413Y754899D01*
X932250D01*
Y757840D01*
X921520D01*
X921250Y757840D01*
X920250D01*
X919980Y757840D01*
X909250D01*
Y750666D01*
X907863Y749279D01*
X888074D01*
X887588Y750452D01*
X906777Y769641D01*
X907863D01*
X909250Y768254D01*
Y761080D01*
X919980D01*
X920250Y761080D01*
X921250D01*
X921520Y761080D01*
X932250D01*
Y764021D01*
X935413D01*
X935634Y762909D01*
X936297Y761917D01*
X937290Y761254D01*
X938460Y761021D01*
X944460D01*
X945630Y761254D01*
X946623Y761917D01*
X946732Y762080D01*
X953188D01*
X953297Y761917D01*
X954289Y761254D01*
X955460Y761021D01*
X957460D01*
Y767080D01*
Y773139D01*
X955460D01*
X954289Y772906D01*
X953297Y772243D01*
X953188Y772080D01*
X946732D01*
X946623Y772243D01*
X945630Y772906D01*
X944460Y773139D01*
X938460D01*
X937290Y772906D01*
X936297Y772243D01*
X935634Y771251D01*
X935413Y770139D01*
X932250D01*
Y773080D01*
X921520D01*
X921250Y773080D01*
X920250D01*
X919980Y773080D01*
X913076D01*
X911456Y774700D01*
X913076Y776320D01*
X919980D01*
X920250Y776320D01*
X921250D01*
X921520Y776320D01*
X932250D01*
Y779261D01*
X935413D01*
X935634Y778149D01*
X936297Y777157D01*
X937290Y776494D01*
X938460Y776261D01*
X944460D01*
X945630Y776494D01*
X946623Y777157D01*
X946732Y777320D01*
X953188D01*
X953297Y777157D01*
X954289Y776494D01*
X955460Y776261D01*
X957460D01*
Y782320D01*
Y788379D01*
X955460D01*
X954289Y788146D01*
X953297Y787483D01*
X953188Y787320D01*
X946732D01*
X946623Y787483D01*
X945630Y788146D01*
X944460Y788379D01*
X938460D01*
X937290Y788146D01*
X936297Y787483D01*
X935634Y786490D01*
X935413Y785379D01*
X932250D01*
Y788320D01*
X921520D01*
X921250Y788320D01*
X920250D01*
X919980Y788320D01*
X911722D01*
X911236Y789493D01*
X918865Y797123D01*
X918866Y797123D01*
X919529Y798115D01*
X919761Y799286D01*
X919761Y799286D01*
Y916398D01*
X930087Y926723D01*
X931260Y926237D01*
Y920480D01*
X943260D01*
Y921432D01*
X947543D01*
X948009Y921120D01*
X949960Y920732D01*
X951911Y921120D01*
X952377Y921432D01*
X953684D01*
Y918435D01*
X953946Y917118D01*
X954692Y916002D01*
X955808Y915256D01*
X957125Y914994D01*
X965375D01*
X966692Y915256D01*
X967808Y916002D01*
X968554Y917118D01*
X968816Y918435D01*
Y933185D01*
X968554Y934502D01*
X967808Y935618D01*
X966692Y936364D01*
X965375Y936626D01*
X957125D01*
X955808Y936364D01*
X954692Y935618D01*
X953946Y934502D01*
X953684Y933185D01*
Y930608D01*
X951568D01*
X949960Y930928D01*
X948352Y930608D01*
X943260D01*
Y931980D01*
X937002D01*
X936516Y933153D01*
X992364Y989001D01*
X1158276D01*
X1158762Y987828D01*
D02*
G37*
G36*
X1208066Y856514D02*
X1210310Y856067D01*
X1218241D01*
Y840173D01*
X1216971Y839285D01*
X1216300Y839419D01*
X1214934Y839147D01*
X1213800Y838389D01*
X1212666Y839147D01*
X1211300Y839419D01*
X1209934Y839147D01*
X1208800Y838389D01*
X1207666Y839147D01*
X1206300Y839419D01*
X1205939Y839715D01*
Y856408D01*
X1207209Y857087D01*
X1208066Y856514D01*
D02*
G37*
G36*
X893644Y859547D02*
Y837742D01*
X892374Y837048D01*
X890703Y837381D01*
X890059Y837253D01*
X884528Y842784D01*
X884647Y843995D01*
X885752Y845649D01*
X886140Y847600D01*
X885752Y849551D01*
X885265Y850280D01*
X885629Y851960D01*
X885745Y852037D01*
X891543Y857835D01*
X891543Y857835D01*
X892206Y858827D01*
X892374Y859672D01*
X893644Y859547D01*
D02*
G37*
G36*
X1182720Y856180D02*
X1185661D01*
Y849630D01*
X1185661Y849630D01*
X1185894Y848459D01*
X1186557Y847467D01*
X1188241Y845783D01*
Y840173D01*
X1187300Y839515D01*
Y833600D01*
X1185300D01*
Y839515D01*
X1184359Y840173D01*
Y846890D01*
X1184126Y848061D01*
X1183463Y849053D01*
X1180723Y851793D01*
X1179731Y852456D01*
X1178560Y852689D01*
X1178560Y852689D01*
X1167011D01*
X1165109Y854591D01*
Y856180D01*
X1168050D01*
Y856200D01*
X1168750Y857180D01*
X1180750D01*
Y859621D01*
X1182720D01*
Y856180D01*
D02*
G37*
G36*
X833490Y839374D02*
X834660Y839141D01*
X834660Y839141D01*
X871033D01*
X880841Y829333D01*
X880336Y828577D01*
X879948Y826626D01*
X880336Y824675D01*
X881441Y823021D01*
X883095Y821916D01*
X885046Y821528D01*
X885146Y821548D01*
X885772Y820377D01*
X883923Y818529D01*
X815424D01*
X814820Y819133D01*
X813827Y819796D01*
X813745Y819812D01*
X812812Y820702D01*
X812906Y821176D01*
X813064Y821970D01*
X812930Y822641D01*
X813773Y823911D01*
X826260D01*
X826625Y823365D01*
X828279Y822260D01*
X830230Y821872D01*
X832181Y822260D01*
X833835Y823365D01*
X834200Y823911D01*
X846020D01*
Y820770D01*
X857520D01*
Y832770D01*
X846020D01*
Y830029D01*
X834200D01*
X833835Y830575D01*
X832181Y831680D01*
X830230Y832068D01*
X828279Y831680D01*
X826625Y830575D01*
X826260Y830029D01*
X813773D01*
X813148Y830970D01*
X806750D01*
Y832970D01*
X813188D01*
X813800Y833871D01*
X818990D01*
X819355Y833325D01*
X821009Y832220D01*
X822960Y831832D01*
X824911Y832220D01*
X826565Y833325D01*
X827670Y834979D01*
X828058Y836930D01*
X827817Y838141D01*
X828727Y839411D01*
X833434D01*
X833490Y839374D01*
D02*
G37*
G36*
X638101Y807344D02*
X637741Y807212D01*
X636831Y807132D01*
X635862Y808582D01*
X634208Y809688D01*
X632258Y810076D01*
X630307Y809688D01*
X629550Y809182D01*
X624850Y813883D01*
X623857Y814546D01*
X622687Y814779D01*
X622687Y814779D01*
X589083D01*
X589083Y814779D01*
X587913Y814546D01*
X586920Y813883D01*
X586920Y813883D01*
X582037Y809000D01*
X581374Y808007D01*
X581141Y806837D01*
X581141Y806837D01*
Y802232D01*
X577977Y799068D01*
X577314Y798075D01*
X577081Y796905D01*
X577081Y796905D01*
Y791935D01*
X577081Y791935D01*
X577314Y790764D01*
X577977Y789772D01*
X579081Y788668D01*
Y785910D01*
X577811Y785524D01*
X577473Y786030D01*
X568151Y795352D01*
Y828240D01*
X577500D01*
Y830769D01*
X607682D01*
X607850Y829926D01*
X610060Y826618D01*
X613368Y824408D01*
X617270Y823632D01*
X621172Y824408D01*
X624480Y826618D01*
X626690Y829926D01*
X627466Y833828D01*
X626690Y837730D01*
X624480Y841038D01*
X621172Y843248D01*
X620329Y843416D01*
Y852223D01*
X622297Y854191D01*
X638101D01*
Y807344D01*
D02*
G37*
G36*
X1139395Y831675D02*
X1141049Y830570D01*
X1143000Y830182D01*
X1144951Y830570D01*
X1146605Y831675D01*
X1147975Y831440D01*
X1153786Y825628D01*
X1154167Y825374D01*
X1154753Y823966D01*
X1154481Y822600D01*
X1154615Y821929D01*
X1153727Y820659D01*
X1121130D01*
X1121130Y820659D01*
X1119959Y820426D01*
X1118967Y819763D01*
X1118967Y819763D01*
X1114602Y815398D01*
X1113429Y815884D01*
X1113429Y828053D01*
X1117597Y832221D01*
X1139030D01*
X1139395Y831675D01*
D02*
G37*
G36*
X1154615Y813271D02*
X1154481Y812600D01*
X1154753Y811234D01*
X1155511Y810100D01*
X1154753Y808966D01*
X1154481Y807600D01*
X1154615Y806929D01*
X1153727Y805659D01*
X1143070D01*
Y808640D01*
X1132340D01*
X1132070Y808640D01*
X1131070D01*
X1130800Y808640D01*
X1120070D01*
Y796640D01*
X1122511D01*
Y793400D01*
X1122511Y793400D01*
X1122744Y792230D01*
X1123407Y791237D01*
X1126814Y787830D01*
X1127035Y786719D01*
X1128140Y785065D01*
X1129794Y783960D01*
X1131745Y783572D01*
X1133696Y783960D01*
X1135350Y785065D01*
X1136455Y786719D01*
X1136843Y788670D01*
X1136455Y790621D01*
X1135350Y792275D01*
X1133696Y793380D01*
X1131745Y793768D01*
X1129896Y793400D01*
X1128629Y794667D01*
Y796640D01*
X1130800D01*
X1131070Y796640D01*
X1132070D01*
X1132340Y796640D01*
X1143070D01*
Y799541D01*
X1153727D01*
X1154615Y798271D01*
X1154481Y797600D01*
X1154753Y796234D01*
X1155511Y795100D01*
X1154753Y793966D01*
X1154680Y793600D01*
X1160300D01*
Y791600D01*
X1154680D01*
X1154753Y791234D01*
X1155511Y790100D01*
X1154753Y788966D01*
X1154481Y787600D01*
X1154753Y786234D01*
X1155511Y785100D01*
X1154753Y783966D01*
X1154481Y782600D01*
X1154753Y781234D01*
X1155511Y780100D01*
X1154753Y778966D01*
X1154680Y778600D01*
X1160300D01*
Y776600D01*
X1153792D01*
X1153605Y776328D01*
X1152915Y776205D01*
X1151261Y777310D01*
X1149310Y777698D01*
X1147359Y777310D01*
X1146610Y776809D01*
X1145340Y777488D01*
Y778160D01*
X1133840D01*
Y766160D01*
X1145340D01*
Y767712D01*
X1146610Y768391D01*
X1147359Y767890D01*
X1149310Y767502D01*
X1151261Y767890D01*
X1152915Y768995D01*
X1153280Y769541D01*
X1156328D01*
X1156684Y769303D01*
X1158050Y769031D01*
X1161499D01*
X1162573Y768873D01*
X1162731Y767799D01*
Y764350D01*
X1163003Y762984D01*
X1163241Y762628D01*
Y747499D01*
X1148300D01*
X1147130Y747266D01*
X1146137Y746603D01*
X1134692Y735158D01*
X1133519Y735644D01*
Y745653D01*
X1138546Y750680D01*
X1139190Y750552D01*
X1141141Y750940D01*
X1142795Y752045D01*
X1143900Y753699D01*
X1144288Y755650D01*
X1143900Y757601D01*
X1142795Y759255D01*
X1141141Y760360D01*
X1139190Y760748D01*
X1137239Y760360D01*
X1135585Y759255D01*
X1134480Y757601D01*
X1134092Y755650D01*
X1134220Y755006D01*
X1128297Y749083D01*
X1127634Y748091D01*
X1127401Y746920D01*
X1127401Y746920D01*
Y737010D01*
X1126789Y736673D01*
X1126131Y736497D01*
X1124631Y737500D01*
X1122680Y737888D01*
X1122036Y737760D01*
X1118119Y741677D01*
Y810263D01*
X1122397Y814541D01*
X1153727D01*
X1154615Y813271D01*
D02*
G37*
G36*
X909644Y816968D02*
Y802210D01*
X894083Y786649D01*
X802059D01*
Y787900D01*
X802326Y788299D01*
X802559Y789470D01*
X802559Y789470D01*
Y790448D01*
X802561Y790452D01*
X802814Y791720D01*
Y797548D01*
X803146Y798109D01*
X803361Y798325D01*
X803922Y798656D01*
X809750D01*
X811018Y798909D01*
X811022Y798911D01*
X812657D01*
X812657Y798911D01*
X813827Y799144D01*
X814820Y799807D01*
X815424Y800411D01*
X890160D01*
X890161Y800411D01*
X891331Y800644D01*
X892323Y801307D01*
X908471Y817454D01*
X909644Y816968D01*
D02*
G37*
G36*
X710829Y799144D02*
X712000Y798911D01*
X712000Y798911D01*
X712978D01*
X712982Y798909D01*
X714250Y798656D01*
X720078D01*
X720639Y798325D01*
X720854Y798109D01*
X721186Y797548D01*
Y791720D01*
X721346Y790919D01*
Y790767D01*
X719522Y788943D01*
X718231Y789806D01*
X716280Y790194D01*
X714329Y789806D01*
X712675Y788701D01*
X711570Y787047D01*
X711182Y785096D01*
X711515Y783425D01*
X710821Y782155D01*
X694330D01*
X693844Y783328D01*
X709927Y799411D01*
X710430D01*
X710829Y799144D01*
D02*
G37*
G36*
X775500Y788605D02*
X775768Y788659D01*
X775921Y788761D01*
X777191Y788082D01*
Y779713D01*
X777191Y779713D01*
X777424Y778542D01*
X777991Y777693D01*
Y770095D01*
X776721Y769624D01*
X775381Y770520D01*
X774026Y770789D01*
X773985Y770851D01*
X773985Y770851D01*
X771809Y773027D01*
Y788082D01*
X773079Y788761D01*
X773232Y788659D01*
X773500Y788605D01*
Y794720D01*
X775500D01*
Y788605D01*
D02*
G37*
G36*
X755500Y788322D02*
X756441Y787697D01*
Y779817D01*
X752217Y775593D01*
X751554Y774601D01*
X751321Y773430D01*
X751321Y773430D01*
Y763070D01*
X748380D01*
Y760369D01*
X747260Y760146D01*
X746267Y759483D01*
X744864Y758080D01*
X744220Y758208D01*
X742269Y757820D01*
X740615Y756715D01*
X739510Y755061D01*
X739122Y753110D01*
X739510Y751159D01*
X740615Y749505D01*
X741161Y749140D01*
Y746757D01*
X740763Y746359D01*
X736250D01*
Y748800D01*
X736250D01*
Y749800D01*
X736250D01*
Y760800D01*
X733309D01*
Y764777D01*
X733309Y764777D01*
X733076Y765948D01*
X732413Y766940D01*
X732413Y766940D01*
X731804Y767549D01*
X732112Y769096D01*
X731779Y770767D01*
X732473Y772037D01*
X735485D01*
X735485Y772037D01*
X736656Y772270D01*
X737648Y772933D01*
X741163Y776448D01*
X741163Y776448D01*
X741826Y777440D01*
X742059Y778611D01*
X742059Y778611D01*
Y787900D01*
X742066Y787910D01*
X742830Y788401D01*
X743675Y788570D01*
X744500Y788406D01*
X745768Y788659D01*
X746843Y789377D01*
X747157D01*
X748232Y788659D01*
X749500Y788406D01*
X750768Y788659D01*
X751843Y789377D01*
X752157D01*
X753232Y788659D01*
X753500Y788605D01*
Y794720D01*
X755500D01*
Y788322D01*
D02*
G37*
G36*
X898326Y775499D02*
X880456Y757629D01*
X873052D01*
X872927Y758899D01*
X872994Y758912D01*
X874648Y760017D01*
X875753Y761671D01*
X876141Y763622D01*
X875753Y765573D01*
X874958Y766762D01*
X874825Y768015D01*
X875930Y769669D01*
X876318Y771620D01*
X875930Y773571D01*
X874825Y775225D01*
X874770Y775261D01*
X875155Y776531D01*
X897007D01*
X897007Y776531D01*
X897701Y776669D01*
X898326Y775499D01*
D02*
G37*
G36*
X1184934Y761053D02*
X1184740Y760479D01*
X1184624Y760307D01*
X1184391Y759136D01*
X1184391Y759136D01*
Y752472D01*
X1184391Y752472D01*
X1184624Y751301D01*
X1185287Y750309D01*
X1185384Y750212D01*
X1185202Y749300D01*
X1185590Y747349D01*
X1186695Y745695D01*
X1188349Y744590D01*
X1190300Y744202D01*
X1191971Y744535D01*
X1193241Y743841D01*
Y731590D01*
X1190340D01*
Y720590D01*
X1190340D01*
Y719590D01*
X1190340D01*
Y708590D01*
X1193281D01*
Y702307D01*
X1181103Y690129D01*
X1169824D01*
X1169338Y691302D01*
X1170263Y692227D01*
X1170926Y693219D01*
X1171159Y694390D01*
X1171159Y694390D01*
Y699539D01*
X1172279Y700138D01*
X1172799Y699790D01*
X1174750Y699402D01*
X1176701Y699790D01*
X1178355Y700895D01*
X1179460Y702549D01*
X1179771Y704113D01*
X1180009Y704351D01*
X1181082Y704564D01*
X1182074Y705227D01*
X1183263Y706416D01*
X1183263Y706416D01*
X1183926Y707408D01*
X1184159Y708579D01*
Y708590D01*
X1187100D01*
Y719590D01*
X1187100D01*
Y720590D01*
X1187100D01*
Y731590D01*
X1184159D01*
Y740410D01*
X1184159Y740410D01*
X1183926Y741581D01*
X1183263Y742573D01*
X1179359Y746477D01*
Y760026D01*
X1180629Y760915D01*
X1181300Y760781D01*
X1182666Y761053D01*
X1183800Y761811D01*
X1184934Y761053D01*
D02*
G37*
G36*
X622396Y802028D02*
X621891Y801272D01*
X621503Y799321D01*
X621891Y797370D01*
X622996Y795716D01*
X624650Y794611D01*
X626601Y794223D01*
X628552Y794611D01*
X630206Y795716D01*
X631311Y797370D01*
X631579Y798720D01*
X632051Y799527D01*
X632859Y799999D01*
X634208Y800268D01*
X635862Y801373D01*
X636831Y802823D01*
X637741Y802743D01*
X638101Y802611D01*
Y784268D01*
X638101Y784267D01*
X638334Y783097D01*
X638997Y782104D01*
X648169Y772933D01*
X648169Y772933D01*
X649161Y772270D01*
X650332Y772037D01*
X650332Y772037D01*
X711203D01*
X711882Y770767D01*
X711570Y770301D01*
X711182Y768350D01*
X711570Y766399D01*
X712675Y764745D01*
X713221Y764380D01*
Y760800D01*
X710280D01*
Y749800D01*
X710280D01*
Y748800D01*
X710280D01*
Y737800D01*
X722280D01*
Y740241D01*
X724250D01*
Y737800D01*
X736250D01*
Y740241D01*
X742030D01*
X742030Y740241D01*
X743201Y740474D01*
X744193Y741137D01*
X746383Y743327D01*
X746383Y743327D01*
X747046Y744319D01*
X747110Y744642D01*
X748380Y744517D01*
Y738070D01*
X753380D01*
Y743820D01*
Y749570D01*
X749958D01*
X749259Y750783D01*
X749677Y751570D01*
X760380D01*
Y751570D01*
X761080D01*
Y751570D01*
X773080D01*
Y751570D01*
X773780Y751570D01*
Y751570D01*
X785780D01*
Y763070D01*
X784109D01*
Y775526D01*
X785282Y776012D01*
X792757Y768537D01*
X792757Y768537D01*
X793749Y767874D01*
X794920Y767641D01*
X847283D01*
X853465Y761459D01*
X854457Y760796D01*
X855628Y760563D01*
X855628Y760563D01*
X867073D01*
X867438Y760017D01*
X869092Y758912D01*
X869159Y758899D01*
X869034Y757629D01*
X818419D01*
X817614Y758611D01*
X817754Y759316D01*
X817366Y761267D01*
X816261Y762921D01*
X814607Y764026D01*
X812656Y764414D01*
X810705Y764026D01*
X809051Y762921D01*
X807946Y761267D01*
X807558Y759316D01*
X807698Y758611D01*
X806892Y757629D01*
X802253D01*
X801083Y757396D01*
X800090Y756733D01*
X800090Y756733D01*
X793937Y750580D01*
X793274Y749587D01*
X793041Y748417D01*
X793041Y748417D01*
Y729499D01*
X632341D01*
X625739Y736101D01*
Y778253D01*
X625862Y778437D01*
X626250Y780388D01*
X625862Y782339D01*
X624757Y783993D01*
X623103Y785098D01*
X621152Y785486D01*
X619201Y785098D01*
X617547Y783993D01*
X616442Y782339D01*
X616400Y782129D01*
X615185Y781761D01*
X613650Y783296D01*
X613778Y783940D01*
X613390Y785891D01*
X612285Y787545D01*
X610631Y788650D01*
X608680Y789038D01*
X607018Y788707D01*
X606213Y789263D01*
X605906Y789627D01*
X605968Y789940D01*
X605580Y791891D01*
X604475Y793545D01*
X602821Y794650D01*
X600870Y795038D01*
X598919Y794650D01*
X597265Y793545D01*
X596469Y792352D01*
X595199Y792738D01*
Y796905D01*
X595199Y796905D01*
X594966Y798075D01*
X594303Y799068D01*
X591259Y802112D01*
Y803913D01*
X592007Y804661D01*
X619763D01*
X622396Y802028D01*
D02*
G37*
G36*
X1178041Y739143D02*
Y731590D01*
X1175100D01*
Y729149D01*
X1173130D01*
Y731590D01*
X1161130D01*
Y720590D01*
X1161130D01*
Y719590D01*
X1161130D01*
Y708590D01*
X1164071D01*
Y705771D01*
X1162915Y704735D01*
X1162835Y704722D01*
X1162100Y704868D01*
X1160149Y704480D01*
X1159536Y704070D01*
X1156286Y707320D01*
X1156380Y708590D01*
X1159160D01*
Y719590D01*
X1159160D01*
Y720590D01*
X1159160D01*
Y731590D01*
X1156219D01*
Y736081D01*
X1167130D01*
X1167130Y736081D01*
X1168300Y736314D01*
X1169293Y736977D01*
X1173463Y741147D01*
X1173463Y741147D01*
X1173775Y741614D01*
X1175276Y741908D01*
X1178041Y739143D01*
D02*
G37*
G36*
X821325Y741891D02*
X820790Y741091D01*
X820402Y739140D01*
X820790Y737189D01*
X821895Y735535D01*
X823327Y734579D01*
X823198Y733523D01*
X823115Y733309D01*
X815709D01*
X814538Y733076D01*
X813546Y732413D01*
X808332Y727199D01*
X807159Y727685D01*
Y741720D01*
X808600Y743161D01*
X820646D01*
X821325Y741891D01*
D02*
G37*
G36*
X1147160Y720590D02*
X1147160D01*
Y719590D01*
X1147160D01*
Y708590D01*
X1150101D01*
Y706120D01*
X1150101Y706120D01*
X1150334Y704949D01*
X1150997Y703957D01*
X1157347Y697607D01*
X1157347Y697607D01*
X1157681Y697384D01*
X1158495Y696165D01*
X1159642Y695399D01*
X1159257Y694129D01*
X1147887D01*
X1137519Y704497D01*
Y720281D01*
X1138789Y720975D01*
X1140460Y720642D01*
X1142411Y721030D01*
X1144065Y722135D01*
X1144663Y723031D01*
X1147160D01*
Y720590D01*
D02*
G37*
G36*
X1284020Y672920D02*
X1284721Y671941D01*
Y667269D01*
X1214190D01*
Y670210D01*
X1215248Y670722D01*
X1232900D01*
X1235144Y671168D01*
X1237046Y672439D01*
X1237346Y672889D01*
X1270567D01*
X1270567Y672889D01*
X1270725Y672920D01*
X1284020D01*
D02*
G37*
G36*
X620627Y704277D02*
X621619Y703614D01*
X622789Y703381D01*
X622790Y703381D01*
X746559D01*
X806380Y643561D01*
Y612925D01*
X806380Y612925D01*
X806612Y611754D01*
X807276Y610762D01*
X808723Y609315D01*
Y594609D01*
X796570Y582456D01*
X794082Y583487D01*
X791210Y583865D01*
X788338Y583487D01*
X785663Y582379D01*
X783365Y580615D01*
X781601Y578317D01*
X780493Y575642D01*
X780115Y572770D01*
X780493Y569898D01*
X781601Y567223D01*
X783365Y564925D01*
X785663Y563162D01*
X788151Y562131D01*
Y538977D01*
X781581Y532407D01*
X781522Y532452D01*
X778603Y533661D01*
X775470Y534074D01*
X772337Y533661D01*
X769418Y532452D01*
X766911Y530529D01*
X764988Y528022D01*
X763779Y525103D01*
X763410Y522305D01*
X762130D01*
X761761Y525103D01*
X760552Y528022D01*
X758628Y530529D01*
X756122Y532452D01*
X753203Y533661D01*
X753129Y533671D01*
Y563270D01*
X760070D01*
Y582270D01*
X745396D01*
X742929Y584737D01*
Y594747D01*
X742696Y595917D01*
X742033Y596910D01*
X715560Y623383D01*
X714567Y624046D01*
X713397Y624279D01*
X713397Y624279D01*
X615757D01*
X614529Y625507D01*
Y708579D01*
X615799Y709105D01*
X620627Y704277D01*
D02*
G37*
G36*
X732811Y591823D02*
Y584737D01*
X729426Y581352D01*
X728877Y581719D01*
X725170Y582456D01*
X721463Y581719D01*
X718321Y579619D01*
X716221Y576477D01*
X715484Y572770D01*
X716221Y569063D01*
X718321Y565921D01*
X721463Y563821D01*
X721861Y563742D01*
Y533704D01*
X721537Y533661D01*
X718618Y532452D01*
X716112Y530529D01*
X714188Y528022D01*
X712979Y525103D01*
X712610Y522305D01*
X711329D01*
X710961Y525103D01*
X709752Y528022D01*
X707829Y530529D01*
X705322Y532452D01*
X702579Y533588D01*
Y563643D01*
X703477Y563821D01*
X706619Y565921D01*
X708719Y569063D01*
X709456Y572770D01*
X708719Y576477D01*
X706619Y579619D01*
X703477Y581719D01*
X699770Y582456D01*
X696063Y581719D01*
X695514Y581352D01*
X692129Y584737D01*
Y601097D01*
X692129Y601097D01*
X691896Y602267D01*
X691233Y603260D01*
X691233Y603260D01*
X681505Y612988D01*
X681991Y614161D01*
X710473D01*
X732811Y591823D01*
D02*
G37*
G36*
X682011Y598173D02*
Y584737D01*
X678626Y581352D01*
X678077Y581719D01*
X674370Y582456D01*
X670663Y581719D01*
X667521Y579619D01*
X665421Y576477D01*
X664684Y572770D01*
X665421Y569063D01*
X667521Y565921D01*
X670663Y563821D01*
X671061Y563742D01*
Y533704D01*
X670737Y533661D01*
X667818Y532452D01*
X665312Y530529D01*
X663388Y528022D01*
X662179Y525103D01*
X661811Y522305D01*
X660529D01*
X660161Y525103D01*
X658952Y528022D01*
X657029Y530529D01*
X654522Y532452D01*
X651779Y533588D01*
Y563643D01*
X652677Y563821D01*
X655819Y565921D01*
X657919Y569063D01*
X658656Y572770D01*
X657919Y576477D01*
X655819Y579619D01*
X652677Y581719D01*
X648970Y582456D01*
X645263Y581719D01*
X644714Y581352D01*
X641329Y584737D01*
Y595477D01*
X641329Y595477D01*
X641096Y596647D01*
X640433Y597640D01*
X640433Y597640D01*
X633595Y604478D01*
X634081Y605651D01*
X674533D01*
X682011Y598173D01*
D02*
G37*
G36*
X604553Y598547D02*
X604553Y598547D01*
X605545Y597884D01*
X606716Y597651D01*
X626113D01*
X631211Y592553D01*
Y584737D01*
X627826Y581352D01*
X627277Y581719D01*
X623570Y582456D01*
X619863Y581719D01*
X616721Y579619D01*
X614621Y576477D01*
X613884Y572770D01*
X614621Y569063D01*
X616721Y565921D01*
X619863Y563821D01*
X620261Y563742D01*
Y533704D01*
X619937Y533661D01*
X617018Y532452D01*
X614511Y530529D01*
X612588Y528022D01*
X611379Y525103D01*
X611011Y522305D01*
X609729D01*
X609361Y525103D01*
X608152Y528022D01*
X606228Y530529D01*
X603722Y532452D01*
X600979Y533588D01*
Y563643D01*
X601877Y563821D01*
X605019Y565921D01*
X607119Y569063D01*
X607856Y572770D01*
X607119Y576477D01*
X605019Y579619D01*
X601877Y581719D01*
X598170Y582456D01*
X594463Y581719D01*
X593914Y581352D01*
X590529Y584737D01*
Y610912D01*
X591702Y611398D01*
X604553Y598547D01*
D02*
G37*
G36*
X813551Y589126D02*
Y583409D01*
X811062Y582379D01*
X808765Y580615D01*
X807001Y578317D01*
X805893Y575642D01*
X805515Y572770D01*
X805893Y569898D01*
X807001Y567223D01*
X808765Y564925D01*
X811062Y563162D01*
X813551Y562131D01*
Y538977D01*
X806981Y532407D01*
X806922Y532452D01*
X804003Y533661D01*
X800870Y534074D01*
X797737Y533661D01*
X794818Y532452D01*
X792311Y530529D01*
X790388Y528022D01*
X789179Y525103D01*
X788811Y522305D01*
X787530D01*
X787161Y525103D01*
X785952Y528022D01*
X785907Y528081D01*
X793373Y535547D01*
X794036Y536539D01*
X794269Y537710D01*
X794269Y537710D01*
Y562131D01*
X796758Y563162D01*
X799055Y564925D01*
X800818Y567223D01*
X801927Y569898D01*
X802305Y572770D01*
X801927Y575642D01*
X800896Y578130D01*
X812378Y589612D01*
X813551Y589126D01*
D02*
G37*
G36*
X526748Y832907D02*
X537441Y822213D01*
Y798777D01*
X537441Y798776D01*
X537674Y797606D01*
X538033Y797069D01*
Y767458D01*
X538033Y767458D01*
X538266Y766288D01*
X538929Y765295D01*
X567621Y736603D01*
Y710639D01*
X567621Y710638D01*
X567854Y709468D01*
X568517Y708475D01*
X580411Y696581D01*
Y584737D01*
X577026Y581352D01*
X576477Y581719D01*
X572770Y582456D01*
X569063Y581719D01*
X565921Y579619D01*
X563821Y576477D01*
X563084Y572770D01*
X563821Y569063D01*
X565921Y565921D01*
X569063Y563821D01*
X569461Y563742D01*
Y533704D01*
X569137Y533661D01*
X566218Y532452D01*
X563712Y530529D01*
X561788Y528022D01*
X560579Y525103D01*
X560166Y521970D01*
X560579Y518837D01*
X561788Y515918D01*
X563712Y513411D01*
X566218Y511488D01*
X569137Y510279D01*
X569461Y510236D01*
Y508304D01*
X569137Y508261D01*
X566218Y507052D01*
X563712Y505129D01*
X561788Y502622D01*
X560579Y499703D01*
X560166Y496570D01*
X560579Y493437D01*
X561788Y490518D01*
X563712Y488012D01*
X566218Y486088D01*
X569137Y484879D01*
X572270Y484467D01*
X575403Y484879D01*
X578322Y486088D01*
X580829Y488012D01*
X582752Y490518D01*
X583961Y493437D01*
X584329Y496236D01*
X585611D01*
X585979Y493437D01*
X587188Y490518D01*
X589112Y488012D01*
X591618Y486088D01*
X594537Y484879D01*
X597670Y484467D01*
X600803Y484879D01*
X603722Y486088D01*
X606228Y488012D01*
X608152Y490518D01*
X609361Y493437D01*
X609729Y496236D01*
X611011D01*
X611379Y493437D01*
X612588Y490518D01*
X614511Y488012D01*
X617018Y486088D01*
X619937Y484879D01*
X623070Y484467D01*
X626203Y484879D01*
X629122Y486088D01*
X631628Y488012D01*
X633552Y490518D01*
X634761Y493437D01*
X635130Y496236D01*
X636410D01*
X636779Y493437D01*
X637988Y490518D01*
X639911Y488012D01*
X642418Y486088D01*
X645337Y484879D01*
X648470Y484467D01*
X651603Y484879D01*
X654522Y486088D01*
X657029Y488012D01*
X658952Y490518D01*
X660161Y493437D01*
X660529Y496236D01*
X661811D01*
X662179Y493437D01*
X663388Y490518D01*
X665312Y488012D01*
X667818Y486088D01*
X670737Y484879D01*
X673870Y484467D01*
X677003Y484879D01*
X679922Y486088D01*
X682429Y488012D01*
X684352Y490518D01*
X685561Y493437D01*
X685929Y496236D01*
X687210D01*
X687579Y493437D01*
X688788Y490518D01*
X690712Y488012D01*
X693218Y486088D01*
X696137Y484879D01*
X699270Y484467D01*
X702403Y484879D01*
X705322Y486088D01*
X707829Y488012D01*
X709752Y490518D01*
X710961Y493437D01*
X711329Y496236D01*
X712610D01*
X712979Y493437D01*
X714188Y490518D01*
X716112Y488012D01*
X718618Y486088D01*
X721537Y484879D01*
X723670Y484598D01*
Y496570D01*
X725670D01*
Y484598D01*
X727803Y484879D01*
X730722Y486088D01*
X733229Y488012D01*
X735152Y490518D01*
X736361Y493437D01*
X736730Y496236D01*
X738010D01*
X738379Y493437D01*
X739588Y490518D01*
X741512Y488012D01*
X744018Y486088D01*
X746937Y484879D01*
X749070Y484598D01*
Y496570D01*
X751070D01*
Y484598D01*
X753203Y484879D01*
X756122Y486088D01*
X758628Y488012D01*
X760552Y490518D01*
X761761Y493437D01*
X762130Y496236D01*
X763410D01*
X763779Y493437D01*
X764988Y490518D01*
X766911Y488012D01*
X769418Y486088D01*
X772337Y484879D01*
X774470Y484598D01*
Y496570D01*
X776470D01*
Y484598D01*
X778603Y484879D01*
X781522Y486088D01*
X784028Y488012D01*
X785952Y490518D01*
X787161Y493437D01*
X787530Y496236D01*
X788811D01*
X789179Y493437D01*
X790388Y490518D01*
X792311Y488012D01*
X794818Y486088D01*
X797737Y484879D01*
X799870Y484598D01*
Y496570D01*
X800870D01*
Y497570D01*
X812842D01*
X812561Y499703D01*
X811352Y502622D01*
X809428Y505129D01*
X806922Y507052D01*
X804003Y508261D01*
X801205Y508630D01*
Y509911D01*
X804003Y510279D01*
X806922Y511488D01*
X809428Y513411D01*
X811352Y515918D01*
X812561Y518837D01*
X812974Y521970D01*
X812561Y525103D01*
X811352Y528022D01*
X811307Y528081D01*
X818773Y535547D01*
X819436Y536539D01*
X819669Y537710D01*
X819669Y537710D01*
Y562131D01*
X822158Y563162D01*
X824455Y564925D01*
X826218Y567223D01*
X827327Y569898D01*
X827705Y572770D01*
X827327Y575642D01*
X826218Y578317D01*
X824455Y580615D01*
X822158Y582379D01*
X819669Y583409D01*
Y589126D01*
X820842Y589612D01*
X832324Y578130D01*
X831293Y575642D01*
X830915Y572770D01*
X831293Y569898D01*
X832402Y567223D01*
X834165Y564925D01*
X836463Y563162D01*
X838951Y562131D01*
Y538477D01*
X832881Y532407D01*
X832822Y532452D01*
X829903Y533661D01*
X826770Y534074D01*
X823637Y533661D01*
X820718Y532452D01*
X818212Y530529D01*
X816288Y528022D01*
X815079Y525103D01*
X814666Y521970D01*
X815079Y518837D01*
X816288Y515918D01*
X818212Y513411D01*
X820718Y511488D01*
X823637Y510279D01*
X823711Y510269D01*
Y508271D01*
X823637Y508261D01*
X820718Y507052D01*
X818212Y505129D01*
X816288Y502622D01*
X815079Y499703D01*
X814666Y496570D01*
X815079Y493437D01*
X816288Y490518D01*
X818212Y488012D01*
X820718Y486088D01*
X823637Y484879D01*
X826770Y484467D01*
X829903Y484879D01*
X832822Y486088D01*
X835329Y488012D01*
X837252Y490518D01*
X838461Y493437D01*
X838829Y496236D01*
X840110D01*
X840479Y493437D01*
X841688Y490518D01*
X843612Y488012D01*
X846118Y486088D01*
X849037Y484879D01*
X852170Y484467D01*
X855303Y484879D01*
X858222Y486088D01*
X860729Y488012D01*
X862652Y490518D01*
X863861Y493437D01*
X864230Y496236D01*
X865510D01*
X865879Y493437D01*
X867088Y490518D01*
X869012Y488012D01*
X871518Y486088D01*
X874437Y484879D01*
X877570Y484467D01*
X880703Y484879D01*
X883622Y486088D01*
X886128Y488012D01*
X888052Y490518D01*
X889261Y493437D01*
X889630Y496236D01*
X890910D01*
X891279Y493437D01*
X892488Y490518D01*
X894411Y488012D01*
X896918Y486088D01*
X899837Y484879D01*
X902970Y484467D01*
X906103Y484879D01*
X909022Y486088D01*
X911528Y488012D01*
X913452Y490518D01*
X914661Y493437D01*
X915030Y496236D01*
X916311D01*
X916679Y493437D01*
X917888Y490518D01*
X919811Y488012D01*
X922318Y486088D01*
X925237Y484879D01*
X927370Y484598D01*
Y496570D01*
X929370D01*
Y484598D01*
X931503Y484879D01*
X934422Y486088D01*
X936928Y488012D01*
X938852Y490518D01*
X940061Y493437D01*
X940430Y496236D01*
X941711D01*
X942079Y493437D01*
X943288Y490518D01*
X945211Y488012D01*
X947718Y486088D01*
X950637Y484879D01*
X952770Y484598D01*
Y496570D01*
X954770D01*
Y484598D01*
X956903Y484879D01*
X959822Y486088D01*
X962328Y488012D01*
X964252Y490518D01*
X965461Y493437D01*
X965829Y496236D01*
X967111D01*
X967479Y493437D01*
X968688Y490518D01*
X970611Y488012D01*
X973118Y486088D01*
X976037Y484879D01*
X979170Y484467D01*
X982303Y484879D01*
X985222Y486088D01*
X987729Y488012D01*
X989652Y490518D01*
X990861Y493437D01*
X991229Y496236D01*
X992511D01*
X992879Y493437D01*
X994088Y490518D01*
X996012Y488012D01*
X998518Y486088D01*
X1001437Y484879D01*
X1004570Y484467D01*
X1007703Y484879D01*
X1010622Y486088D01*
X1013129Y488012D01*
X1015052Y490518D01*
X1016261Y493437D01*
X1016629Y496236D01*
X1017911D01*
X1018279Y493437D01*
X1019488Y490518D01*
X1021412Y488012D01*
X1023918Y486088D01*
X1026837Y484879D01*
X1029559Y484521D01*
X1030355Y483601D01*
X1030588Y482430D01*
X1031251Y481438D01*
X1033522Y479167D01*
X1033522Y479167D01*
X1034514Y478504D01*
X1035685Y478271D01*
X1040130D01*
X1040130Y478271D01*
X1041301Y478504D01*
X1042293Y479167D01*
X1042702Y479576D01*
X1043689Y478767D01*
X1042693Y477277D01*
X1042306Y475327D01*
X1042693Y473376D01*
X1043799Y471722D01*
X1045452Y470617D01*
X1047403Y470229D01*
X1049354Y470617D01*
X1051008Y471722D01*
X1052113Y473376D01*
X1052501Y475327D01*
X1052113Y477277D01*
X1051008Y478931D01*
X1050462Y479296D01*
Y481680D01*
X1088041Y519259D01*
X1088697Y519141D01*
X1089311Y518793D01*
Y467129D01*
X562542Y467129D01*
X558605Y467572D01*
X555028Y468824D01*
X551819Y470840D01*
X549140Y473519D01*
X547124Y476728D01*
X545872Y480305D01*
X545429Y484242D01*
X545429Y679070D01*
X545429Y679070D01*
X545196Y680240D01*
X544533Y681233D01*
X525429Y700337D01*
X525429Y832595D01*
X526699Y832980D01*
X526748Y832907D01*
D02*
G37*
G36*
X1009397Y578857D02*
X1008810Y578270D01*
Y567270D01*
X1014310Y561770D01*
X1016751D01*
Y558797D01*
X1002407Y544453D01*
X1001744Y543461D01*
X1001511Y542290D01*
X1001511Y542290D01*
Y533671D01*
X1001437Y533661D01*
X998518Y532452D01*
X996012Y530529D01*
X994088Y528022D01*
X992879Y525103D01*
X992511Y522305D01*
X991229D01*
X990861Y525103D01*
X989652Y528022D01*
X987729Y530529D01*
X985222Y532452D01*
X983703Y533081D01*
X983405Y534579D01*
X996573Y547747D01*
X997236Y548740D01*
X997469Y549910D01*
X997469Y549910D01*
Y562131D01*
X999958Y563162D01*
X1002255Y564925D01*
X1004018Y567223D01*
X1005127Y569898D01*
X1005505Y572770D01*
X1005127Y575642D01*
X1004096Y578130D01*
X1005463Y579497D01*
X1005463Y579497D01*
X1006063Y580395D01*
X1006208Y580507D01*
X1007478Y580776D01*
X1009397Y578857D01*
D02*
G37*
G36*
X908524Y578130D02*
X907493Y575642D01*
X907115Y572770D01*
X907493Y569898D01*
X908602Y567223D01*
X910365Y564925D01*
X912663Y563162D01*
X915151Y562131D01*
Y556257D01*
X900807Y541913D01*
X900144Y540920D01*
X899911Y539750D01*
X899911Y539750D01*
Y533671D01*
X899837Y533661D01*
X896918Y532452D01*
X894411Y530529D01*
X892488Y528022D01*
X891279Y525103D01*
X890910Y522305D01*
X889630D01*
X889261Y525103D01*
X888052Y528022D01*
X886128Y530529D01*
X883622Y532452D01*
X880703Y533661D01*
X880629Y533671D01*
Y541023D01*
X894973Y555367D01*
X894973Y555367D01*
X895636Y556359D01*
X895869Y557530D01*
X895869Y557530D01*
Y562131D01*
X898357Y563162D01*
X900655Y564925D01*
X902419Y567223D01*
X903527Y569898D01*
X903905Y572770D01*
X903527Y575642D01*
X902419Y578317D01*
X900655Y580615D01*
X898357Y582379D01*
X895869Y583409D01*
Y589126D01*
X897042Y589612D01*
X908524Y578130D01*
D02*
G37*
G36*
X691188Y577026D02*
X690821Y576477D01*
X690084Y572770D01*
X690821Y569063D01*
X692921Y565921D01*
X696063Y563821D01*
X696461Y563742D01*
Y533704D01*
X696137Y533661D01*
X693218Y532452D01*
X690712Y530529D01*
X688788Y528022D01*
X687579Y525103D01*
X687210Y522305D01*
X685929D01*
X685561Y525103D01*
X684352Y528022D01*
X682429Y530529D01*
X679922Y532452D01*
X677179Y533588D01*
Y563643D01*
X678077Y563821D01*
X681219Y565921D01*
X683319Y569063D01*
X684056Y572770D01*
X683319Y576477D01*
X682952Y577026D01*
X687070Y581144D01*
X691188Y577026D01*
D02*
G37*
G36*
X640388D02*
X640021Y576477D01*
X639284Y572770D01*
X640021Y569063D01*
X642121Y565921D01*
X645263Y563821D01*
X645661Y563742D01*
Y533704D01*
X645337Y533661D01*
X642418Y532452D01*
X639911Y530529D01*
X637988Y528022D01*
X636779Y525103D01*
X636410Y522305D01*
X635130D01*
X634761Y525103D01*
X633552Y528022D01*
X631628Y530529D01*
X629122Y532452D01*
X626379Y533588D01*
Y563643D01*
X627277Y563821D01*
X630419Y565921D01*
X632519Y569063D01*
X633256Y572770D01*
X632519Y576477D01*
X632152Y577026D01*
X636270Y581144D01*
X640388Y577026D01*
D02*
G37*
G36*
X889751Y589126D02*
Y583409D01*
X887262Y582379D01*
X884965Y580615D01*
X883202Y578317D01*
X882093Y575642D01*
X881715Y572770D01*
X882093Y569898D01*
X883202Y567223D01*
X884965Y564925D01*
X887262Y563162D01*
X889751Y562131D01*
Y558797D01*
X875407Y544453D01*
X874744Y543461D01*
X874511Y542290D01*
X874511Y542290D01*
Y533671D01*
X874437Y533661D01*
X871518Y532452D01*
X869012Y530529D01*
X867088Y528022D01*
X865879Y525103D01*
X865510Y522304D01*
X864230D01*
X863861Y525103D01*
X862652Y528022D01*
X860729Y530529D01*
X858222Y532452D01*
X855303Y533661D01*
X855229Y533671D01*
Y537213D01*
X869573Y551557D01*
X870236Y552550D01*
X870469Y553720D01*
Y562131D01*
X872958Y563162D01*
X875255Y564925D01*
X877019Y567223D01*
X878127Y569898D01*
X878505Y572770D01*
X878127Y575642D01*
X877096Y578130D01*
X888578Y589612D01*
X889751Y589126D01*
D02*
G37*
G36*
X741070Y577944D02*
Y563270D01*
X747011D01*
Y533671D01*
X746937Y533661D01*
X744018Y532452D01*
X741512Y530529D01*
X739588Y528022D01*
X738379Y525103D01*
X738010Y522304D01*
X736730D01*
X736361Y525103D01*
X735152Y528022D01*
X733229Y530529D01*
X730722Y532452D01*
X727979Y533588D01*
Y563643D01*
X728877Y563821D01*
X732019Y565921D01*
X734119Y569063D01*
X734856Y572770D01*
X734119Y576477D01*
X733752Y577026D01*
X737870Y581144D01*
X741070Y577944D01*
D02*
G37*
G36*
X589588Y577026D02*
X589221Y576477D01*
X588484Y572770D01*
X589221Y569063D01*
X591321Y565921D01*
X594463Y563821D01*
X594861Y563742D01*
Y533704D01*
X594537Y533661D01*
X591618Y532452D01*
X589112Y530529D01*
X587188Y528022D01*
X585979Y525103D01*
X585611Y522304D01*
X584329D01*
X583961Y525103D01*
X582752Y528022D01*
X580829Y530529D01*
X578322Y532452D01*
X575579Y533588D01*
Y563643D01*
X576477Y563821D01*
X579619Y565921D01*
X581719Y569063D01*
X582456Y572770D01*
X581719Y576477D01*
X581352Y577026D01*
X585470Y581144D01*
X589588Y577026D01*
D02*
G37*
G36*
X916679Y518837D02*
X917888Y515918D01*
X919811Y513411D01*
X922318Y511488D01*
X925237Y510279D01*
X928036Y509911D01*
Y508630D01*
X925237Y508261D01*
X922318Y507052D01*
X919811Y505129D01*
X917888Y502622D01*
X916679Y499703D01*
X916311Y496905D01*
X915030D01*
X914661Y499703D01*
X913452Y502622D01*
X911528Y505129D01*
X909022Y507052D01*
X906103Y508261D01*
X906029Y508271D01*
Y510269D01*
X906103Y510279D01*
X909022Y511488D01*
X911528Y513411D01*
X913452Y515918D01*
X914661Y518837D01*
X915030Y521636D01*
X916311D01*
X916679Y518837D01*
D02*
G37*
G36*
X738379D02*
X739588Y515918D01*
X741512Y513411D01*
X744018Y511488D01*
X746937Y510279D01*
X749735Y509911D01*
Y508630D01*
X746937Y508261D01*
X744018Y507052D01*
X741512Y505129D01*
X739588Y502622D01*
X738379Y499703D01*
X738010Y496905D01*
X736730D01*
X736361Y499703D01*
X735152Y502622D01*
X733229Y505129D01*
X730722Y507052D01*
X727803Y508261D01*
X725005Y508630D01*
Y509911D01*
X727803Y510279D01*
X730722Y511488D01*
X733229Y513411D01*
X735152Y515918D01*
X736361Y518837D01*
X736730Y521636D01*
X738010D01*
X738379Y518837D01*
D02*
G37*
G36*
X636779D02*
X637988Y515918D01*
X639911Y513411D01*
X642418Y511488D01*
X645337Y510279D01*
X645661Y510236D01*
Y508304D01*
X645337Y508261D01*
X642418Y507052D01*
X639911Y505129D01*
X637988Y502622D01*
X636779Y499703D01*
X636410Y496905D01*
X635130D01*
X634761Y499703D01*
X633552Y502622D01*
X631628Y505129D01*
X629122Y507052D01*
X626379Y508188D01*
Y510352D01*
X629122Y511488D01*
X631628Y513411D01*
X633552Y515918D01*
X634761Y518837D01*
X635130Y521636D01*
X636410D01*
X636779Y518837D01*
D02*
G37*
G36*
X865879D02*
X867088Y515918D01*
X869012Y513411D01*
X871518Y511488D01*
X874437Y510279D01*
X874511Y510269D01*
Y508271D01*
X874437Y508261D01*
X871518Y507052D01*
X869012Y505129D01*
X867088Y502622D01*
X865879Y499703D01*
X865510Y496905D01*
X864230D01*
X863861Y499703D01*
X862652Y502622D01*
X860729Y505129D01*
X858222Y507052D01*
X855303Y508261D01*
X855229Y508271D01*
Y510269D01*
X855303Y510279D01*
X858222Y511488D01*
X860729Y513411D01*
X862652Y515918D01*
X863861Y518837D01*
X864230Y521636D01*
X865510D01*
X865879Y518837D01*
D02*
G37*
G36*
X585979D02*
X587188Y515918D01*
X589112Y513411D01*
X591618Y511488D01*
X594537Y510279D01*
X594861Y510236D01*
Y508304D01*
X594537Y508261D01*
X591618Y507052D01*
X589112Y505129D01*
X587188Y502622D01*
X585979Y499703D01*
X585611Y496905D01*
X584329D01*
X583961Y499703D01*
X582752Y502622D01*
X580829Y505129D01*
X578322Y507052D01*
X575579Y508188D01*
Y510352D01*
X578322Y511488D01*
X580829Y513411D01*
X582752Y515918D01*
X583961Y518837D01*
X584329Y521636D01*
X585611D01*
X585979Y518837D01*
D02*
G37*
G36*
X840479D02*
X841688Y515918D01*
X843612Y513411D01*
X846118Y511488D01*
X849037Y510279D01*
X849111Y510269D01*
Y508271D01*
X849037Y508261D01*
X846118Y507052D01*
X843612Y505129D01*
X841688Y502622D01*
X840479Y499703D01*
X840110Y496905D01*
X838829D01*
X838461Y499703D01*
X837252Y502622D01*
X835329Y505129D01*
X832822Y507052D01*
X829903Y508261D01*
X829829Y508271D01*
Y510269D01*
X829903Y510279D01*
X832822Y511488D01*
X835329Y513411D01*
X837252Y515918D01*
X838461Y518837D01*
X838829Y521636D01*
X840110D01*
X840479Y518837D01*
D02*
G37*
G36*
X687579D02*
X688788Y515918D01*
X690712Y513411D01*
X693218Y511488D01*
X696137Y510279D01*
X696461Y510236D01*
Y508304D01*
X696137Y508261D01*
X693218Y507052D01*
X690712Y505129D01*
X688788Y502622D01*
X687579Y499703D01*
X687210Y496905D01*
X685929D01*
X685561Y499703D01*
X684352Y502622D01*
X682429Y505129D01*
X679922Y507052D01*
X677179Y508188D01*
Y510352D01*
X679922Y511488D01*
X682429Y513411D01*
X684352Y515918D01*
X685561Y518837D01*
X685929Y521636D01*
X687210D01*
X687579Y518837D01*
D02*
G37*
G36*
X662179D02*
X663388Y515918D01*
X665312Y513411D01*
X667818Y511488D01*
X670737Y510279D01*
X671061Y510236D01*
Y508304D01*
X670737Y508261D01*
X667818Y507052D01*
X665312Y505129D01*
X663388Y502622D01*
X662179Y499703D01*
X661811Y496905D01*
X660529D01*
X660161Y499703D01*
X658952Y502622D01*
X657029Y505129D01*
X654522Y507052D01*
X651779Y508188D01*
Y510352D01*
X654522Y511488D01*
X657029Y513411D01*
X658952Y515918D01*
X660161Y518837D01*
X660529Y521636D01*
X661811D01*
X662179Y518837D01*
D02*
G37*
G36*
X967479D02*
X968688Y515918D01*
X970611Y513411D01*
X973118Y511488D01*
X976037Y510279D01*
X976111Y510269D01*
Y508271D01*
X976037Y508261D01*
X973118Y507052D01*
X970611Y505129D01*
X968688Y502622D01*
X967479Y499703D01*
X967111Y496905D01*
X965829D01*
X965461Y499703D01*
X964252Y502622D01*
X962328Y505129D01*
X959822Y507052D01*
X956903Y508261D01*
X954105Y508630D01*
Y509911D01*
X956903Y510279D01*
X959822Y511488D01*
X962328Y513411D01*
X964252Y515918D01*
X965461Y518837D01*
X965829Y521636D01*
X967111D01*
X967479Y518837D01*
D02*
G37*
G36*
X942079D02*
X943288Y515918D01*
X945211Y513411D01*
X947718Y511488D01*
X950637Y510279D01*
X953436Y509911D01*
Y508630D01*
X950637Y508261D01*
X947718Y507052D01*
X945211Y505129D01*
X943288Y502622D01*
X942079Y499703D01*
X941711Y496905D01*
X940430D01*
X940061Y499703D01*
X938852Y502622D01*
X936928Y505129D01*
X934422Y507052D01*
X931503Y508261D01*
X928705Y508630D01*
Y509911D01*
X931503Y510279D01*
X934422Y511488D01*
X936928Y513411D01*
X938852Y515918D01*
X940061Y518837D01*
X940430Y521636D01*
X941711D01*
X942079Y518837D01*
D02*
G37*
G36*
X789179D02*
X790388Y515918D01*
X792311Y513411D01*
X794818Y511488D01*
X797737Y510279D01*
X800536Y509911D01*
Y508630D01*
X797737Y508261D01*
X794818Y507052D01*
X792311Y505129D01*
X790388Y502622D01*
X789179Y499703D01*
X788811Y496905D01*
X787530D01*
X787161Y499703D01*
X785952Y502622D01*
X784028Y505129D01*
X781522Y507052D01*
X778603Y508261D01*
X775805Y508630D01*
Y509911D01*
X778603Y510279D01*
X781522Y511488D01*
X784028Y513411D01*
X785952Y515918D01*
X787161Y518837D01*
X787530Y521636D01*
X788811D01*
X789179Y518837D01*
D02*
G37*
G36*
X763779D02*
X764988Y515918D01*
X766911Y513411D01*
X769418Y511488D01*
X772337Y510279D01*
X775135Y509911D01*
Y508630D01*
X772337Y508261D01*
X769418Y507052D01*
X766911Y505129D01*
X764988Y502622D01*
X763779Y499703D01*
X763410Y496905D01*
X762130D01*
X761761Y499703D01*
X760552Y502622D01*
X758628Y505129D01*
X756122Y507052D01*
X753203Y508261D01*
X750405Y508630D01*
Y509911D01*
X753203Y510279D01*
X756122Y511488D01*
X758628Y513411D01*
X760552Y515918D01*
X761761Y518837D01*
X762130Y521636D01*
X763410D01*
X763779Y518837D01*
D02*
G37*
G36*
X992879D02*
X994088Y515918D01*
X996012Y513411D01*
X998518Y511488D01*
X1001437Y510279D01*
X1001511Y510269D01*
Y508271D01*
X1001437Y508261D01*
X998518Y507052D01*
X996012Y505129D01*
X994088Y502622D01*
X992879Y499703D01*
X992511Y496904D01*
X991229D01*
X990861Y499703D01*
X989652Y502622D01*
X987729Y505129D01*
X985222Y507052D01*
X982303Y508261D01*
X982229Y508271D01*
Y510269D01*
X982303Y510279D01*
X985222Y511488D01*
X987729Y513411D01*
X989652Y515918D01*
X990861Y518837D01*
X991229Y521636D01*
X992511D01*
X992879Y518837D01*
D02*
G37*
G36*
X712979D02*
X714188Y515918D01*
X716112Y513411D01*
X718618Y511488D01*
X721537Y510279D01*
X724335Y509911D01*
Y508630D01*
X721537Y508261D01*
X718618Y507052D01*
X716112Y505129D01*
X714188Y502622D01*
X712979Y499703D01*
X712610Y496904D01*
X711329D01*
X710961Y499703D01*
X709752Y502622D01*
X707829Y505129D01*
X705322Y507052D01*
X702579Y508188D01*
Y510352D01*
X705322Y511488D01*
X707829Y513411D01*
X709752Y515918D01*
X710961Y518837D01*
X711329Y521636D01*
X712610D01*
X712979Y518837D01*
D02*
G37*
G36*
X891279D02*
X892488Y515918D01*
X894411Y513411D01*
X896918Y511488D01*
X899837Y510279D01*
X899911Y510269D01*
Y508271D01*
X899837Y508261D01*
X896918Y507052D01*
X894411Y505129D01*
X892488Y502622D01*
X891279Y499703D01*
X890910Y496904D01*
X889630D01*
X889261Y499703D01*
X888052Y502622D01*
X886128Y505129D01*
X883622Y507052D01*
X880703Y508261D01*
X880629Y508271D01*
Y510269D01*
X880703Y510279D01*
X883622Y511488D01*
X886128Y513411D01*
X888052Y515918D01*
X889261Y518837D01*
X889630Y521636D01*
X890910D01*
X891279Y518837D01*
D02*
G37*
G36*
X611379D02*
X612588Y515918D01*
X614511Y513411D01*
X617018Y511488D01*
X619937Y510279D01*
X620261Y510236D01*
Y508304D01*
X619937Y508261D01*
X617018Y507052D01*
X614511Y505129D01*
X612588Y502622D01*
X611379Y499703D01*
X611011Y496904D01*
X609729D01*
X609361Y499703D01*
X608152Y502622D01*
X606228Y505129D01*
X603722Y507052D01*
X600979Y508188D01*
Y510352D01*
X603722Y511488D01*
X606228Y513411D01*
X608152Y515918D01*
X609361Y518837D01*
X609729Y521636D01*
X611011D01*
X611379Y518837D01*
D02*
G37*
%LPC*%
G36*
X1318870Y1141070D02*
X1310370D01*
Y1132570D01*
X1318870D01*
Y1141070D01*
D02*
G37*
G36*
X1308370D02*
X1299870D01*
Y1132570D01*
X1308370D01*
Y1141070D01*
D02*
G37*
G36*
X801870Y1143542D02*
Y1132570D01*
X812842D01*
X812561Y1134703D01*
X811352Y1137622D01*
X809428Y1140128D01*
X806922Y1142052D01*
X804003Y1143261D01*
X801870Y1143542D01*
D02*
G37*
G36*
X1284970Y1141057D02*
Y1132570D01*
X1293457D01*
X1292919Y1135277D01*
X1290819Y1138419D01*
X1287677Y1140519D01*
X1284970Y1141057D01*
D02*
G37*
G36*
X1282970D02*
X1280263Y1140519D01*
X1277121Y1138419D01*
X1275021Y1135277D01*
X1274483Y1132570D01*
X1282970D01*
Y1141057D01*
D02*
G37*
G36*
X898577Y1159023D02*
X856563D01*
X854320Y1158576D01*
X852418Y1157306D01*
X848025Y1152912D01*
X846754Y1151010D01*
X846307Y1148767D01*
Y1142130D01*
X846118Y1142052D01*
X843612Y1140128D01*
X841688Y1137622D01*
X840479Y1134703D01*
X840185Y1132475D01*
X840110Y1131904D01*
X838830D01*
X838755Y1132475D01*
X838461Y1134703D01*
X837252Y1137622D01*
X835329Y1140128D01*
X832822Y1142052D01*
X829903Y1143261D01*
X826770Y1143674D01*
X823637Y1143261D01*
X820718Y1142052D01*
X818212Y1140128D01*
X816288Y1137622D01*
X815079Y1134703D01*
X814666Y1131570D01*
X815079Y1128437D01*
X816288Y1125518D01*
X818212Y1123011D01*
X820718Y1121088D01*
X820907Y1121010D01*
Y1116730D01*
X820718Y1116652D01*
X818212Y1114728D01*
X816288Y1112222D01*
X815079Y1109303D01*
X814666Y1106170D01*
X815079Y1103037D01*
X816288Y1100118D01*
X818212Y1097611D01*
X820718Y1095688D01*
X820907Y1095610D01*
Y1062878D01*
X819921Y1062219D01*
X817821Y1059077D01*
X817084Y1055370D01*
X817821Y1051663D01*
X819921Y1048521D01*
X823063Y1046421D01*
X826770Y1045684D01*
X830477Y1046421D01*
X833619Y1048521D01*
X835719Y1051663D01*
X836456Y1055370D01*
X835719Y1059077D01*
X833619Y1062219D01*
X832633Y1062878D01*
Y1095610D01*
X832822Y1095688D01*
X835329Y1097611D01*
X837252Y1100118D01*
X838461Y1103037D01*
X838755Y1105266D01*
X838830Y1105835D01*
X840110D01*
X840185Y1105266D01*
X840479Y1103037D01*
X841688Y1100118D01*
X843612Y1097611D01*
X846118Y1095688D01*
X846307Y1095610D01*
Y1062878D01*
X845321Y1062219D01*
X843221Y1059077D01*
X842484Y1055370D01*
X843221Y1051663D01*
X845321Y1048521D01*
X848463Y1046421D01*
X852170Y1045684D01*
X855877Y1046421D01*
X859019Y1048521D01*
X861119Y1051663D01*
X861856Y1055370D01*
X861119Y1059077D01*
X859019Y1062219D01*
X858033Y1062878D01*
Y1095610D01*
X858222Y1095688D01*
X860729Y1097611D01*
X862652Y1100118D01*
X863861Y1103037D01*
X864155Y1105266D01*
X864230Y1105836D01*
X865344D01*
X865551Y1105531D01*
X865585Y1105266D01*
X865879Y1103037D01*
X867088Y1100118D01*
X869012Y1097611D01*
X871518Y1095688D01*
X874437Y1094479D01*
X874511Y1094469D01*
Y1064448D01*
X873863Y1064319D01*
X870721Y1062219D01*
X868621Y1059077D01*
X867884Y1055370D01*
X868621Y1051663D01*
X870721Y1048521D01*
X873863Y1046421D01*
X877570Y1045684D01*
X881277Y1046421D01*
X884419Y1048521D01*
X886519Y1051663D01*
X887256Y1055370D01*
X886519Y1059077D01*
X884419Y1062219D01*
X881277Y1064319D01*
X880629Y1064448D01*
Y1094469D01*
X880703Y1094479D01*
X883622Y1095688D01*
X886128Y1097611D01*
X888052Y1100118D01*
X889261Y1103037D01*
X889555Y1105266D01*
X889630Y1105835D01*
X890910D01*
X890985Y1105266D01*
X891279Y1103037D01*
X892488Y1100118D01*
X894411Y1097611D01*
X896918Y1095688D01*
X897107Y1095610D01*
Y1062878D01*
X896121Y1062219D01*
X894021Y1059077D01*
X893284Y1055370D01*
X894021Y1051663D01*
X896121Y1048521D01*
X899263Y1046421D01*
X902970Y1045684D01*
X906677Y1046421D01*
X909819Y1048521D01*
X911919Y1051663D01*
X912656Y1055370D01*
X911919Y1059077D01*
X909819Y1062219D01*
X908833Y1062878D01*
Y1095610D01*
X909022Y1095688D01*
X911528Y1097611D01*
X913452Y1100118D01*
X914661Y1103037D01*
X914955Y1105266D01*
X915030Y1105835D01*
X916310D01*
X916385Y1105266D01*
X916679Y1103037D01*
X917888Y1100118D01*
X919811Y1097611D01*
X922318Y1095688D01*
X925237Y1094479D01*
X928370Y1094066D01*
X931503Y1094479D01*
X934422Y1095688D01*
X936928Y1097611D01*
X938852Y1100118D01*
X940061Y1103037D01*
X940355Y1105266D01*
X940430Y1105835D01*
X941710D01*
X941786Y1105266D01*
X942079Y1103037D01*
X943288Y1100118D01*
X945211Y1097611D01*
X947718Y1095688D01*
X950637Y1094479D01*
X953770Y1094066D01*
X956903Y1094479D01*
X959822Y1095688D01*
X962328Y1097611D01*
X964252Y1100118D01*
X965461Y1103037D01*
X965754Y1105265D01*
X965830Y1105836D01*
X967110D01*
X967186Y1105266D01*
X967479Y1103037D01*
X968688Y1100118D01*
X970611Y1097611D01*
X973118Y1095688D01*
X976037Y1094479D01*
X979170Y1094066D01*
X982303Y1094479D01*
X985222Y1095688D01*
X987729Y1097611D01*
X989652Y1100118D01*
X990861Y1103037D01*
X991154Y1105266D01*
X991230Y1105835D01*
X992344D01*
X992551Y1105531D01*
X992586Y1105266D01*
X992879Y1103037D01*
X994088Y1100118D01*
X996012Y1097611D01*
X998518Y1095688D01*
X1001437Y1094479D01*
X1004570Y1094066D01*
X1007703Y1094479D01*
X1010622Y1095688D01*
X1013129Y1097611D01*
X1015052Y1100118D01*
X1016261Y1103037D01*
X1016554Y1105266D01*
X1016630Y1105835D01*
X1017910D01*
X1017986Y1105266D01*
X1018279Y1103037D01*
X1019488Y1100118D01*
X1021412Y1097611D01*
X1023918Y1095688D01*
X1026837Y1094479D01*
X1029970Y1094066D01*
X1033103Y1094479D01*
X1036022Y1095688D01*
X1038529Y1097611D01*
X1040452Y1100118D01*
X1041661Y1103037D01*
X1042074Y1106170D01*
X1041661Y1109303D01*
X1040452Y1112222D01*
X1038529Y1114728D01*
X1036022Y1116652D01*
X1033103Y1117861D01*
X1029970Y1118274D01*
X1026837Y1117861D01*
X1023918Y1116652D01*
X1021412Y1114728D01*
X1019488Y1112222D01*
X1018279Y1109303D01*
X1017986Y1107074D01*
X1017910Y1106505D01*
X1016630D01*
X1016554Y1107074D01*
X1016261Y1109303D01*
X1015052Y1112222D01*
X1013129Y1114728D01*
X1010622Y1116652D01*
X1007703Y1117861D01*
X1005474Y1118155D01*
X1004904Y1118230D01*
Y1119510D01*
X1005474Y1119585D01*
X1007703Y1119879D01*
X1010622Y1121088D01*
X1013129Y1123011D01*
X1015052Y1125518D01*
X1016261Y1128437D01*
X1016674Y1131570D01*
X1016261Y1134703D01*
X1015052Y1137622D01*
X1013129Y1140128D01*
X1010622Y1142052D01*
X1007703Y1143261D01*
X1004570Y1143674D01*
X1001437Y1143261D01*
X998518Y1142052D01*
X996012Y1140128D01*
X994088Y1137622D01*
X992879Y1134703D01*
X992586Y1132475D01*
X992510Y1131904D01*
X991229D01*
X991154Y1132475D01*
X990861Y1134703D01*
X989652Y1137622D01*
X987729Y1140128D01*
X985222Y1142052D01*
X982303Y1143261D01*
X979170Y1143674D01*
X976037Y1143261D01*
X973118Y1142052D01*
X970611Y1140128D01*
X968688Y1137622D01*
X967479Y1134703D01*
X967186Y1132474D01*
X967110Y1131905D01*
X965829D01*
X965754Y1132474D01*
X965461Y1134703D01*
X964252Y1137622D01*
X962328Y1140128D01*
X959822Y1142052D01*
X956903Y1143261D01*
X953770Y1143674D01*
X950637Y1143261D01*
X947718Y1142052D01*
X945211Y1140128D01*
X943288Y1137622D01*
X942079Y1134703D01*
X941786Y1132474D01*
X941710Y1131905D01*
X940430D01*
X940355Y1132474D01*
X940061Y1134703D01*
X938852Y1137622D01*
X936928Y1140128D01*
X934422Y1142052D01*
X931503Y1143261D01*
X928370Y1143674D01*
X925237Y1143261D01*
X922318Y1142052D01*
X919811Y1140128D01*
X917888Y1137622D01*
X916679Y1134703D01*
X916385Y1132474D01*
X916310Y1131905D01*
X915030D01*
X914955Y1132474D01*
X914661Y1134703D01*
X913452Y1137622D01*
X911528Y1140128D01*
X909022Y1142052D01*
X908833Y1142130D01*
Y1148767D01*
X908386Y1151010D01*
X907115Y1152912D01*
X902722Y1157306D01*
X900820Y1158576D01*
X898577Y1159023D01*
D02*
G37*
G36*
X1282970Y1130570D02*
X1274483D01*
X1275021Y1127863D01*
X1277121Y1124721D01*
X1280263Y1122621D01*
X1282970Y1122083D01*
Y1130570D01*
D02*
G37*
G36*
X1293457D02*
X1284970D01*
Y1122083D01*
X1287677Y1122621D01*
X1290819Y1124721D01*
X1292919Y1127863D01*
X1293457Y1130570D01*
D02*
G37*
G36*
X1318870Y1130570D02*
X1310370D01*
Y1122070D01*
X1318870D01*
Y1130570D01*
D02*
G37*
G36*
X1308370D02*
X1299870D01*
Y1122070D01*
X1308370D01*
Y1130570D01*
D02*
G37*
G36*
X1041970Y1143570D02*
X1017970D01*
Y1119570D01*
X1041970D01*
Y1143570D01*
D02*
G37*
G36*
X812842Y1105170D02*
X801870D01*
Y1094198D01*
X804003Y1094479D01*
X806922Y1095688D01*
X809428Y1097611D01*
X811352Y1100118D01*
X812561Y1103037D01*
X812842Y1105170D01*
D02*
G37*
G36*
X1208770Y1090257D02*
Y1081770D01*
X1217257D01*
X1216719Y1084477D01*
X1214619Y1087619D01*
X1211477Y1089719D01*
X1208770Y1090257D01*
D02*
G37*
G36*
X1217257Y1079770D02*
X1208770D01*
Y1071283D01*
X1211477Y1071821D01*
X1214619Y1073921D01*
X1216719Y1077063D01*
X1217257Y1079770D01*
D02*
G37*
G36*
X1233170Y1090456D02*
X1229463Y1089719D01*
X1226321Y1087619D01*
X1224221Y1084477D01*
X1223484Y1080770D01*
X1224221Y1077063D01*
X1226321Y1073921D01*
X1229463Y1071821D01*
X1233170Y1071084D01*
X1236877Y1071821D01*
X1240019Y1073921D01*
X1242119Y1077063D01*
X1242856Y1080770D01*
X1242119Y1084477D01*
X1240019Y1087619D01*
X1236877Y1089719D01*
X1233170Y1090456D01*
D02*
G37*
G36*
X1131570D02*
X1127863Y1089719D01*
X1124721Y1087619D01*
X1122621Y1084477D01*
X1121884Y1080770D01*
X1122621Y1077063D01*
X1124721Y1073921D01*
X1127863Y1071821D01*
X1131570Y1071084D01*
X1135277Y1071821D01*
X1138419Y1073921D01*
X1140519Y1077063D01*
X1141256Y1080770D01*
X1140519Y1084477D01*
X1138419Y1087619D01*
X1135277Y1089719D01*
X1131570Y1090456D01*
D02*
G37*
G36*
X802370Y1064857D02*
Y1056370D01*
X810857D01*
X810319Y1059077D01*
X808219Y1062219D01*
X805077Y1064319D01*
X802370Y1064857D01*
D02*
G37*
G36*
X776970D02*
Y1056370D01*
X785457D01*
X784919Y1059077D01*
X782819Y1062219D01*
X779677Y1064319D01*
X776970Y1064857D01*
D02*
G37*
G36*
X800370D02*
X797663Y1064319D01*
X794521Y1062219D01*
X792421Y1059077D01*
X791883Y1056370D01*
X800370D01*
Y1064857D01*
D02*
G37*
G36*
X774970D02*
X772263Y1064319D01*
X769121Y1062219D01*
X767021Y1059077D01*
X766483Y1056370D01*
X774970D01*
Y1064857D01*
D02*
G37*
G36*
X810857Y1054370D02*
X802370D01*
Y1045883D01*
X805077Y1046421D01*
X808219Y1048521D01*
X810319Y1051663D01*
X810857Y1054370D01*
D02*
G37*
G36*
X785457D02*
X776970D01*
Y1045883D01*
X779677Y1046421D01*
X782819Y1048521D01*
X784919Y1051663D01*
X785457Y1054370D01*
D02*
G37*
G36*
X800370D02*
X791883D01*
X792421Y1051663D01*
X794521Y1048521D01*
X797663Y1046421D01*
X800370Y1045883D01*
Y1054370D01*
D02*
G37*
G36*
X774970D02*
X766483D01*
X767021Y1051663D01*
X769121Y1048521D01*
X772263Y1046421D01*
X774970Y1045883D01*
Y1054370D01*
D02*
G37*
G36*
X937870Y1064870D02*
X918870D01*
Y1045870D01*
X937870D01*
Y1064870D01*
D02*
G37*
G36*
X1192330Y1048670D02*
X1187580D01*
Y1043670D01*
X1192330D01*
Y1048670D01*
D02*
G37*
G36*
X1185580D02*
X1180830D01*
Y1043670D01*
X1185580D01*
Y1048670D01*
D02*
G37*
G36*
X1290970Y1047400D02*
Y1042400D01*
X1295470D01*
Y1047400D01*
X1290970D01*
D02*
G37*
G36*
X1068070Y1073888D02*
X1063277Y1073257D01*
X1058811Y1071407D01*
X1054976Y1068465D01*
X1052033Y1064629D01*
X1050183Y1060163D01*
X1049552Y1055370D01*
X1050183Y1050577D01*
X1052033Y1046111D01*
X1054976Y1042275D01*
X1058811Y1039333D01*
X1063277Y1037483D01*
X1068070Y1036852D01*
X1072863Y1037483D01*
X1077329Y1039333D01*
X1081164Y1042275D01*
X1084107Y1046111D01*
X1085957Y1050577D01*
X1086588Y1055370D01*
X1085957Y1060163D01*
X1084107Y1064629D01*
X1081164Y1068465D01*
X1077329Y1071407D01*
X1072863Y1073257D01*
X1068070Y1073888D01*
D02*
G37*
G36*
X1192330Y1041670D02*
X1187580D01*
Y1036670D01*
X1192330D01*
Y1041670D01*
D02*
G37*
G36*
X1185580D02*
X1180830D01*
Y1036670D01*
X1185580D01*
Y1041670D01*
D02*
G37*
G36*
X1295470Y1040400D02*
X1290970D01*
Y1035400D01*
X1295470D01*
Y1040400D01*
D02*
G37*
G36*
X1268070Y1090270D02*
X1249070D01*
Y1071270D01*
X1255511D01*
Y1046842D01*
X1255035Y1046747D01*
X1254105Y1046125D01*
X1253483Y1045195D01*
X1253265Y1044098D01*
Y1032223D01*
X1253483Y1031125D01*
X1254105Y1030195D01*
X1255035Y1029573D01*
X1256133Y1029355D01*
X1261008D01*
X1262105Y1029573D01*
X1263035Y1030195D01*
X1263657Y1031125D01*
X1263875Y1032223D01*
Y1038341D01*
X1272470D01*
Y1035400D01*
X1283200D01*
X1283470Y1035400D01*
X1284470D01*
X1284740Y1035400D01*
X1288970D01*
Y1041400D01*
Y1047400D01*
X1284740D01*
X1284470Y1047400D01*
X1283470D01*
X1283200Y1047400D01*
X1272470D01*
Y1044459D01*
X1263803D01*
X1263657Y1045195D01*
X1263035Y1046125D01*
X1262105Y1046747D01*
X1261629Y1046842D01*
Y1071270D01*
X1268070D01*
Y1090270D01*
D02*
G37*
G36*
X1160120Y1052170D02*
X1141120D01*
Y1033170D01*
X1160120D01*
Y1052170D01*
D02*
G37*
G36*
X1125220Y1052356D02*
X1121513Y1051619D01*
X1118371Y1049519D01*
X1116271Y1046377D01*
X1115534Y1042670D01*
X1116271Y1038963D01*
X1118371Y1035821D01*
X1121513Y1033721D01*
X1125220Y1032984D01*
X1128927Y1033721D01*
X1132069Y1035821D01*
X1134169Y1038963D01*
X1134906Y1042670D01*
X1134169Y1046377D01*
X1132069Y1049519D01*
X1128927Y1051619D01*
X1125220Y1052356D01*
D02*
G37*
G36*
X1290970Y1032160D02*
Y1027160D01*
X1295470D01*
Y1032160D01*
X1290970D01*
D02*
G37*
G36*
X1295470Y1025160D02*
X1290970D01*
Y1020160D01*
X1295470D01*
Y1025160D01*
D02*
G37*
G36*
X644720Y999930D02*
X621720D01*
Y982930D01*
X644720D01*
Y999930D01*
D02*
G37*
G36*
X612720D02*
X589720D01*
Y982930D01*
X612720D01*
Y999930D01*
D02*
G37*
G36*
X1296670Y950756D02*
X1292963Y950019D01*
X1289821Y947919D01*
X1287721Y944777D01*
X1286984Y941070D01*
X1287721Y937363D01*
X1289821Y934221D01*
X1292963Y932121D01*
X1296670Y931384D01*
X1300377Y932121D01*
X1303519Y934221D01*
X1305619Y937363D01*
X1306356Y941070D01*
X1305619Y944777D01*
X1303519Y947919D01*
X1300377Y950019D01*
X1296670Y950756D01*
D02*
G37*
G36*
X1227740Y881180D02*
X1222740D01*
Y876430D01*
X1227740D01*
Y881180D01*
D02*
G37*
G36*
Y874430D02*
X1222740D01*
Y869680D01*
X1227740D01*
Y874430D01*
D02*
G37*
G36*
X1278690Y846740D02*
X1273940D01*
Y841740D01*
X1278690D01*
Y846740D01*
D02*
G37*
G36*
X1271940D02*
X1267190D01*
Y841740D01*
X1271940D01*
Y846740D01*
D02*
G37*
G36*
X1278690Y839740D02*
X1272940D01*
X1267190D01*
Y835310D01*
X1267190Y834390D01*
X1267190Y833470D01*
Y829040D01*
X1272940D01*
X1278690D01*
Y833470D01*
X1278690Y834390D01*
X1278690Y835310D01*
Y839740D01*
D02*
G37*
G36*
X1322070Y842806D02*
X1318363Y842069D01*
X1315221Y839969D01*
X1313121Y836827D01*
X1312384Y833120D01*
X1313121Y829413D01*
X1315221Y826271D01*
X1318363Y824171D01*
X1322070Y823434D01*
X1325777Y824171D01*
X1328919Y826271D01*
X1331019Y829413D01*
X1331756Y833120D01*
X1331019Y836827D01*
X1328919Y839969D01*
X1325777Y842069D01*
X1322070Y842806D01*
D02*
G37*
G36*
X1278690Y827040D02*
X1273940D01*
Y822040D01*
X1278690D01*
Y827040D01*
D02*
G37*
G36*
X1271940D02*
X1267190D01*
Y822040D01*
X1271940D01*
Y827040D01*
D02*
G37*
G36*
X1277690Y806720D02*
X1273190D01*
Y801720D01*
X1277690D01*
Y806720D01*
D02*
G37*
G36*
X1331570Y817220D02*
X1312570D01*
Y798220D01*
X1331570D01*
Y817220D01*
D02*
G37*
G36*
X1273190Y783240D02*
Y778240D01*
X1277690D01*
Y783240D01*
X1273190D01*
D02*
G37*
G36*
X1277690Y776240D02*
X1273190D01*
Y771240D01*
X1277690D01*
Y776240D01*
D02*
G37*
G36*
X1290520Y754420D02*
X1272020D01*
Y743420D01*
X1290520D01*
Y754420D01*
D02*
G37*
G36*
X1270020D02*
X1251520D01*
Y743420D01*
X1270020D01*
Y754420D01*
D02*
G37*
G36*
X1321020D02*
X1300020D01*
Y743420D01*
X1321020D01*
Y754420D01*
D02*
G37*
G36*
X1290520Y741420D02*
X1272020D01*
Y730420D01*
X1290520D01*
Y741420D01*
D02*
G37*
G36*
X1270020D02*
X1251520D01*
Y730420D01*
X1270020D01*
Y741420D01*
D02*
G37*
G36*
X1321020D02*
X1300020D01*
Y730420D01*
X1321020D01*
Y741420D01*
D02*
G37*
G36*
X1227740Y720360D02*
X1222740D01*
Y715610D01*
X1227740D01*
Y720360D01*
D02*
G37*
G36*
X1220740D02*
X1215740D01*
Y715610D01*
X1220740D01*
Y720360D01*
D02*
G37*
G36*
X1284020Y713920D02*
X1272020D01*
Y710420D01*
X1284020D01*
Y713920D01*
D02*
G37*
G36*
X1270020D02*
X1258020D01*
Y710420D01*
X1270020D01*
Y713920D01*
D02*
G37*
G36*
X1227740Y713610D02*
X1222740D01*
Y708860D01*
X1227740D01*
Y713610D01*
D02*
G37*
G36*
X1220740D02*
X1215740D01*
Y708860D01*
X1220740D01*
Y713610D01*
D02*
G37*
G36*
X1303020Y722557D02*
X1300289Y722014D01*
X1297973Y720467D01*
X1296426Y718151D01*
X1295883Y715420D01*
X1296426Y712689D01*
X1297973Y710373D01*
X1300289Y708826D01*
X1303020Y708283D01*
X1305751Y708826D01*
X1308067Y710373D01*
X1309614Y712689D01*
X1310157Y715420D01*
X1309614Y718151D01*
X1308067Y720467D01*
X1305751Y722014D01*
X1303020Y722557D01*
D02*
G37*
G36*
X1284020Y708420D02*
X1271020D01*
X1258020D01*
Y704920D01*
Y702420D01*
X1271020D01*
X1284020D01*
Y704920D01*
Y708420D01*
D02*
G37*
G36*
X1086870Y709180D02*
X1068870D01*
Y684180D01*
X1086870D01*
Y709180D01*
D02*
G37*
G36*
X1303020Y678557D02*
X1300289Y678014D01*
X1297973Y676467D01*
X1296426Y674151D01*
X1295883Y671420D01*
X1296426Y668689D01*
X1297973Y666373D01*
X1300289Y664826D01*
X1303020Y664283D01*
X1305751Y664826D01*
X1308067Y666373D01*
X1309614Y668689D01*
X1310157Y671420D01*
X1309614Y674151D01*
X1308067Y676467D01*
X1305751Y678014D01*
X1303020Y678557D01*
D02*
G37*
G36*
X1097893Y745901D02*
X1096847D01*
X1096533Y745839D01*
X1096211Y745835D01*
X1095189Y745617D01*
X1094894Y745491D01*
X1094581Y745420D01*
X1093626Y744995D01*
X1093363Y744809D01*
X1093072Y744675D01*
X1092226Y744060D01*
X1092009Y743825D01*
X1091751Y743633D01*
X1091052Y742856D01*
X1090888Y742580D01*
X1090676Y742338D01*
X1090153Y741433D01*
X1090050Y741129D01*
X1089893Y740849D01*
X1089570Y739855D01*
X1089532Y739536D01*
X1089437Y739230D01*
X1089328Y738190D01*
X1089343Y738029D01*
X1089311Y737870D01*
Y664570D01*
X1089343Y664411D01*
X1089328Y664250D01*
X1089437Y663211D01*
X1089532Y662904D01*
X1089570Y662585D01*
X1089893Y661591D01*
X1090050Y661311D01*
X1090153Y661007D01*
X1090676Y660102D01*
X1090888Y659860D01*
X1091052Y659584D01*
X1091751Y658808D01*
X1092009Y658615D01*
X1092226Y658380D01*
X1093072Y657765D01*
X1093364Y657631D01*
X1093626Y657446D01*
X1094581Y657020D01*
X1094894Y656950D01*
X1095189Y656823D01*
X1096211Y656606D01*
X1096533Y656601D01*
X1096847Y656539D01*
X1097893D01*
X1098207Y656601D01*
X1098529Y656606D01*
X1099551Y656823D01*
X1099846Y656950D01*
X1100159Y657020D01*
X1101114Y657446D01*
X1101376Y657631D01*
X1101668Y657765D01*
X1102514Y658380D01*
X1102731Y658615D01*
X1102989Y658808D01*
X1103688Y659584D01*
X1103852Y659860D01*
X1104064Y660102D01*
X1104587Y661007D01*
X1104690Y661311D01*
X1104847Y661591D01*
X1105170Y662585D01*
X1105208Y662904D01*
X1105303Y663211D01*
X1105412Y664250D01*
X1105397Y664411D01*
X1105429Y664570D01*
X1105429Y737870D01*
X1105397Y738029D01*
X1105412Y738190D01*
X1105303Y739229D01*
X1105208Y739536D01*
X1105170Y739855D01*
X1104847Y740849D01*
X1104690Y741129D01*
X1104587Y741433D01*
X1104064Y742338D01*
X1103852Y742580D01*
X1103688Y742856D01*
X1102989Y743633D01*
X1102731Y743825D01*
X1102514Y744060D01*
X1101668Y744675D01*
X1101376Y744809D01*
X1101114Y744995D01*
X1100159Y745420D01*
X1099846Y745490D01*
X1099551Y745617D01*
X1098529Y745835D01*
X1098208Y745839D01*
X1097893Y745901D01*
D02*
G37*
G36*
X1290520Y656420D02*
X1272020D01*
Y645420D01*
X1290520D01*
Y656420D01*
D02*
G37*
G36*
X1270020D02*
X1251520D01*
Y645420D01*
X1270020D01*
Y656420D01*
D02*
G37*
G36*
X1321020D02*
X1300020D01*
Y645420D01*
X1321020D01*
Y656420D01*
D02*
G37*
G36*
X1290520Y643420D02*
X1272020D01*
Y632420D01*
X1290520D01*
Y643420D01*
D02*
G37*
G36*
X1270020D02*
X1251520D01*
Y632420D01*
X1270020D01*
Y643420D01*
D02*
G37*
G36*
X1321020D02*
X1300020D01*
Y632420D01*
X1321020D01*
Y643420D01*
D02*
G37*
G36*
X1201420Y612158D02*
X1199469Y611770D01*
X1198524Y611138D01*
X1197610D01*
X1196049Y610828D01*
X1194726Y609944D01*
X1194726Y609944D01*
X1190896Y606114D01*
X1190012Y604791D01*
X1189702Y603230D01*
X1189702Y603230D01*
Y580476D01*
X1186405D01*
X1185088Y580214D01*
X1183972Y579468D01*
X1183226Y578352D01*
X1182964Y577035D01*
Y568785D01*
X1183226Y567468D01*
X1183972Y566352D01*
X1185088Y565606D01*
X1186405Y565344D01*
X1201155D01*
X1202472Y565606D01*
X1203588Y566352D01*
X1204334Y567468D01*
X1204596Y568785D01*
Y577035D01*
X1204334Y578352D01*
X1203588Y579468D01*
X1202472Y580214D01*
X1201155Y580476D01*
X1197858D01*
Y601541D01*
X1198989Y602671D01*
X1199469Y602350D01*
X1201420Y601962D01*
X1203371Y602350D01*
X1205025Y603455D01*
X1206130Y605109D01*
X1206518Y607060D01*
X1206130Y609011D01*
X1205025Y610665D01*
X1203371Y611770D01*
X1201420Y612158D01*
D02*
G37*
G36*
X1250750Y583850D02*
X1246000D01*
Y578850D01*
X1250750D01*
Y583850D01*
D02*
G37*
G36*
X1244000D02*
X1239250D01*
Y578850D01*
X1244000D01*
Y583850D01*
D02*
G37*
G36*
X1250750Y576850D02*
X1245000D01*
X1239250D01*
Y572420D01*
X1239250Y571500D01*
X1239250Y570580D01*
Y566150D01*
X1245000D01*
X1250750D01*
Y570580D01*
X1250750Y571500D01*
X1250750Y572420D01*
Y576850D01*
D02*
G37*
G36*
Y564150D02*
X1246000D01*
Y559150D01*
X1250750D01*
Y564150D01*
D02*
G37*
G36*
X1244000D02*
X1239250D01*
Y559150D01*
X1244000D01*
Y564150D01*
D02*
G37*
G36*
X1231900Y656608D02*
X1229949Y656220D01*
X1228295Y655115D01*
X1227190Y653461D01*
X1226802Y651510D01*
X1227190Y649559D01*
X1227622Y648913D01*
Y609657D01*
X1227190Y609011D01*
X1226802Y607060D01*
X1227190Y605109D01*
X1227622Y604463D01*
Y583850D01*
X1225750D01*
Y571850D01*
X1225750D01*
Y571150D01*
X1225750D01*
Y559150D01*
X1237250D01*
Y571150D01*
X1237250D01*
Y571850D01*
X1237250D01*
Y583850D01*
X1235778D01*
Y603865D01*
X1236610Y605109D01*
X1236998Y607060D01*
X1236610Y609011D01*
X1235778Y610255D01*
Y648315D01*
X1236610Y649559D01*
X1236998Y651510D01*
X1236610Y653461D01*
X1235505Y655115D01*
X1233851Y656220D01*
X1231900Y656608D01*
D02*
G37*
G36*
X1298350Y556520D02*
X1282350D01*
Y553589D01*
X1280270D01*
X1278904Y553317D01*
X1277747Y552543D01*
X1273827Y548623D01*
X1273053Y547466D01*
X1272781Y546100D01*
Y544649D01*
X1272745Y544625D01*
X1271640Y542971D01*
X1271252Y541020D01*
X1271640Y539069D01*
X1272745Y537415D01*
X1274399Y536310D01*
X1276350Y535922D01*
X1278301Y536310D01*
X1279955Y537415D01*
X1281060Y539069D01*
X1281448Y541020D01*
X1281060Y542971D01*
X1279955Y544625D01*
X1279952Y544655D01*
X1281080Y545783D01*
X1282350Y545257D01*
Y543520D01*
X1298350D01*
Y556520D01*
D02*
G37*
G36*
X1213200Y655338D02*
X1211249Y654950D01*
X1209595Y653845D01*
X1208490Y652191D01*
X1208102Y650240D01*
X1208490Y648289D01*
X1209595Y646635D01*
X1210141Y646270D01*
Y553370D01*
X1210141Y553370D01*
X1210374Y552200D01*
X1211037Y551207D01*
X1214497Y547747D01*
X1215490Y547084D01*
X1216660Y546851D01*
X1226400D01*
Y543910D01*
X1228841D01*
Y538130D01*
X1226400D01*
Y526130D01*
X1237130D01*
X1237400Y526130D01*
X1238400D01*
X1238670Y526130D01*
X1249400D01*
Y529071D01*
X1254350D01*
Y525520D01*
X1270350D01*
Y538520D01*
X1254350D01*
Y535189D01*
X1249400D01*
Y538130D01*
X1238670D01*
X1238400Y538130D01*
X1237400D01*
X1237130Y538130D01*
X1234959D01*
Y543910D01*
X1237130D01*
X1237400Y543910D01*
X1238400D01*
X1238670Y543910D01*
X1249400D01*
Y546851D01*
X1254350D01*
Y543520D01*
X1270350D01*
Y556520D01*
X1254350D01*
Y552969D01*
X1249400D01*
Y555910D01*
X1238670D01*
X1238400Y555910D01*
X1237400D01*
X1237130Y555910D01*
X1226400D01*
Y552969D01*
X1217927D01*
X1216259Y554637D01*
Y646270D01*
X1216805Y646635D01*
X1217910Y648289D01*
X1218298Y650240D01*
X1217910Y652191D01*
X1216805Y653845D01*
X1215151Y654950D01*
X1213200Y655338D01*
D02*
G37*
G36*
X1201155Y557476D02*
X1186405D01*
X1185088Y557214D01*
X1183972Y556468D01*
X1183226Y555352D01*
X1183057Y554503D01*
X1179830D01*
X1177587Y554056D01*
X1175685Y552785D01*
X1174414Y550883D01*
X1173967Y548640D01*
X1174414Y546396D01*
X1175685Y544495D01*
X1177587Y543224D01*
X1179830Y542777D01*
X1184831D01*
X1185088Y542606D01*
X1186405Y542344D01*
X1201155D01*
X1202472Y542606D01*
X1203588Y543352D01*
X1204334Y544468D01*
X1204596Y545785D01*
Y554035D01*
X1204334Y555352D01*
X1203588Y556468D01*
X1202472Y557214D01*
X1201155Y557476D01*
D02*
G37*
G36*
X1298350Y538520D02*
X1291350D01*
Y533020D01*
X1298350D01*
Y538520D01*
D02*
G37*
G36*
X1289350D02*
X1282350D01*
Y533020D01*
X1289350D01*
Y538520D01*
D02*
G37*
G36*
X1201155Y534476D02*
X1194780D01*
Y527910D01*
X1204596D01*
Y531035D01*
X1204334Y532352D01*
X1203588Y533468D01*
X1202472Y534214D01*
X1201155Y534476D01*
D02*
G37*
G36*
X1192780D02*
X1186405D01*
X1185088Y534214D01*
X1183972Y533468D01*
X1183226Y532352D01*
X1182964Y531035D01*
Y527910D01*
X1192780D01*
Y534476D01*
D02*
G37*
G36*
X1298350Y531020D02*
X1291350D01*
Y525520D01*
X1298350D01*
Y531020D01*
D02*
G37*
G36*
X1289350D02*
X1282350D01*
Y525520D01*
X1289350D01*
Y531020D01*
D02*
G37*
G36*
X1204596Y525910D02*
X1194780D01*
Y519344D01*
X1201155D01*
X1202472Y519606D01*
X1203588Y520352D01*
X1204334Y521468D01*
X1204596Y522785D01*
Y525910D01*
D02*
G37*
G36*
X1192780D02*
X1182964D01*
Y522785D01*
X1183226Y521468D01*
X1183972Y520352D01*
X1185088Y519606D01*
X1186405Y519344D01*
X1192780D01*
Y525910D01*
D02*
G37*
G36*
X1147880Y508920D02*
X1143130D01*
Y503920D01*
X1147880D01*
Y508920D01*
D02*
G37*
G36*
X1141130D02*
X1136380D01*
Y503920D01*
X1141130D01*
Y508920D01*
D02*
G37*
G36*
X1318870Y506070D02*
X1310370D01*
Y497570D01*
X1318870D01*
Y506070D01*
D02*
G37*
G36*
X1308370D02*
X1299870D01*
Y497570D01*
X1308370D01*
Y506070D01*
D02*
G37*
G36*
X1284970Y506057D02*
Y497570D01*
X1293457D01*
X1292919Y500277D01*
X1290819Y503419D01*
X1287677Y505519D01*
X1284970Y506057D01*
D02*
G37*
G36*
X1282970D02*
X1280263Y505519D01*
X1277121Y503419D01*
X1275021Y500277D01*
X1274483Y497570D01*
X1282970D01*
Y506057D01*
D02*
G37*
G36*
X1147880Y501920D02*
X1142130D01*
X1136380D01*
Y497490D01*
X1136380Y496570D01*
X1136380Y495650D01*
Y491220D01*
X1142130D01*
X1147880D01*
Y495650D01*
X1147880Y496570D01*
X1147880Y497490D01*
Y501920D01*
D02*
G37*
G36*
X1282970Y495570D02*
X1274483D01*
X1275021Y492863D01*
X1277121Y489721D01*
X1280263Y487621D01*
X1282970Y487083D01*
Y495570D01*
D02*
G37*
G36*
X1293457D02*
X1284970D01*
Y487083D01*
X1287677Y487621D01*
X1290819Y489721D01*
X1292919Y492863D01*
X1293457Y495570D01*
D02*
G37*
G36*
X1318870Y495570D02*
X1310370D01*
Y487070D01*
X1318870D01*
Y495570D01*
D02*
G37*
G36*
X1308370D02*
X1299870D01*
Y487070D01*
X1308370D01*
Y495570D01*
D02*
G37*
G36*
X1147880Y489220D02*
X1143130D01*
Y484220D01*
X1147880D01*
Y489220D01*
D02*
G37*
G36*
X1141130D02*
X1136380D01*
Y484220D01*
X1141130D01*
Y489220D01*
D02*
G37*
%LPD*%
G36*
X897107Y1146338D02*
Y1142130D01*
X896918Y1142052D01*
X894411Y1140128D01*
X892488Y1137622D01*
X891279Y1134703D01*
X890910Y1131905D01*
X889630D01*
X889261Y1134703D01*
X888052Y1137622D01*
X886128Y1140128D01*
X883622Y1142052D01*
X880703Y1143261D01*
X877570Y1143674D01*
X874437Y1143261D01*
X871518Y1142052D01*
X869012Y1140128D01*
X867088Y1137622D01*
X865879Y1134703D01*
X865510Y1131905D01*
X864230D01*
X863861Y1134703D01*
X862652Y1137622D01*
X860729Y1140128D01*
X858222Y1142052D01*
X858033Y1142130D01*
Y1146338D01*
X858992Y1147297D01*
X896148D01*
X897107Y1146338D01*
D02*
G37*
G36*
X941786Y1130666D02*
X942079Y1128437D01*
X943288Y1125518D01*
X945211Y1123011D01*
X947718Y1121088D01*
X950637Y1119879D01*
X953435Y1119510D01*
Y1118230D01*
X950637Y1117861D01*
X947718Y1116652D01*
X945211Y1114728D01*
X943288Y1112222D01*
X942079Y1109303D01*
X941786Y1107074D01*
X941710Y1106505D01*
X940430D01*
X940355Y1107074D01*
X940061Y1109303D01*
X938852Y1112222D01*
X936928Y1114728D01*
X934422Y1116652D01*
X931503Y1117861D01*
X928705Y1118230D01*
Y1119510D01*
X931503Y1119879D01*
X934422Y1121088D01*
X936928Y1123011D01*
X938852Y1125518D01*
X940061Y1128437D01*
X940355Y1130666D01*
X940430Y1131236D01*
X941710D01*
X941786Y1130666D01*
D02*
G37*
G36*
X840185Y1130666D02*
X840479Y1128437D01*
X841688Y1125518D01*
X843612Y1123011D01*
X846118Y1121088D01*
X846307Y1121010D01*
Y1116730D01*
X846118Y1116652D01*
X843612Y1114728D01*
X841688Y1112222D01*
X840479Y1109303D01*
X840185Y1107074D01*
X840110Y1106505D01*
X838829D01*
X838755Y1107074D01*
X838461Y1109303D01*
X837252Y1112222D01*
X835329Y1114728D01*
X832822Y1116652D01*
X832633Y1116730D01*
Y1121010D01*
X832822Y1121088D01*
X835329Y1123011D01*
X837252Y1125518D01*
X838461Y1128437D01*
X838755Y1130666D01*
X838830Y1131236D01*
X840110D01*
X840185Y1130666D01*
D02*
G37*
G36*
X992586D02*
X992879Y1128437D01*
X994088Y1125518D01*
X996012Y1123011D01*
X998518Y1121088D01*
X1001437Y1119879D01*
X1003666Y1119585D01*
X1004236Y1119510D01*
Y1118230D01*
X1003666Y1118155D01*
X1001437Y1117861D01*
X998518Y1116652D01*
X996012Y1114728D01*
X994088Y1112222D01*
X992879Y1109303D01*
X992586Y1107074D01*
X992511Y1106505D01*
X991396D01*
X991189Y1106809D01*
X991154Y1107074D01*
X990861Y1109303D01*
X989652Y1112222D01*
X987729Y1114728D01*
X985222Y1116652D01*
X982303Y1117861D01*
X979505Y1118230D01*
Y1119510D01*
X982303Y1119879D01*
X985222Y1121088D01*
X987729Y1123011D01*
X989652Y1125518D01*
X990861Y1128437D01*
X991154Y1130666D01*
X991229Y1131236D01*
X992510D01*
X992586Y1130666D01*
D02*
G37*
G36*
X916385Y1130666D02*
X916679Y1128437D01*
X917888Y1125518D01*
X919811Y1123011D01*
X922318Y1121088D01*
X925237Y1119879D01*
X928036Y1119510D01*
Y1118230D01*
X925237Y1117861D01*
X922318Y1116652D01*
X919811Y1114728D01*
X917888Y1112222D01*
X916679Y1109303D01*
X916385Y1107074D01*
X916310Y1106505D01*
X915030D01*
X914955Y1107074D01*
X914661Y1109303D01*
X913452Y1112222D01*
X911528Y1114728D01*
X909022Y1116652D01*
X908833Y1116730D01*
Y1121010D01*
X909022Y1121088D01*
X911528Y1123011D01*
X913452Y1125518D01*
X914661Y1128437D01*
X914955Y1130666D01*
X915030Y1131236D01*
X916310D01*
X916385Y1130666D01*
D02*
G37*
G36*
X891279Y1128437D02*
X892488Y1125518D01*
X894411Y1123011D01*
X896918Y1121088D01*
X897107Y1121010D01*
Y1116730D01*
X896918Y1116652D01*
X894411Y1114728D01*
X892488Y1112222D01*
X891279Y1109303D01*
X890985Y1107074D01*
X890910Y1106505D01*
X889630D01*
X889555Y1107074D01*
X889261Y1109303D01*
X888052Y1112222D01*
X886128Y1114728D01*
X883622Y1116652D01*
X880703Y1117861D01*
X880629Y1117871D01*
Y1119869D01*
X880703Y1119879D01*
X883622Y1121088D01*
X886128Y1123011D01*
X888052Y1125518D01*
X889261Y1128437D01*
X889630Y1131236D01*
X890910D01*
X891279Y1128437D01*
D02*
G37*
G36*
X865879D02*
X867088Y1125518D01*
X869012Y1123011D01*
X871518Y1121088D01*
X874437Y1119879D01*
X874511Y1119869D01*
Y1117871D01*
X874437Y1117861D01*
X871518Y1116652D01*
X869012Y1114728D01*
X867088Y1112222D01*
X865879Y1109303D01*
X865585Y1107075D01*
X865510Y1106505D01*
X864396D01*
X864189Y1106809D01*
X864155Y1107075D01*
X863861Y1109303D01*
X862652Y1112222D01*
X860729Y1114728D01*
X858222Y1116652D01*
X858033Y1116730D01*
Y1121010D01*
X858222Y1121088D01*
X860729Y1123011D01*
X862652Y1125518D01*
X863861Y1128437D01*
X864230Y1131235D01*
X865510D01*
X865879Y1128437D01*
D02*
G37*
G36*
X967186Y1130666D02*
X967479Y1128437D01*
X968688Y1125518D01*
X970611Y1123011D01*
X973118Y1121088D01*
X976037Y1119879D01*
X978835Y1119510D01*
Y1118230D01*
X976037Y1117861D01*
X973118Y1116652D01*
X970611Y1114728D01*
X968688Y1112222D01*
X967479Y1109303D01*
X967186Y1107075D01*
X967110Y1106504D01*
X965830D01*
X965754Y1107075D01*
X965461Y1109303D01*
X964252Y1112222D01*
X962328Y1114728D01*
X959822Y1116652D01*
X956903Y1117861D01*
X954105Y1118230D01*
Y1119510D01*
X956903Y1119879D01*
X959822Y1121088D01*
X962328Y1123011D01*
X964252Y1125518D01*
X965461Y1128437D01*
X965754Y1130666D01*
X965829Y1131235D01*
X967110D01*
X967186Y1130666D01*
D02*
G37*
%LPC*%
G36*
X1199150Y954690D02*
X1194400D01*
Y949690D01*
X1199150D01*
Y954690D01*
D02*
G37*
G36*
X1175820Y954690D02*
X1171070D01*
Y949690D01*
X1175820D01*
Y954690D01*
D02*
G37*
G36*
X1169070D02*
X1164320D01*
Y949690D01*
X1169070D01*
Y954690D01*
D02*
G37*
G36*
X1192400Y954690D02*
X1187650D01*
Y949690D01*
X1192400D01*
Y954690D01*
D02*
G37*
G36*
X1199150Y947690D02*
X1194400D01*
Y942690D01*
X1199150D01*
Y947690D01*
D02*
G37*
G36*
X1192400D02*
X1187650D01*
Y942690D01*
X1192400D01*
Y947690D01*
D02*
G37*
G36*
X1175820D02*
X1171070D01*
Y942690D01*
X1175820D01*
Y947690D01*
D02*
G37*
G36*
X1169070D02*
X1164320D01*
Y942690D01*
X1169070D01*
Y947690D01*
D02*
G37*
G36*
X672750Y928640D02*
X667750D01*
Y923890D01*
X672750D01*
Y928640D01*
D02*
G37*
G36*
X577500D02*
X572500D01*
Y923890D01*
X577500D01*
Y928640D01*
D02*
G37*
G36*
X665750D02*
X660750D01*
Y923890D01*
X665750D01*
Y928640D01*
D02*
G37*
G36*
X570500D02*
X565500D01*
Y923890D01*
X570500D01*
Y928640D01*
D02*
G37*
G36*
X672750Y921890D02*
X667750D01*
Y917140D01*
X672750D01*
Y921890D01*
D02*
G37*
G36*
X665750D02*
X660750D01*
Y917140D01*
X665750D01*
Y921890D01*
D02*
G37*
G36*
X577500D02*
X572500D01*
Y917140D01*
X577500D01*
Y921890D01*
D02*
G37*
G36*
X570500D02*
X565500D01*
Y917140D01*
X570500D01*
Y921890D01*
D02*
G37*
G36*
X670830Y882300D02*
X666080D01*
Y877300D01*
X670830D01*
Y882300D01*
D02*
G37*
G36*
X664080D02*
X659330D01*
Y877300D01*
X664080D01*
Y882300D01*
D02*
G37*
G36*
X577500Y876570D02*
X572500D01*
Y871820D01*
X577500D01*
Y876570D01*
D02*
G37*
G36*
X570500D02*
X565500D01*
Y871820D01*
X570500D01*
Y876570D01*
D02*
G37*
G36*
X670830Y875300D02*
X666080D01*
Y870300D01*
X670830D01*
Y875300D01*
D02*
G37*
G36*
X664080D02*
X659330D01*
Y870300D01*
X664080D01*
Y875300D01*
D02*
G37*
G36*
X577500Y869820D02*
X572500D01*
Y865070D01*
X577500D01*
Y869820D01*
D02*
G37*
G36*
X570500D02*
X565500D01*
Y865070D01*
X570500D01*
Y869820D01*
D02*
G37*
G36*
X664830Y867060D02*
X660330D01*
Y862060D01*
X664830D01*
Y867060D01*
D02*
G37*
G36*
Y860060D02*
X660330D01*
Y855060D01*
X664830D01*
Y860060D01*
D02*
G37*
G36*
X577500Y853240D02*
X572500D01*
Y848490D01*
X577500D01*
Y853240D01*
D02*
G37*
G36*
X570500D02*
X565500D01*
Y848490D01*
X570500D01*
Y853240D01*
D02*
G37*
G36*
X664830Y853090D02*
X660330D01*
Y848090D01*
X664830D01*
Y853090D01*
D02*
G37*
G36*
X577500Y846490D02*
X572500D01*
Y841740D01*
X577500D01*
Y846490D01*
D02*
G37*
G36*
X570500D02*
X565500D01*
Y841740D01*
X570500D01*
Y846490D01*
D02*
G37*
G36*
X664830Y846090D02*
X660330D01*
Y841090D01*
X664830D01*
Y846090D01*
D02*
G37*
G36*
Y839120D02*
X660330D01*
Y834120D01*
X664830D01*
Y839120D01*
D02*
G37*
G36*
Y832120D02*
X660330D01*
Y827120D01*
X664830D01*
Y832120D01*
D02*
G37*
G36*
X670830Y825150D02*
X666080D01*
Y820150D01*
X670830D01*
Y825150D01*
D02*
G37*
G36*
X664080D02*
X659330D01*
Y820150D01*
X664080D01*
Y825150D01*
D02*
G37*
G36*
X670830Y818150D02*
X665080D01*
X659330D01*
Y813720D01*
X659330Y812800D01*
X659330Y811880D01*
Y807450D01*
X665080D01*
X670830D01*
Y811880D01*
X670830Y812800D01*
X670830Y813720D01*
Y818150D01*
D02*
G37*
G36*
Y805450D02*
X666080D01*
Y800450D01*
X670830D01*
Y805450D01*
D02*
G37*
G36*
X664080D02*
X659330D01*
Y800450D01*
X664080D01*
Y805450D01*
D02*
G37*
G36*
X1187720Y881180D02*
X1182720D01*
Y876430D01*
X1187720D01*
Y881180D01*
D02*
G37*
G36*
Y874430D02*
X1182720D01*
Y869680D01*
X1187720D01*
Y874430D01*
D02*
G37*
G36*
X800500Y890335D02*
Y885220D01*
X802814D01*
Y887220D01*
X802561Y888488D01*
X801843Y889563D01*
X800768Y890281D01*
X800500Y890335D01*
D02*
G37*
G36*
X871020Y883570D02*
X866270D01*
Y878570D01*
X871020D01*
Y883570D01*
D02*
G37*
G36*
X864270D02*
X859520D01*
Y878570D01*
X864270D01*
Y883570D01*
D02*
G37*
G36*
X871020Y876570D02*
X866270D01*
Y871570D01*
X871020D01*
Y876570D01*
D02*
G37*
G36*
X864270D02*
X859520D01*
Y871570D01*
X864270D01*
Y876570D01*
D02*
G37*
G36*
X1086870Y969360D02*
X1068870D01*
Y944360D01*
X1086870D01*
Y969360D01*
D02*
G37*
G36*
X1041870D02*
X1023870D01*
Y944360D01*
X1041870D01*
Y969360D01*
D02*
G37*
G36*
X1011375Y936626D02*
X1008250D01*
Y926810D01*
X1014816D01*
Y933185D01*
X1014554Y934502D01*
X1013808Y935618D01*
X1012692Y936364D01*
X1011375Y936626D01*
D02*
G37*
G36*
X1006250D02*
X1003125D01*
X1001808Y936364D01*
X1000692Y935618D01*
X999946Y934502D01*
X999684Y933185D01*
Y926810D01*
X1006250D01*
Y936626D01*
D02*
G37*
G36*
X1014816Y924810D02*
X1008250D01*
Y914994D01*
X1011375D01*
X1012692Y915256D01*
X1013808Y916002D01*
X1014554Y917118D01*
X1014816Y918435D01*
Y924810D01*
D02*
G37*
G36*
X1006250D02*
X999684D01*
Y918435D01*
X999946Y917118D01*
X1000692Y916002D01*
X1001808Y915256D01*
X1003125Y914994D01*
X1006250D01*
Y924810D01*
D02*
G37*
G36*
X988375Y936626D02*
X980125D01*
X978808Y936364D01*
X977692Y935618D01*
X976946Y934502D01*
X976684Y933185D01*
Y918435D01*
X976946Y917118D01*
X977692Y916002D01*
X978808Y915256D01*
X980125Y914994D01*
X988375D01*
X989692Y915256D01*
X990808Y916002D01*
X991554Y917118D01*
X991816Y918435D01*
Y933185D01*
X991554Y934502D01*
X990808Y935618D01*
X989692Y936364D01*
X988375Y936626D01*
D02*
G37*
G36*
X943260Y918480D02*
X938260D01*
Y913730D01*
X943260D01*
Y918480D01*
D02*
G37*
G36*
X936260D02*
X931260D01*
Y913730D01*
X936260D01*
Y918480D01*
D02*
G37*
G36*
X943260Y911730D02*
X938260D01*
Y906980D01*
X943260D01*
Y911730D01*
D02*
G37*
G36*
X936260D02*
X931260D01*
Y906980D01*
X936260D01*
Y911730D01*
D02*
G37*
G36*
X1078230Y892828D02*
X1076279Y892440D01*
X1074625Y891335D01*
X1073520Y889681D01*
X1073132Y887730D01*
X1073520Y885779D01*
X1074625Y884125D01*
X1075171Y883760D01*
Y879360D01*
X1068870D01*
Y854360D01*
X1086870D01*
Y879360D01*
X1081289D01*
Y883760D01*
X1081835Y884125D01*
X1082940Y885779D01*
X1083328Y887730D01*
X1082940Y889681D01*
X1081835Y891335D01*
X1080181Y892440D01*
X1078230Y892828D01*
D02*
G37*
G36*
X1032510Y893593D02*
X956310D01*
X954066Y893146D01*
X952165Y891876D01*
X950894Y889974D01*
X950447Y887730D01*
Y813583D01*
X944220D01*
Y817220D01*
X925220D01*
Y798220D01*
X944220D01*
Y801857D01*
X956310D01*
X958553Y802304D01*
X960455Y803575D01*
X961726Y805477D01*
X962173Y807720D01*
Y881867D01*
X1026647D01*
Y879360D01*
X1023870D01*
Y854360D01*
X1041870D01*
Y879360D01*
X1038373D01*
Y887730D01*
X1037926Y889974D01*
X1036656Y891876D01*
X1034753Y893146D01*
X1032510Y893593D01*
D02*
G37*
G36*
X934720Y842806D02*
X931013Y842069D01*
X927871Y839969D01*
X925771Y836827D01*
X925034Y833120D01*
X925771Y829413D01*
X927871Y826271D01*
X931013Y824171D01*
X934720Y823434D01*
X938427Y824171D01*
X941569Y826271D01*
X943669Y829413D01*
X944406Y833120D01*
X943669Y836827D01*
X941569Y839969D01*
X938427Y842069D01*
X934720Y842806D01*
D02*
G37*
G36*
X1069140Y814990D02*
X1064390D01*
Y809990D01*
X1069140D01*
Y814990D01*
D02*
G37*
G36*
X1062390D02*
X1057640D01*
Y809990D01*
X1062390D01*
Y814990D01*
D02*
G37*
G36*
X1069140Y807990D02*
X1064390D01*
Y802990D01*
X1069140D01*
Y807990D01*
D02*
G37*
G36*
X1062390D02*
X1057640D01*
Y802990D01*
X1062390D01*
Y807990D01*
D02*
G37*
G36*
X1055640Y814990D02*
X1044140D01*
Y802990D01*
X1046831D01*
Y790807D01*
X1045763Y789739D01*
X1041870D01*
Y799180D01*
X1023870D01*
Y774180D01*
X1029451D01*
Y767240D01*
X1028905Y766875D01*
X1027800Y765221D01*
X1027412Y763270D01*
X1027800Y761319D01*
X1028905Y759665D01*
X1030559Y758560D01*
X1032510Y758172D01*
X1034461Y758560D01*
X1036115Y759665D01*
X1037220Y761319D01*
X1037608Y763270D01*
X1037220Y765221D01*
X1036115Y766875D01*
X1035569Y767240D01*
Y774180D01*
X1041870D01*
Y783621D01*
X1047030D01*
X1047030Y783621D01*
X1048201Y783854D01*
X1049193Y784517D01*
X1052053Y787377D01*
X1052053Y787377D01*
X1052716Y788370D01*
X1052949Y789540D01*
X1052949Y789540D01*
Y802990D01*
X1055640D01*
Y814990D01*
D02*
G37*
G36*
X1086870Y799180D02*
X1078870D01*
Y787680D01*
X1086870D01*
Y799180D01*
D02*
G37*
G36*
X1076870D02*
X1068870D01*
Y787680D01*
X1076870D01*
Y799180D01*
D02*
G37*
G36*
X961460Y788379D02*
X959460D01*
Y783320D01*
X964519D01*
Y785320D01*
X964286Y786490D01*
X963623Y787483D01*
X962630Y788146D01*
X961460Y788379D01*
D02*
G37*
G36*
X964519Y781320D02*
X959460D01*
Y776261D01*
X961460D01*
X962630Y776494D01*
X963623Y777157D01*
X964286Y778149D01*
X964519Y779320D01*
Y781320D01*
D02*
G37*
G36*
X1086870Y785680D02*
X1078870D01*
Y774180D01*
X1086870D01*
Y785680D01*
D02*
G37*
G36*
X1076870D02*
X1068870D01*
Y774180D01*
X1076870D01*
Y785680D01*
D02*
G37*
G36*
X961460Y773139D02*
X959460D01*
Y768080D01*
X964519D01*
Y770080D01*
X964286Y771251D01*
X963623Y772243D01*
X962630Y772906D01*
X961460Y773139D01*
D02*
G37*
G36*
X964519Y766080D02*
X959460D01*
Y761021D01*
X961460D01*
X962630Y761254D01*
X963623Y761917D01*
X964286Y762909D01*
X964519Y764080D01*
Y766080D01*
D02*
G37*
G36*
X961460Y757899D02*
X959460D01*
Y752840D01*
X964519D01*
Y754840D01*
X964286Y756011D01*
X963623Y757003D01*
X962630Y757666D01*
X961460Y757899D01*
D02*
G37*
G36*
X964519Y750840D02*
X959460D01*
Y745781D01*
X961460D01*
X962630Y746014D01*
X963623Y746677D01*
X964286Y747670D01*
X964519Y748840D01*
Y750840D01*
D02*
G37*
G36*
X961460Y742659D02*
X959460D01*
Y737600D01*
X964519D01*
Y739600D01*
X964286Y740771D01*
X963623Y741763D01*
X962630Y742426D01*
X961460Y742659D01*
D02*
G37*
G36*
X964519Y735600D02*
X959460D01*
Y730541D01*
X961460D01*
X962630Y730774D01*
X963623Y731437D01*
X964286Y732430D01*
X964519Y733600D01*
Y735600D01*
D02*
G37*
G36*
X999562Y870642D02*
X968938D01*
X967304Y870317D01*
X965918Y869391D01*
X964993Y868006D01*
X964668Y866373D01*
Y853248D01*
X964993Y851614D01*
X965918Y850229D01*
X967304Y849303D01*
X968938Y848978D01*
X978387D01*
Y826770D01*
X978834Y824527D01*
X980104Y822625D01*
X992357Y810372D01*
Y739028D01*
X991371Y738369D01*
X989271Y735227D01*
X988534Y731520D01*
X989271Y727813D01*
X991371Y724671D01*
X994513Y722571D01*
X998220Y721834D01*
X1001927Y722571D01*
X1005069Y724671D01*
X1007169Y727813D01*
X1007906Y731520D01*
X1007169Y735227D01*
X1005069Y738369D01*
X1004083Y739028D01*
Y812800D01*
X1003636Y815043D01*
X1002365Y816945D01*
X990113Y829198D01*
Y848978D01*
X999562D01*
X1001196Y849303D01*
X1002581Y850229D01*
X1003507Y851614D01*
X1003832Y853248D01*
Y866373D01*
X1003507Y868006D01*
X1002581Y869391D01*
X1001196Y870317D01*
X999562Y870642D01*
D02*
G37*
G36*
X998220Y715806D02*
X994513Y715069D01*
X991371Y712969D01*
X989271Y709827D01*
X988534Y706120D01*
X989271Y702413D01*
X991371Y699271D01*
X994513Y697171D01*
X998220Y696434D01*
X1001927Y697171D01*
X1005069Y699271D01*
X1007169Y702413D01*
X1007906Y706120D01*
X1007169Y709827D01*
X1005069Y712969D01*
X1001927Y715069D01*
X998220Y715806D01*
D02*
G37*
G36*
X1041870Y709180D02*
X1023870D01*
Y684180D01*
X1041870D01*
Y709180D01*
D02*
G37*
G36*
X1007720Y690220D02*
X988720D01*
Y671220D01*
X1007720D01*
Y690220D01*
D02*
G37*
G36*
X944610Y583733D02*
Y573770D01*
X954573D01*
X954327Y575642D01*
X953219Y578317D01*
X951455Y580615D01*
X949157Y582379D01*
X946482Y583487D01*
X944610Y583733D01*
D02*
G37*
G36*
X942610D02*
X940738Y583487D01*
X938063Y582379D01*
X935765Y580615D01*
X934001Y578317D01*
X932893Y575642D01*
X932647Y573770D01*
X942610D01*
Y583733D01*
D02*
G37*
G36*
X954573Y571770D02*
X944610D01*
Y561807D01*
X946482Y562053D01*
X949157Y563162D01*
X951455Y564925D01*
X953219Y567223D01*
X954327Y569898D01*
X954573Y571770D01*
D02*
G37*
G36*
X942610D02*
X932647D01*
X932893Y569898D01*
X934001Y567223D01*
X935765Y564925D01*
X938063Y563162D01*
X940738Y562053D01*
X942610Y561807D01*
Y571770D01*
D02*
G37*
G36*
X1055370Y591288D02*
X1050577Y590658D01*
X1046111Y588807D01*
X1042275Y585864D01*
X1039333Y582029D01*
X1037483Y577563D01*
X1036852Y572770D01*
X1037483Y567977D01*
X1039333Y563511D01*
X1042275Y559676D01*
X1046111Y556733D01*
X1050577Y554883D01*
X1055370Y554252D01*
X1060163Y554883D01*
X1064629Y556733D01*
X1068465Y559676D01*
X1071407Y563511D01*
X1073257Y567977D01*
X1073888Y572770D01*
X1073257Y577563D01*
X1071407Y582029D01*
X1068465Y585864D01*
X1064629Y588807D01*
X1060163Y590658D01*
X1055370Y591288D01*
D02*
G37*
G36*
X1041970Y533970D02*
X1017970D01*
Y509970D01*
X1041970D01*
Y533970D01*
D02*
G37*
G36*
X871020Y832770D02*
X866270D01*
Y827770D01*
X871020D01*
Y832770D01*
D02*
G37*
G36*
X864270D02*
X859520D01*
Y827770D01*
X864270D01*
Y832770D01*
D02*
G37*
G36*
X871020Y825770D02*
X866270D01*
Y820770D01*
X871020D01*
Y825770D01*
D02*
G37*
G36*
X864270D02*
X859520D01*
Y820770D01*
X864270D01*
Y825770D01*
D02*
G37*
G36*
X1131840Y778160D02*
X1127090D01*
Y773160D01*
X1131840D01*
Y778160D01*
D02*
G37*
G36*
X1125090D02*
X1120340D01*
Y773160D01*
X1125090D01*
Y778160D01*
D02*
G37*
G36*
X1131840Y771160D02*
X1127090D01*
Y766160D01*
X1131840D01*
Y771160D01*
D02*
G37*
G36*
X1125090D02*
X1120340D01*
Y766160D01*
X1125090D01*
Y771160D01*
D02*
G37*
G36*
X773430Y749570D02*
X772510Y749570D01*
X768080D01*
Y743820D01*
Y738070D01*
X772510D01*
X773430Y738070D01*
X774350Y738070D01*
X778780D01*
Y743820D01*
Y749570D01*
X774350D01*
X773430Y749570D01*
D02*
G37*
G36*
X780780Y749570D02*
Y744820D01*
X785780D01*
Y749570D01*
X780780D01*
D02*
G37*
G36*
X785780Y742820D02*
X780780D01*
Y738070D01*
X785780D01*
Y742820D01*
D02*
G37*
G36*
X760730Y749570D02*
X759810Y749570D01*
X755380D01*
Y743820D01*
Y738070D01*
X759810D01*
X760730Y738070D01*
X761650Y738070D01*
X766080D01*
Y743820D01*
Y749570D01*
X761650D01*
X760730Y749570D01*
D02*
G37*
G36*
X547370Y743688D02*
X542577Y743057D01*
X538111Y741207D01*
X534276Y738264D01*
X531333Y734429D01*
X529483Y729963D01*
X528852Y725170D01*
X529483Y720377D01*
X531333Y715911D01*
X534276Y712076D01*
X538111Y709133D01*
X542577Y707283D01*
X547370Y706652D01*
X552163Y707283D01*
X556629Y709133D01*
X560465Y712076D01*
X563407Y715911D01*
X565257Y720377D01*
X565888Y725170D01*
X565257Y729963D01*
X563407Y734429D01*
X560465Y738264D01*
X556629Y741207D01*
X552163Y743057D01*
X547370Y743688D01*
D02*
G37*
G36*
X812842Y495570D02*
X801870D01*
Y484598D01*
X804003Y484879D01*
X806922Y486088D01*
X809428Y488012D01*
X811352Y490518D01*
X812561Y493437D01*
X812842Y495570D01*
D02*
G37*
%LPD*%
D14*
X1258378Y827600D02*
G03*
X1259440Y828040I0J1502D01*
G01*
X1221740Y861930D02*
G03*
X1221300Y860868I1062J-1062D01*
G01*
X812500Y846470D02*
G03*
X811293Y846970I-1207J-1207D01*
G01*
X811293Y841970D02*
G03*
X812500Y842470I0J1707D01*
G01*
X730250Y755300D02*
Y764777D01*
X727014Y768013D02*
X730250Y764777D01*
X727014Y768013D02*
Y769096D01*
X768750Y771760D02*
Y790835D01*
X773430Y765810D02*
Y766892D01*
X771822Y768500D02*
X773430Y766892D01*
X771822Y768500D02*
Y768688D01*
X768750Y771760D02*
X771822Y768688D01*
X781050Y758590D02*
Y778913D01*
X779780Y757320D02*
X781050Y758590D01*
X779500Y791585D02*
X780250Y790835D01*
Y779713D02*
X781050Y778913D01*
X780250Y779713D02*
Y790835D01*
X769500Y791585D02*
Y794720D01*
X768750Y790835D02*
X769500Y791585D01*
X779500D02*
Y794720D01*
X1137610Y802600D02*
X1160300D01*
X1137570Y802640D02*
X1137610Y802600D01*
X1259840Y807720D02*
Y812800D01*
X1262380Y815340D01*
X1288958D01*
X1259840Y807720D02*
X1260190D01*
X1290130Y816512D02*
Y904430D01*
X1288958Y815340D02*
X1290130Y816512D01*
X1272190Y791210D02*
X1280160D01*
X1213200Y553370D02*
Y650240D01*
Y553370D02*
X1216660Y549910D01*
X748374Y961735D02*
X749140Y962500D01*
X745546Y961735D02*
X748374D01*
X745522Y961710D02*
X745546Y961735D01*
X694990Y949770D02*
X697720Y952500D01*
X758288D02*
X759460Y951328D01*
X759945Y956500D02*
X764500Y951945D01*
Y884220D02*
Y951945D01*
X759460Y946150D02*
Y951328D01*
X695931Y956500D02*
X759945D01*
X697720Y952500D02*
X758288D01*
X693201Y953770D02*
X695931Y956500D01*
X695484Y961710D02*
X745522D01*
X552450Y948690D02*
X557530Y953770D01*
X863400Y851970D02*
X865170Y850200D01*
X878840Y864200D02*
Y864232D01*
X879960Y847600D02*
X881042D01*
X881385Y841600D02*
X890703Y832283D01*
X871328Y856970D02*
X874098Y854200D01*
X674120Y496820D02*
Y521970D01*
X834390Y842470D02*
X834660Y842200D01*
X877360Y850200D02*
X879960Y847600D01*
X865170Y850200D02*
X877360D01*
X836317Y846200D02*
X873957D01*
X878557Y841600D02*
X881385D01*
X875755Y858200D02*
X881925D01*
X874098Y854200D02*
X883582D01*
X889380Y859998D01*
X871985Y861970D02*
X875755Y858200D01*
X836047Y846470D02*
X836317Y846200D01*
X881925Y858200D02*
X885380Y861655D01*
X873957Y846200D02*
X878557Y841600D01*
X834660Y842200D02*
X872300D01*
X885046Y829454D01*
X674120Y521970D02*
Y572520D01*
X793014Y873024D02*
X795514D01*
X796960Y874470D01*
Y876970D01*
X799404Y879414D01*
Y884124D02*
X799500Y884220D01*
X799404Y879414D02*
Y884124D01*
X754500Y794720D02*
Y805262D01*
X1115060Y740410D02*
Y811530D01*
X1121130Y817600D02*
X1160300D01*
X1115060Y811530D02*
X1121130Y817600D01*
X1115060Y740410D02*
X1122680Y732790D01*
X1201491Y833791D02*
Y837885D01*
X1196300Y838350D02*
X1198880Y840930D01*
X1187450Y892810D02*
X1198880Y881380D01*
Y840930D02*
Y881380D01*
X1201491Y837885D02*
X1202880Y839273D01*
X1184910Y901313D02*
X1202880Y883343D01*
X1201300Y833600D02*
X1201491Y833791D01*
X1202880Y839273D02*
Y883343D01*
X1140460Y725740D02*
X1140810Y726090D01*
X1134460Y703230D02*
X1146620Y691070D01*
X1134460Y703230D02*
Y730600D01*
X1130460Y746920D02*
X1139190Y755650D01*
X1134460Y730600D02*
X1148300Y744440D01*
X1130460Y700880D02*
Y746920D01*
Y700880D02*
X1144270Y687070D01*
X1140810Y726090D02*
X1153160D01*
X1148300Y744440D02*
X1164810D01*
X1259440Y828040D02*
Y840740D01*
X1227300Y827600D02*
X1258378D01*
X1221300Y833600D02*
Y860868D01*
Y728550D02*
Y766600D01*
X1138320Y772600D02*
X1160300D01*
X774500Y794720D02*
Y806225D01*
X1240790Y709390D02*
Y750570D01*
X1249490Y759270D02*
X1288167D01*
X1240790Y750570D02*
X1249490Y759270D01*
X1236790Y752227D02*
X1247833Y763270D01*
X1286510D01*
X1236790Y709390D02*
Y752227D01*
X1174750Y874680D02*
Y887730D01*
X1184910Y901313D02*
Y902970D01*
X1207370Y909320D02*
Y948220D01*
X1180910Y899350D02*
Y902970D01*
X1184910D02*
X1191260Y909320D01*
X1207370D01*
X1187450Y892810D02*
X1187450D01*
X1180910Y899350D02*
X1187450Y892810D01*
X1174560Y909320D02*
X1180910Y902970D01*
X697257Y879470D02*
X707609D01*
X686905D02*
X697257D01*
X699770Y887730D02*
X717550D01*
X697257Y885217D02*
X699770Y887730D01*
X697257Y879470D02*
Y885217D01*
X726757Y917442D02*
X728980Y919665D01*
Y931260D01*
X732757Y910833D02*
Y914750D01*
X726757Y908347D02*
X729500Y905605D01*
X732757Y910833D02*
X735000Y908590D01*
X726757Y908347D02*
Y917442D01*
X727498Y873971D02*
X729550Y871920D01*
X727498Y873971D02*
Y877211D01*
X724596Y880114D02*
X727498Y877211D01*
X724596Y880114D02*
Y884124D01*
X724500Y884220D02*
X724596Y884124D01*
X796208Y831970D02*
X806750D01*
X717250Y826970D02*
X728755D01*
X678580Y806450D02*
Y819150D01*
X812800Y754570D02*
X881723D01*
X802253D02*
X812800D01*
X812656Y759316D02*
X812800Y759172D01*
Y754570D02*
Y759172D01*
X681120Y816610D02*
X688500D01*
X704500D02*
X716890D01*
X702950Y818520D02*
X706400Y821970D01*
X677830Y833120D02*
Y840105D01*
Y847090D01*
X687865Y840105D02*
X688500Y840740D01*
X677830Y840105D02*
X687865D01*
X691230Y840740D02*
X692190D01*
X693420Y841970D01*
X717250D01*
X832040Y664407D02*
Y670947D01*
X829500Y673487D02*
X832040Y670947D01*
X892810Y572770D02*
Y603637D01*
X832040Y664407D02*
X892810Y603637D01*
X829500Y673487D02*
Y718225D01*
X892810Y557530D02*
Y572770D01*
X877570Y542290D02*
X892810Y557530D01*
X877570Y521970D02*
Y542290D01*
X877570Y521970D02*
X877570Y521970D01*
X877570Y496570D02*
Y521970D01*
X877570Y496570D02*
X877570Y496570D01*
X711500Y857470D02*
X712000Y856970D01*
X702810Y857470D02*
X711500D01*
X712000Y856970D02*
X717250D01*
X702310D02*
X702810Y857470D01*
X918210Y554990D02*
Y572770D01*
X902970Y496570D02*
Y521970D01*
X837310Y717550D02*
X837500D01*
X896810Y594170D02*
X918210Y572770D01*
X896810Y594170D02*
Y605294D01*
X902970Y539750D02*
X918210Y554990D01*
X836040Y666064D02*
X896810Y605294D01*
X902970Y521970D02*
Y539750D01*
Y521970D02*
X902970Y521970D01*
X833500Y713740D02*
X837310Y717550D01*
X833500Y675144D02*
Y713740D01*
Y675144D02*
X836040Y672604D01*
Y666064D02*
Y672604D01*
X708795Y866970D02*
X717250D01*
X704795Y870970D02*
X708795Y866970D01*
X699825Y870970D02*
X704795D01*
X693420Y864565D02*
X699825Y870970D01*
X693420Y859790D02*
Y864565D01*
Y859790D02*
X694240Y858970D01*
X706400Y821970D02*
X717250D01*
X678580Y819150D02*
X681120Y816610D01*
X716890D02*
X717250Y816970D01*
X693755Y850970D02*
X706295D01*
X683665Y861060D02*
X693755Y850970D01*
X677830Y861060D02*
X683665D01*
X909130Y776700D02*
X914750Y782320D01*
X903853Y776700D02*
X909130D01*
X881723Y754570D02*
X903853Y776700D01*
X735000Y889970D02*
Y908590D01*
X734500Y889470D02*
X735000Y889970D01*
X734500Y884220D02*
Y889470D01*
X709452Y871970D02*
X717250D01*
X706452Y874970D02*
X709452Y871970D01*
X696002Y874970D02*
X706452D01*
X694502Y873470D02*
X696002Y874970D01*
X693420Y873470D02*
X694502D01*
X796100Y748417D02*
X802253Y754570D01*
X621152Y780388D02*
X622680Y778860D01*
X621152Y780388D02*
X621152D01*
X794928Y726440D02*
X796100Y727612D01*
Y748417D01*
X631074Y726440D02*
X794928D01*
X622680Y734834D02*
Y778860D01*
Y734834D02*
X631074Y726440D01*
X888810Y594170D02*
Y601980D01*
X867410Y572770D02*
X888810Y594170D01*
X867410Y553720D02*
Y572770D01*
X852170Y538480D02*
X867410Y553720D01*
X852170Y521970D02*
Y538480D01*
Y496570D02*
Y521970D01*
X821500Y717550D02*
X821690D01*
X825500Y713740D01*
X828040Y662750D02*
X888810Y601980D01*
X825500Y671830D02*
X828040Y669290D01*
X825500Y671830D02*
Y713740D01*
X828040Y662750D02*
Y669290D01*
X859060Y717550D02*
X861060Y715550D01*
X824418Y739140D02*
X825500D01*
X826582D02*
X829662Y742220D01*
X825500Y739140D02*
X826582D01*
X815709Y730250D02*
X881380D01*
X799899Y714440D02*
X815709Y730250D01*
X807333Y746220D02*
X909130D01*
X803910Y750570D02*
X883380D01*
X905510Y772700D01*
X800100Y746760D02*
X803910Y750570D01*
X800100Y727802D02*
Y746760D01*
Y725955D02*
Y727802D01*
X909130Y746220D02*
X914750Y751840D01*
X804100Y742987D02*
X807333Y746220D01*
X804100Y724298D02*
Y742987D01*
X829662Y742220D02*
X909130D01*
X914750Y736600D01*
X767780Y714440D02*
X799899D01*
X1130300Y788670D02*
X1131745D01*
X1077870Y866860D02*
X1078230Y867220D01*
Y887730D01*
X848550Y770700D02*
X855628Y763622D01*
X871043D01*
X889510Y925146D02*
X894460Y930096D01*
X881510Y927642D02*
Y928459D01*
X889510Y920175D02*
X900703Y908983D01*
X885046Y826626D02*
Y829454D01*
X895510Y922661D02*
Y922663D01*
X896703Y826983D02*
Y907326D01*
X886460Y933409D02*
Y995778D01*
X890460Y931753D02*
Y997435D01*
X879510Y925642D02*
X881510Y927642D01*
X885510Y918518D02*
Y926803D01*
X894460Y930096D02*
Y1003398D01*
X885510Y926803D02*
X890460Y931753D01*
X881510Y928459D02*
X886460Y933409D01*
X900703Y825326D02*
Y908983D01*
X885510Y918518D02*
X896703Y907326D01*
X889510Y920175D02*
Y925146D01*
X879510Y924560D02*
Y925642D01*
X744927Y1000950D02*
X886945D01*
X865060Y715550D02*
X867060Y717550D01*
X865060Y709930D02*
Y715550D01*
X1032510Y786320D02*
X1032870Y786680D01*
X1032510Y763270D02*
Y786320D01*
X648720Y1055620D02*
Y1106170D01*
X572520Y1106170D02*
Y1131320D01*
Y1055620D02*
Y1106170D01*
X895510Y922663D02*
X898590Y925743D01*
X886945Y1000950D02*
X890460Y997435D01*
X648720Y1106170D02*
Y1131320D01*
X806750Y846970D02*
X811293D01*
X812500Y846470D02*
X818358D01*
X812500Y842470D02*
X820015D01*
X806750Y841970D02*
X811293D01*
X1019810Y557530D02*
Y572770D01*
X1004570Y542290D02*
X1019810Y557530D01*
X1004570Y521970D02*
X1004570Y521970D01*
X1004570Y521970D02*
Y542290D01*
X1004570Y496570D02*
X1004570Y496570D01*
X1004570Y496570D02*
Y521970D01*
X827102Y846930D02*
X827562Y846470D01*
X836047D01*
X818818Y846930D02*
X827102D01*
X818358Y846470D02*
X818818Y846930D01*
X994410Y549910D02*
Y572770D01*
X979470Y534970D02*
X994410Y549910D01*
X979470Y522270D02*
Y534970D01*
X979170Y521970D02*
X979470Y522270D01*
X979170Y496570D02*
Y521970D01*
X820475Y842930D02*
X825445D01*
X825905Y842470D01*
X820015D02*
X820475Y842930D01*
X825905Y842470D02*
X834390D01*
X1007300Y585280D02*
X1019810Y572770D01*
X994410D02*
X1003300Y581660D01*
X1007300Y585280D02*
Y646817D01*
X1003300Y581660D02*
Y645160D01*
X998797Y655320D02*
X1007300Y646817D01*
X919670Y655320D02*
X998797D01*
X997140Y651320D02*
X1003300Y645160D01*
X918013Y651320D02*
X997140D01*
X861060Y708273D02*
X918013Y651320D01*
X865060Y709930D02*
X919670Y655320D01*
X861060Y708273D02*
Y715550D01*
X686972Y949770D02*
X694990D01*
X685800Y892810D02*
Y948598D01*
X686972Y949770D01*
X739014Y944945D02*
X740815D01*
X738680Y944611D02*
X739014Y944945D01*
X738680Y934260D02*
Y944611D01*
X740815Y944945D02*
X741581Y945710D01*
X759460Y946150D02*
X759500Y946110D01*
Y884220D02*
Y946110D01*
X809438Y612925D02*
Y644828D01*
X747826Y706440D02*
X809438Y644828D01*
X629429Y804978D02*
X632258D01*
X811782Y593342D02*
Y610582D01*
X809438Y612925D02*
X811782Y610582D01*
X791210Y572770D02*
X811782Y593342D01*
X791210Y537710D02*
Y572770D01*
X775470Y521970D02*
X791210Y537710D01*
X622687Y811720D02*
X629429Y804978D01*
X589083Y811720D02*
X622687D01*
X584200Y800965D02*
Y806837D01*
X589083Y811720D01*
X580140Y791935D02*
Y796905D01*
X584200Y800965D01*
X580140Y791935D02*
X582140Y789934D01*
X602680Y726550D02*
Y759326D01*
X589373Y772633D02*
X602680Y759326D01*
X622789Y706440D02*
X747826D01*
X602680Y726550D02*
X622789Y706440D01*
X582140Y779866D02*
X589373Y772633D01*
X582140Y779866D02*
Y789934D01*
X589373Y772633D02*
Y772633D01*
X739000Y908590D02*
X741000Y910590D01*
X739000Y889970D02*
X739500Y889470D01*
Y884220D02*
Y889470D01*
X739000Y889970D02*
Y908590D01*
X712000Y861970D02*
X717250D01*
X711500Y861470D02*
X712000Y861970D01*
X706295Y861470D02*
X711500D01*
X702310Y864970D02*
X702795D01*
X706295Y861470D01*
X842010Y537210D02*
Y572770D01*
X820610Y594170D02*
X842010Y572770D01*
X826770Y521970D02*
X842010Y537210D01*
X751140Y714440D02*
X817438Y648142D01*
Y616238D02*
Y648142D01*
X820610Y594170D02*
Y613067D01*
X826770Y496570D02*
Y521970D01*
X817438Y616238D02*
X820610Y613067D01*
X621030Y807720D02*
X626601Y802149D01*
X590740Y807720D02*
X621030D01*
X588200Y800845D02*
Y805180D01*
X590740Y807720D01*
X626601Y799321D02*
Y802149D01*
X599030Y774290D02*
X610680Y762639D01*
Y729863D02*
X626103Y714440D01*
X751140D01*
X610680Y729863D02*
Y762639D01*
X592140Y791935D02*
Y796905D01*
X590140Y789934D02*
X592140Y791935D01*
X588200Y800845D02*
X592140Y796905D01*
X590140Y783180D02*
X599030Y774290D01*
Y774290D02*
Y774290D01*
X590140Y783180D02*
Y789934D01*
X600870Y789180D02*
Y789940D01*
X599630Y787940D02*
X600870Y789180D01*
X641160Y784267D02*
Y856078D01*
X645160Y785924D02*
Y858520D01*
X649160Y788869D02*
Y860870D01*
X653160Y790526D02*
Y862527D01*
Y790526D02*
X656590Y787096D01*
X637540Y878147D02*
X653160Y862527D01*
X637540Y878147D02*
Y894467D01*
X619950Y912057D02*
X637540Y894467D01*
X656590Y787096D02*
X687629D01*
X649160Y788869D02*
X654933Y783096D01*
X633540Y876490D02*
X649160Y860870D01*
X633540Y876490D02*
Y892810D01*
X615950Y910400D02*
X633540Y892810D01*
X654933Y783096D02*
X689286D01*
X645160Y785924D02*
X651988Y779096D01*
X642430Y861250D02*
X645160Y858520D01*
X651988Y779096D02*
X733828D01*
X621030Y861250D02*
X642430D01*
X641160Y784267D02*
X650332Y775096D01*
X639988Y857250D02*
X641160Y856078D01*
X650332Y775096D02*
X735485D01*
X621030Y857250D02*
X639988D01*
X617270Y853490D02*
X621030Y857250D01*
X617270Y833828D02*
Y853490D01*
Y865010D02*
X621030Y861250D01*
X586140Y781523D02*
Y794420D01*
X618680Y733177D02*
Y773940D01*
X608680Y783940D02*
X618680Y773940D01*
X586140Y781523D02*
X594201Y773461D01*
Y773461D02*
Y773461D01*
Y773461D02*
X606680Y760983D01*
X565310Y777382D02*
Y779725D01*
X571310Y778211D02*
X594680Y754840D01*
X575310Y781039D02*
Y783867D01*
X561092Y792429D02*
X571310Y782210D01*
Y778211D02*
Y782210D01*
X565092Y794085D02*
X575310Y783867D01*
X699520Y496820D02*
Y572520D01*
X575310Y781039D02*
X598680Y757669D01*
X617270Y865010D02*
Y883828D01*
X599630Y780860D02*
X614680Y765810D01*
X606680Y728206D02*
Y760983D01*
X614680Y731520D02*
Y765810D01*
X624446Y710440D02*
X749483D01*
X606680Y728206D02*
X624446Y710440D01*
X599630Y780860D02*
Y787940D01*
X744596Y901296D02*
X745000Y901700D01*
X744596Y884316D02*
Y901296D01*
X744500Y884220D02*
X744596Y884316D01*
X798242Y718440D02*
X804100Y724298D01*
X614680Y731520D02*
X627760Y718440D01*
X798242D01*
X813438Y614582D02*
X816610Y611410D01*
Y572770D02*
Y611410D01*
Y537710D02*
Y572770D01*
X800870Y521970D02*
X816610Y537710D01*
X813438Y614582D02*
Y646485D01*
X749483Y710440D02*
X813438Y646485D01*
X625227Y726630D02*
X629417Y722440D01*
X796585D01*
X800100Y725955D01*
X618680Y733177D02*
X625227Y726630D01*
X885190Y815470D02*
X896703Y826983D01*
X886847Y811470D02*
X900703Y825326D01*
X896222Y1012950D02*
X904703Y1004470D01*
Y823669D02*
Y1004470D01*
X888504Y807470D02*
X904703Y823669D01*
X897879Y1016950D02*
X908703Y1006126D01*
Y822012D02*
Y1006126D01*
X890161Y803470D02*
X908703Y822012D01*
X912703Y800943D02*
Y919322D01*
X895350Y783590D02*
X912703Y800943D01*
X989441Y996060D02*
X1197413D01*
X912703Y919322D02*
X989441Y996060D01*
X991097Y992060D02*
X1199070D01*
X916703Y917665D02*
X991097Y992060D01*
X916703Y799286D02*
Y917665D01*
X897007Y779590D02*
X916703Y799286D01*
X806790Y836930D02*
X822960D01*
X806750Y836970D02*
X806790Y836930D01*
X816523Y890590D02*
X880208D01*
X818179Y894590D02*
X883668D01*
X819836Y898590D02*
X887030D01*
X826040Y906590D02*
X828040Y904590D01*
X880208Y890590D02*
X881380Y889418D01*
Y866772D02*
Y889418D01*
X878840Y864232D02*
X881380Y866772D01*
X801180Y905933D02*
X816523Y890590D01*
X805180Y907589D02*
X818179Y894590D01*
X883668D02*
X885380Y892878D01*
Y861655D02*
Y892878D01*
X809180Y909246D02*
X819836Y898590D01*
X887030D02*
X889380Y896240D01*
Y859998D02*
Y896240D01*
X817493Y906590D02*
X826040D01*
X821690Y868680D02*
X836930D01*
X818400Y871970D02*
X821690Y868680D01*
X742987Y937297D02*
X749300Y943610D01*
X735680Y931260D02*
X738680Y934260D01*
X742987Y918173D02*
Y937297D01*
X728980Y931260D02*
X735680D01*
X806750Y871970D02*
X818400D01*
X828960Y876970D02*
X851170D01*
X806750D02*
X828960D01*
X806750Y826970D02*
X851570D01*
X730250Y743300D02*
X742030D01*
X744220Y745490D01*
Y753110D01*
X748430Y757320D01*
X754380D01*
X716280Y743300D02*
X730250D01*
X767080Y757320D02*
X779780D01*
X754380D02*
X767080D01*
X806750Y851970D02*
X863400D01*
X806750Y861970D02*
X871985D01*
X806750Y856970D02*
X871328D01*
X743865Y965710D02*
X744865Y966710D01*
X801180Y905933D02*
Y941953D01*
X772638Y970495D02*
X801180Y941953D01*
X748030Y970495D02*
X772638D01*
X744865Y967329D02*
X748030Y970495D01*
X744865Y966710D02*
Y967329D01*
X572520Y496820D02*
Y572520D01*
X597920Y496820D02*
Y572520D01*
X817180Y912560D02*
Y948580D01*
X779266Y986495D02*
X817180Y948580D01*
X819150Y910590D02*
X826040D01*
X817180Y912560D02*
X819150Y910590D01*
X741385Y986495D02*
X779266D01*
X736600Y981710D02*
X741385Y986495D01*
X687200Y981710D02*
X736600D01*
X683260Y977770D02*
X687200Y981710D01*
X826040Y910590D02*
X828040Y912590D01*
X583470Y583470D02*
Y697849D01*
X572770Y572770D02*
X583470Y583470D01*
X547589Y977770D02*
X683260D01*
X540500Y798776D02*
Y823480D01*
X528450Y958631D02*
X547589Y977770D01*
X541092Y767458D02*
Y798185D01*
X540500Y798776D02*
X541092Y798185D01*
X528450Y872490D02*
X528910Y872029D01*
X528450Y872490D02*
Y958631D01*
X528910Y835070D02*
X540500Y823480D01*
X528910Y835070D02*
Y872029D01*
X570680Y710638D02*
X583470Y697849D01*
X572520Y572520D02*
X572770Y572770D01*
X570680Y710638D02*
Y737870D01*
X541092Y767458D02*
X570680Y737870D01*
X572270Y496570D02*
X572520Y496820D01*
X788000Y899160D02*
X789500Y897660D01*
Y884220D02*
Y897660D01*
X813180Y910903D02*
Y946924D01*
Y910903D02*
X817493Y906590D01*
X777609Y982495D02*
X813180Y946924D01*
X743042Y982495D02*
X777609D01*
X738257Y977710D02*
X743042Y982495D01*
X688857Y977710D02*
X738257D01*
X684917Y973770D02*
X688857Y977710D01*
X597920Y572520D02*
X598170Y572770D01*
X549246Y973770D02*
X684917D01*
X544500Y820713D02*
Y825137D01*
X532450Y956974D02*
X549246Y973770D01*
X545092Y770287D02*
Y820121D01*
X544500Y820713D02*
X545092Y820121D01*
X532450Y875318D02*
X532910Y874858D01*
X532450Y875318D02*
Y956974D01*
X532910Y836726D02*
X544500Y825137D01*
X532910Y836726D02*
Y874858D01*
X587470Y583470D02*
X598170Y572770D01*
X597670Y496570D02*
X597920Y496820D01*
X574680Y712295D02*
Y740698D01*
X545092Y770287D02*
X574680Y740698D01*
X587470Y583470D02*
Y699505D01*
X574680Y712295D02*
X587470Y699505D01*
X794500Y897660D02*
X796000Y899160D01*
X794500Y884220D02*
Y897660D01*
X648720Y496820D02*
Y521970D01*
Y572520D01*
X623320Y521970D02*
Y572520D01*
Y496820D02*
Y521970D01*
X805180Y907589D02*
Y943610D01*
X809180Y909246D02*
Y945267D01*
X774295Y974495D02*
X805180Y943610D01*
X746355Y974495D02*
X774295D01*
X741571Y969710D02*
X746355Y974495D01*
X692171Y969710D02*
X741571D01*
X688231Y965770D02*
X692171Y969710D01*
X648720Y572520D02*
X648970Y572770D01*
X638270Y583470D02*
X648970Y572770D01*
X638270Y583470D02*
Y595477D01*
X648470Y496570D02*
X648720Y496820D01*
X552560Y965770D02*
X688231D01*
X540450Y953661D02*
X552560Y965770D01*
X552500Y824027D02*
X553092Y823435D01*
X552500Y824027D02*
Y828450D01*
X540450Y880975D02*
X540910Y880515D01*
X540450Y880975D02*
Y953661D01*
X540910Y840040D02*
X552500Y828450D01*
X540910Y840040D02*
Y880515D01*
X595470Y617613D02*
X608373Y604710D01*
X582680Y715609D02*
X595470Y702819D01*
X629037Y604710D02*
X638270Y595477D01*
X608373Y604710D02*
X629037D01*
X553092Y775944D02*
X582680Y746355D01*
X553092Y775944D02*
Y823435D01*
X595470Y617613D02*
Y702819D01*
X582680Y715609D02*
Y746355D01*
X775952Y978495D02*
X809180Y945267D01*
X744698Y978495D02*
X775952D01*
X739914Y973710D02*
X744698Y978495D01*
X690514Y973710D02*
X739914D01*
X686574Y969770D02*
X690514Y973710D01*
X634270Y583470D02*
Y593820D01*
X627380Y600710D02*
X634270Y593820D01*
X623570Y572770D02*
X634270Y583470D01*
X623320Y572520D02*
X623570Y572770D01*
X623070Y496570D02*
X623320Y496820D01*
X550903Y969770D02*
X686574D01*
X536450Y955317D02*
X550903Y969770D01*
X548500Y822370D02*
X549092Y821778D01*
X548500Y822370D02*
Y826794D01*
X536450Y878147D02*
X536911Y877686D01*
X536450Y878147D02*
Y955317D01*
X536911Y838383D02*
X548500Y826794D01*
X536911Y838383D02*
Y877686D01*
X591470Y615956D02*
X606716Y600710D01*
X578680Y713952D02*
X591470Y701162D01*
X606716Y600710D02*
X627380D01*
X549092Y773115D02*
X578680Y743527D01*
X549092Y773115D02*
Y821778D01*
X591470Y615956D02*
Y701162D01*
X578680Y713952D02*
Y743527D01*
X693827Y965710D02*
X743865D01*
X689887Y961770D02*
X693827Y965710D01*
X675800Y608710D02*
X685070Y599440D01*
Y583470D02*
Y599440D01*
X674370Y572770D02*
X685070Y583470D01*
X674120Y572520D02*
X674370Y572770D01*
X673870Y496570D02*
X674120Y496820D01*
X554216Y961770D02*
X689887D01*
X544911Y841697D02*
X556500Y830107D01*
Y825684D02*
X557092Y825092D01*
X556500Y825684D02*
Y830107D01*
X544450Y883804D02*
Y952004D01*
X554216Y961770D01*
X544911Y841697D02*
Y883343D01*
X544450Y883804D02*
X544911Y883343D01*
X599470Y619269D02*
X610029Y608710D01*
X586680Y717266D02*
X599470Y704476D01*
X610029Y608710D02*
X675800D01*
X557092Y778772D02*
X586680Y749184D01*
X557092Y778772D02*
Y825092D01*
X599470Y619269D02*
Y704476D01*
X586680Y717266D02*
Y749184D01*
X742987Y918173D02*
X747000Y914160D01*
X557530Y953770D02*
X693201D01*
X565092Y794085D02*
Y828406D01*
X561092Y792429D02*
Y826749D01*
X713397Y621220D02*
X739870Y594747D01*
Y583470D02*
Y594747D01*
X611470Y624240D02*
Y709446D01*
X614490Y621220D02*
X713397D01*
X739870Y583470D02*
X750570Y572770D01*
X750070Y572270D02*
X750570Y572770D01*
X750070Y521970D02*
Y572270D01*
X598680Y722236D02*
X611470Y709446D01*
Y624240D02*
X614490Y621220D01*
X598680Y722236D02*
Y757669D01*
X751000Y898390D02*
Y906350D01*
X747000Y910350D02*
X751000Y906350D01*
X749500Y896890D02*
X751000Y898390D01*
X747000Y910350D02*
Y914160D01*
X749500Y884220D02*
Y896890D01*
X735870Y583470D02*
Y593090D01*
X725170Y572770D02*
X735870Y583470D01*
X724920Y522220D02*
Y572520D01*
X725170Y572770D01*
X724670Y521970D02*
X724920Y522220D01*
X594680Y720580D02*
Y754840D01*
X711740Y617220D02*
X735870Y593090D01*
X612833Y617220D02*
X711740D01*
X607470Y622583D02*
Y707790D01*
X594680Y720580D02*
X607470Y707790D01*
Y622583D02*
X612833Y617220D01*
X691544Y957770D02*
X695484Y961710D01*
X555873Y957770D02*
X691544D01*
X548450Y950347D02*
X555873Y957770D01*
X548450Y886632D02*
Y950347D01*
Y886632D02*
X548910Y886172D01*
X552450Y889000D02*
Y948690D01*
X548910Y843354D02*
Y886172D01*
X552450Y889000D02*
X552910Y888540D01*
Y845011D02*
Y888540D01*
X548910Y843354D02*
X560500Y831764D01*
Y827340D02*
Y831764D01*
Y827340D02*
X561092Y826749D01*
X552910Y845011D02*
X564500Y833421D01*
Y828997D02*
Y833421D01*
Y828997D02*
X565092Y828406D01*
X565310Y777382D02*
X590680Y752012D01*
Y718923D02*
Y752012D01*
Y718923D02*
X603470Y706133D01*
X748987Y920750D02*
X755000Y914737D01*
Y896733D02*
Y914737D01*
X754500Y896233D02*
X755000Y896733D01*
X754500Y884220D02*
Y896233D01*
X905510Y772700D02*
X909130D01*
X914750Y767080D01*
X699520Y572520D02*
X699770Y572770D01*
X699270Y496570D02*
X699520Y496820D01*
X677457Y612710D02*
X689070Y601097D01*
Y583470D02*
Y601097D01*
X611686Y612710D02*
X677457D01*
X689070Y583470D02*
X699770Y572770D01*
X603470Y620926D02*
Y706133D01*
Y620926D02*
X611686Y612710D01*
X1047403Y482947D02*
X1086040Y521583D01*
X1047403Y475327D02*
Y482947D01*
X1040130Y481330D02*
X1082040Y523240D01*
X1035685Y481330D02*
X1040130D01*
X1029970Y496570D02*
X1033414Y493126D01*
Y483601D02*
X1035685Y481330D01*
X1033414Y483601D02*
Y493126D01*
X1144270Y843280D02*
X1160780D01*
X1166109Y837951D01*
X1138515Y839280D02*
X1142515Y843280D01*
X1166109Y833791D02*
X1166300Y833600D01*
X1166109Y833791D02*
Y837951D01*
X1142515Y843280D02*
X1144270D01*
X1114673Y839280D02*
X1138515D01*
X1106370Y830977D02*
X1114673Y839280D01*
X1106370Y830977D02*
Y830977D01*
X1106370Y817880D02*
X1106370Y830977D01*
X1106370Y766010D02*
Y817880D01*
X1098550Y758190D02*
X1106370Y766010D01*
X1072763Y758190D02*
X1098550D01*
X1051370Y628263D02*
X1082040Y597593D01*
X1051370Y736797D02*
X1072763Y758190D01*
X1051370Y628263D02*
Y736797D01*
X1082040Y523240D02*
Y597593D01*
X1143000Y835280D02*
X1148460D01*
X1155949Y827791D02*
X1160109D01*
X1116330Y835280D02*
X1143000D01*
X1110370Y829320D02*
X1116330Y835280D01*
X1110370Y829320D02*
Y829320D01*
X1148460Y835280D02*
X1155949Y827791D01*
X1110370Y817880D02*
X1110370Y829320D01*
X1160109Y827791D02*
X1160300Y827600D01*
X1110370Y764353D02*
Y817880D01*
X1100207Y754190D02*
X1110370Y764353D01*
X1074420Y754190D02*
X1100207D01*
X1055370Y735140D02*
X1074420Y754190D01*
X1055370Y629920D02*
Y735140D01*
X1086040Y521583D02*
Y599250D01*
X1055370Y629920D02*
X1086040Y599250D01*
X1125570Y793400D02*
X1130300Y788670D01*
X1125570Y793400D02*
Y802640D01*
X1162050Y861930D02*
Y861980D01*
Y853324D02*
Y861930D01*
X850207Y774700D02*
X855287Y769620D01*
X796576Y774700D02*
X850207D01*
X789000Y782276D02*
X796576Y774700D01*
X789000Y782276D02*
Y788970D01*
X784500Y789470D02*
Y794720D01*
Y789470D02*
X785000Y788970D01*
Y780620D02*
Y788970D01*
Y780620D02*
X794920Y770700D01*
X848550D01*
X797343Y779590D02*
X880497D01*
X799000Y783590D02*
X895350D01*
X795000Y781933D02*
X797343Y779590D01*
X795000Y781933D02*
Y788970D01*
X799000Y783590D02*
Y788970D01*
X880497Y779590D02*
X897007D01*
X799000Y788970D02*
X799500Y789470D01*
Y794720D01*
X794500Y789470D02*
X795000Y788970D01*
X794500Y789470D02*
Y794720D01*
X789000Y788970D02*
X789500Y789470D01*
Y794720D01*
X855287Y769620D02*
X869220D01*
X871220Y771620D01*
X885288Y996950D02*
X886460Y995778D01*
X609280Y1018860D02*
X721360D01*
X572270Y1131570D02*
X572520Y1131320D01*
Y1055620D02*
X572770Y1055370D01*
X743270Y996950D02*
X885288D01*
X721360Y1018860D02*
X743270Y996950D01*
X572770Y1055370D02*
X609280Y1018860D01*
X898590Y925743D02*
Y1004925D01*
X894565Y1008950D02*
X898590Y1004925D01*
X648720Y1055620D02*
X648970Y1055370D01*
X648470Y1131570D02*
X648720Y1131320D01*
X748241Y1008950D02*
X894565D01*
X673480Y1030860D02*
X726330D01*
X648970Y1055370D02*
X673480Y1030860D01*
X726330D02*
X748241Y1008950D01*
X892908Y1004950D02*
X894460Y1003398D01*
X674120Y1106170D02*
Y1131320D01*
X746584Y1004950D02*
X892908D01*
X749897Y1012950D02*
X896222D01*
X674120Y1055620D02*
Y1106170D01*
X699270D02*
Y1131570D01*
X751554Y1016950D02*
X897879D01*
X699270Y1055870D02*
Y1106170D01*
Y1055870D02*
X699770Y1055370D01*
X729644Y1038860D02*
X751554Y1016950D01*
X699770Y1055370D02*
X716280Y1038860D01*
X729644D01*
X814157Y803470D02*
X890161D01*
X812657Y801970D02*
X814157Y803470D01*
X806750Y801970D02*
X812657D01*
X674120Y1055620D02*
X674370Y1055370D01*
X673870Y1131570D02*
X674120Y1131320D01*
X727987Y1034860D02*
X749897Y1012950D01*
X694880Y1034860D02*
X727987D01*
X674370Y1055370D02*
X694880Y1034860D01*
X812500Y807470D02*
X888504D01*
X812000Y806970D02*
X812500Y807470D01*
X806750Y806970D02*
X812000D01*
X623320Y1106170D02*
Y1131320D01*
X597920Y1055620D02*
Y1106170D01*
X623320Y1055620D02*
Y1106170D01*
X597920D02*
Y1131320D01*
Y1055620D02*
X598170Y1055370D01*
X597670Y1131570D02*
X597920Y1131320D01*
X723017Y1022860D02*
X744927Y1000950D01*
X630680Y1022860D02*
X723017D01*
X598170Y1055370D02*
X630680Y1022860D01*
X812657Y816970D02*
X814157Y815470D01*
X885190D01*
X806750Y816970D02*
X812657D01*
X623320Y1055620D02*
X623570Y1055370D01*
X623070Y1131570D02*
X623320Y1131320D01*
X724674Y1026860D02*
X746584Y1004950D01*
X652080Y1026860D02*
X724674D01*
X623570Y1055370D02*
X652080Y1026860D01*
X812000Y811970D02*
X812500Y811470D01*
X886847D01*
X806750Y811970D02*
X812000D01*
X1032870Y786680D02*
X1047030D01*
X1049890Y789540D01*
Y808990D01*
X926750Y736600D02*
X941460D01*
X926750Y736600D02*
X926750Y736600D01*
X926750Y751840D02*
X941460D01*
X926750Y767080D02*
X941460D01*
X926750Y782320D02*
X941460D01*
X926750Y782320D02*
X926750Y782320D01*
X877570Y1106170D02*
Y1131570D01*
Y1055370D02*
Y1106170D01*
X877570Y1055370D02*
X877570Y1055370D01*
X729500Y884220D02*
Y905605D01*
X678580Y876300D02*
X679004Y876724D01*
X684158D01*
X686905Y879470D01*
X677830Y847090D02*
X677950Y846970D01*
X707609Y879470D02*
X710109Y876970D01*
X706295Y850970D02*
X707295Y851970D01*
X677950Y846970D02*
X717250D01*
X710109Y876970D02*
X717250D01*
X707295Y851970D02*
X717250D01*
X953770Y521970D02*
Y539750D01*
X969010Y554990D01*
Y572770D01*
X716280Y755300D02*
Y768350D01*
Y785096D02*
X716516Y784860D01*
X719765D01*
X724404Y794624D02*
X724500Y794720D01*
X724404Y789500D02*
Y794624D01*
X719765Y784860D02*
X724404Y789500D01*
X729000Y785610D02*
X729750Y784860D01*
X729000Y785610D02*
X729404Y786014D01*
Y794624D01*
X729500Y794720D01*
X633220Y936430D02*
X666710D01*
X666750Y936390D01*
X571500D02*
X601180D01*
X601220Y936430D01*
X627010Y935430D02*
X632220D01*
X712000Y806970D02*
X717250D01*
X711500Y806470D02*
X712000Y806970D01*
X707003Y806470D02*
X711500D01*
X687629Y787096D02*
X707003Y806470D01*
X711500Y802470D02*
X712000Y801970D01*
X717250D01*
X708660Y802470D02*
X711500D01*
X689286Y783096D02*
X708660Y802470D01*
X632220Y935430D02*
X633220Y936430D01*
X619950Y928370D02*
X627010Y935430D01*
X601220Y936430D02*
X602220Y935430D01*
X608890D01*
X615950Y928370D01*
X619950Y912057D02*
Y928370D01*
X615950Y910400D02*
Y928370D01*
X733828Y779096D02*
X735000Y780267D01*
Y789470D01*
X734500D02*
X735000D01*
X734500D02*
Y794720D01*
X735485Y775096D02*
X739000Y778611D01*
Y780663D01*
Y789470D01*
X739500D01*
Y794720D01*
X571992Y883828D02*
X617270D01*
X851570Y826970D02*
X851770Y826770D01*
X851170Y876970D02*
X851770Y877570D01*
X767080Y757320D02*
Y767080D01*
X764500Y769660D02*
X767080Y767080D01*
X764500Y769660D02*
Y794720D01*
X754380Y757320D02*
Y773430D01*
X759500Y778550D01*
Y794720D01*
X571500Y833990D02*
X571662Y833828D01*
X617270D01*
X571500Y884320D02*
X571992Y883828D01*
X1289970Y975360D02*
Y1010920D01*
X1223010Y975360D02*
X1289970D01*
X1223010Y887730D02*
Y975360D01*
X1210310Y887730D02*
X1223010D01*
X1169670Y1068070D02*
Y1090930D01*
Y1065560D02*
Y1068070D01*
X1221300Y728550D02*
X1221740Y728110D01*
X1240790Y709390D02*
X1242410Y707770D01*
X1234410Y707390D02*
X1234790D01*
X1242410Y707289D02*
Y707770D01*
X1234790Y707390D02*
X1236790Y709390D01*
X1167130Y704922D02*
Y714090D01*
X1164780Y691070D02*
X1168100Y694390D01*
X1167130Y704922D02*
X1168100Y703952D01*
X1159510Y699770D02*
X1162100D01*
X1168100Y694390D02*
Y703952D01*
X1221010Y1002220D02*
X1223010Y1004220D01*
X1203573Y1002220D02*
X1221010D01*
X1197413Y996060D02*
X1203573Y1002220D01*
X1205230Y998220D02*
X1221010D01*
X1199070Y992060D02*
X1205230Y998220D01*
X1221010D02*
X1223010Y996220D01*
X1243330Y995680D02*
Y1012190D01*
X1196975Y1058545D02*
X1243330Y1012190D01*
X1145540Y970280D02*
X1163320Y988060D01*
X1253490D01*
X1258570Y993140D01*
X1196975Y1058545D02*
Y1083456D01*
X1156970Y1131570D02*
X1159361Y1129179D01*
Y1121070D02*
Y1129179D01*
Y1121070D02*
X1196975Y1083456D01*
X1131570Y1117600D02*
Y1131570D01*
Y1117600D02*
X1139190Y1109980D01*
X1150620D01*
X1169670Y1090930D01*
X1173080Y1042670D02*
Y1062150D01*
X1169670Y1065560D02*
X1173080Y1062150D01*
X1144270Y687070D02*
X1182370D01*
X1146620Y691070D02*
X1164780D01*
X1182370Y687070D02*
X1196340Y701040D01*
Y714090D01*
X1153160Y706120D02*
X1159510Y699770D01*
X1175832Y704500D02*
X1178722Y707390D01*
X1181100Y708579D02*
Y714090D01*
X1179911Y707390D02*
X1181100Y708579D01*
X1174750Y704500D02*
X1175832D01*
X1178722Y707390D02*
X1179911D01*
X1162437Y847280D02*
X1164087Y845630D01*
X1159320Y847280D02*
X1162437D01*
X1164087Y845630D02*
X1173670D01*
X1151890Y854710D02*
X1159320Y847280D01*
X1162050Y853324D02*
X1165744Y849630D01*
X1178560D01*
X1151890Y854710D02*
Y899160D01*
X1196300Y726130D02*
Y766600D01*
X1191300Y764079D02*
Y766600D01*
X1190800Y763579D02*
X1191300Y764079D01*
X1231900Y532130D02*
X1231900Y532130D01*
X1231900Y532130D02*
Y549910D01*
X1216660D02*
X1231900D01*
X1190800Y762486D02*
Y763579D01*
X1187450Y759136D02*
X1190800Y762486D01*
X1187450Y752472D02*
X1190300Y749622D01*
X1187450Y752472D02*
Y759136D01*
X1190300Y749300D02*
Y749622D01*
X1196300Y726130D02*
X1196340Y726090D01*
X1294670Y889000D02*
Y917670D01*
X1271270Y941070D02*
X1294670Y917670D01*
X1294130Y770890D02*
Y888460D01*
X1294670Y889000D01*
X1286510Y763270D02*
X1294130Y770890D01*
X1298670Y917670D02*
X1322070Y941070D01*
X1298670Y887343D02*
Y917670D01*
X1298130Y886803D02*
X1298670Y887343D01*
X1298130Y769233D02*
Y886803D01*
X1288167Y759270D02*
X1298130Y769233D01*
X1153160Y706120D02*
Y714090D01*
X1227300Y807600D02*
X1260070D01*
X1258570Y935990D02*
Y948690D01*
Y935990D02*
X1290130Y904430D01*
X1259695Y1012045D02*
X1260820Y1010920D01*
X1258570Y1010920D02*
X1259695Y1012045D01*
X1258570Y993140D02*
Y1010920D01*
X1145540Y905510D02*
Y970280D01*
Y905510D02*
X1151890Y899160D01*
X1173670Y845630D02*
X1176300Y843000D01*
Y833600D02*
Y843000D01*
X1227300Y777600D02*
X1259830D01*
X1164810Y744440D02*
X1166300Y745930D01*
X1153160Y726090D02*
Y737870D01*
X1154430Y739140D01*
X1167130D01*
X1171300Y743310D01*
X1166300Y745930D02*
Y766600D01*
X1198900Y627040D02*
Y637520D01*
X1183290Y664210D02*
X1196690D01*
X1198900Y647540D02*
Y662000D01*
X1196690Y664210D02*
X1198900Y662000D01*
X1258570Y1039150D02*
Y1080770D01*
Y1038160D02*
Y1039150D01*
X1260190Y777240D02*
Y791210D01*
X1259830Y777600D02*
X1260190Y777240D01*
X1216300Y766600D02*
Y777600D01*
X1215800Y778100D02*
X1216300Y777600D01*
X1160300Y792600D02*
X1168300D01*
X1171800Y789100D01*
X1216300Y822600D02*
X1227300D01*
X1215800Y822100D02*
X1216300Y822600D01*
X1160300Y777600D02*
X1171300D01*
X1171800Y778100D01*
X1186300Y825600D02*
Y833600D01*
X1182800Y822100D02*
X1186300Y825600D01*
X1178560Y849630D02*
X1181300Y846890D01*
Y833600D02*
Y846890D01*
X1156570Y948690D02*
X1157370Y947890D01*
Y909320D02*
Y947890D01*
X1206900Y948690D02*
X1207370Y948220D01*
X1157370Y909320D02*
X1174560D01*
X1196300Y833600D02*
Y838350D01*
X1260820Y1010920D02*
X1277970D01*
Y1026160D01*
X1260820Y1041400D02*
X1277970D01*
X1258570Y1039150D02*
X1260820Y1041400D01*
X1243900Y532130D02*
X1262240D01*
X1262350Y532020D01*
X1243900Y549910D02*
X1262240D01*
X1262350Y550020D01*
X1271020Y693420D02*
X1286510D01*
X1287780Y692150D01*
Y665480D02*
Y692150D01*
X1286510Y664210D02*
X1287780Y665480D01*
X1208690Y664210D02*
X1286510D01*
X1260070Y807600D02*
X1260190Y807720D01*
X1201300Y761850D02*
Y766600D01*
X1257020Y691420D02*
X1259020Y693420D01*
X1271020D01*
X1217930Y691420D02*
X1257020D01*
X1209040Y700310D02*
X1217930Y691420D01*
X1216273Y687420D02*
X1257020D01*
X1259020Y685420D01*
X1271020D01*
X1205040Y698653D02*
X1216273Y687420D01*
X1209040Y700310D02*
Y751840D01*
X1205800Y755080D02*
X1209040Y751840D01*
X1205040Y698653D02*
Y750183D01*
X1201800Y753423D02*
X1205040Y750183D01*
X1205800Y755080D02*
Y761350D01*
X1206300Y761850D01*
Y766600D01*
X1201800Y753423D02*
Y761350D01*
X1201300Y761850D02*
X1201800Y761350D01*
X1162050Y861980D02*
X1174750Y874680D01*
Y862680D02*
X1187970D01*
X1188720Y861930D01*
Y849630D02*
Y861930D01*
Y849630D02*
X1191300Y847050D01*
Y833600D02*
Y847050D01*
X1171300Y743310D02*
Y766600D01*
X1167130Y726090D02*
X1181100D01*
Y740410D01*
X1176300Y745210D02*
X1181100Y740410D01*
X1176300Y745210D02*
Y766600D01*
D55*
X572770Y1055370D02*
D03*
X598170D02*
D03*
X623570D02*
D03*
X648970D02*
D03*
X674370D02*
D03*
X791210Y572770D02*
D03*
X816610D02*
D03*
X842010D02*
D03*
X867410D02*
D03*
X892810D02*
D03*
X918210D02*
D03*
X994410D02*
D03*
X969010D02*
D03*
X943610D02*
D03*
D58*
X1137570Y802640D02*
D03*
X1125570D02*
D03*
X677830Y847090D02*
D03*
Y833120D02*
D03*
X1243900Y532130D02*
D03*
X1243900Y549910D02*
D03*
X1289970Y1041400D02*
D03*
X1277970D02*
D03*
X1289970Y1026160D02*
D03*
X1277970D02*
D03*
X1289970Y1010920D02*
D03*
X1277970D02*
D03*
X1260190Y807720D02*
D03*
X1272190D02*
D03*
Y791210D02*
D03*
X1260190D02*
D03*
X1272190Y777240D02*
D03*
X1260190D02*
D03*
X1171290Y664210D02*
D03*
X1183290D02*
D03*
X1196690D02*
D03*
X1208690Y664210D02*
D03*
X1231900Y532130D02*
D03*
X1231900Y549910D02*
D03*
X914750Y736600D02*
D03*
X926750Y736600D02*
D03*
X914750Y751840D02*
D03*
X926750D02*
D03*
X914750Y767080D02*
D03*
X926750D02*
D03*
X914750Y782320D02*
D03*
X926750D02*
D03*
X677830Y861060D02*
D03*
X665830D02*
D03*
Y847090D02*
D03*
Y833120D02*
D03*
D59*
X1139590Y772160D02*
D03*
X1126090D02*
D03*
X678580Y806450D02*
D03*
X1173080Y1042670D02*
D03*
X1186580D02*
D03*
X1259440Y840740D02*
D03*
X1272940D02*
D03*
X1259440Y828040D02*
D03*
X1272940D02*
D03*
X1128630Y502920D02*
D03*
X1142130D02*
D03*
X1128630Y490220D02*
D03*
X1142130D02*
D03*
X1231500Y577850D02*
D03*
X1245000D02*
D03*
X1231500Y565150D02*
D03*
X1245000D02*
D03*
X1063390Y808990D02*
D03*
X1049890D02*
D03*
X851770Y877570D02*
D03*
X865270D02*
D03*
Y826770D02*
D03*
X851770D02*
D03*
X678580Y876300D02*
D03*
X665080D02*
D03*
X678580Y819150D02*
D03*
X665080D02*
D03*
Y806450D02*
D03*
X1206900Y948690D02*
D03*
X1156570Y948690D02*
D03*
X1170070D02*
D03*
X1193400Y948690D02*
D03*
D60*
X762000Y839470D02*
D03*
D61*
X724500Y884220D02*
D03*
X729500D02*
D03*
X734500D02*
D03*
X739500D02*
D03*
X744500D02*
D03*
X749500D02*
D03*
X754500D02*
D03*
X759500D02*
D03*
X764500D02*
D03*
X769500D02*
D03*
X774500D02*
D03*
X779500D02*
D03*
X784500D02*
D03*
X789500D02*
D03*
X794500D02*
D03*
X799500D02*
D03*
Y794720D02*
D03*
X794500D02*
D03*
X789500D02*
D03*
X784500D02*
D03*
X779500D02*
D03*
X774500D02*
D03*
X769500D02*
D03*
X764500D02*
D03*
X759500D02*
D03*
X754500D02*
D03*
X749500D02*
D03*
X744500D02*
D03*
X739500D02*
D03*
X734500D02*
D03*
X729500D02*
D03*
X724500D02*
D03*
D62*
X806750Y876970D02*
D03*
Y871970D02*
D03*
Y866970D02*
D03*
Y861970D02*
D03*
Y856970D02*
D03*
Y851970D02*
D03*
Y846970D02*
D03*
Y841970D02*
D03*
Y836970D02*
D03*
Y831970D02*
D03*
Y826970D02*
D03*
Y821970D02*
D03*
Y816970D02*
D03*
Y811970D02*
D03*
Y806970D02*
D03*
Y801970D02*
D03*
X717250D02*
D03*
Y806970D02*
D03*
Y811970D02*
D03*
Y816970D02*
D03*
Y821970D02*
D03*
Y826970D02*
D03*
Y831970D02*
D03*
Y836970D02*
D03*
Y841970D02*
D03*
Y846970D02*
D03*
Y851970D02*
D03*
Y856970D02*
D03*
Y861970D02*
D03*
Y866970D02*
D03*
Y871970D02*
D03*
Y876970D02*
D03*
D63*
X1193800Y800100D02*
D03*
D64*
X1221300Y833600D02*
D03*
X1216300D02*
D03*
X1211300D02*
D03*
X1206300D02*
D03*
X1201300D02*
D03*
X1196300D02*
D03*
X1191300D02*
D03*
X1186300D02*
D03*
X1181300D02*
D03*
X1176300D02*
D03*
X1171300D02*
D03*
X1166300D02*
D03*
Y766600D02*
D03*
X1171300D02*
D03*
X1176300D02*
D03*
X1181300D02*
D03*
X1186300D02*
D03*
X1191300D02*
D03*
X1196300D02*
D03*
X1201300D02*
D03*
X1206300D02*
D03*
X1211300D02*
D03*
X1216300D02*
D03*
X1221300Y766600D02*
D03*
D65*
X1160300Y827600D02*
D03*
Y822600D02*
D03*
Y817600D02*
D03*
Y812600D02*
D03*
Y807600D02*
D03*
Y802600D02*
D03*
X1160300Y797600D02*
D03*
X1160300Y792600D02*
D03*
Y787600D02*
D03*
Y782600D02*
D03*
Y777600D02*
D03*
Y772600D02*
D03*
X1227300D02*
D03*
Y777600D02*
D03*
Y782600D02*
D03*
Y787600D02*
D03*
Y792600D02*
D03*
Y797600D02*
D03*
Y802600D02*
D03*
Y807600D02*
D03*
Y812600D02*
D03*
Y817600D02*
D03*
Y822600D02*
D03*
Y827600D02*
D03*
D66*
X1290350Y550020D02*
D03*
Y532020D02*
D03*
X1262350D02*
D03*
Y550020D02*
D03*
D67*
X601220Y936430D02*
D03*
Y991430D02*
D03*
X633220Y936430D02*
D03*
Y991430D02*
D03*
D68*
X1176450Y637540D02*
D03*
X1198900Y647540D02*
D03*
Y627040D02*
D03*
D69*
X1188720Y875430D02*
D03*
Y861930D02*
D03*
X1162050D02*
D03*
Y875430D02*
D03*
X1221740Y861930D02*
D03*
Y875430D02*
D03*
Y728110D02*
D03*
Y714610D02*
D03*
X937260Y912730D02*
D03*
Y926230D02*
D03*
X571500Y922890D02*
D03*
Y936390D02*
D03*
X666750Y922890D02*
D03*
Y936390D02*
D03*
X779780Y757320D02*
D03*
Y743820D02*
D03*
X767080Y757320D02*
D03*
Y743820D02*
D03*
X754380Y757320D02*
D03*
X754380Y743820D02*
D03*
X571500Y884320D02*
D03*
Y833990D02*
D03*
Y870820D02*
D03*
Y847490D02*
D03*
D70*
X1174750Y874680D02*
D03*
Y862680D02*
D03*
X1153160Y714090D02*
D03*
Y726090D02*
D03*
X1167130D02*
D03*
Y714090D02*
D03*
X1181100D02*
D03*
Y726090D02*
D03*
X1196340Y714090D02*
D03*
Y726090D02*
D03*
X728980Y931260D02*
D03*
Y943260D02*
D03*
X730250Y755300D02*
D03*
Y743300D02*
D03*
X716280D02*
D03*
Y755300D02*
D03*
D71*
X1322020Y644420D02*
D03*
Y742420D02*
D03*
D72*
X1271020Y644420D02*
D03*
Y742420D02*
D03*
D73*
Y709420D02*
D03*
Y701420D02*
D03*
Y693420D02*
D03*
Y685420D02*
D03*
Y677420D02*
D03*
D74*
X1193780Y526910D02*
D03*
D75*
Y549910D02*
D03*
Y572910D02*
D03*
D76*
X1127780Y549910D02*
D03*
D77*
X984250Y859810D02*
D03*
D78*
X961250Y925810D02*
D03*
X984250D02*
D03*
D79*
X1007250D02*
D03*
D80*
X958460Y736600D02*
D03*
X941460Y736600D02*
D03*
X941460Y751840D02*
D03*
X958460D02*
D03*
X941460Y767080D02*
D03*
X958460D02*
D03*
Y782320D02*
D03*
X941460D02*
D03*
D81*
X1258570Y1038160D02*
D03*
Y1014160D02*
D03*
D82*
X1077870Y956860D02*
D03*
X1032870D02*
D03*
X1077870Y866860D02*
D03*
X1032870D02*
D03*
Y696680D02*
D03*
X1077870D02*
D03*
X1032870Y786680D02*
D03*
X1077870D02*
D03*
D83*
X1136650Y676584D02*
X1232900D01*
X1210310Y861930D02*
X1221740D01*
X1179830Y548640D02*
X1193780D01*
X688500Y816610D02*
X704140D01*
X704500Y816970D01*
X1136650Y674370D02*
Y676584D01*
X1032510Y866860D02*
Y887730D01*
Y866860D02*
X1032870D01*
X956310Y887730D02*
X1032510D01*
X956310Y807720D02*
Y887730D01*
X934720Y807720D02*
X956310D01*
X852170Y1055370D02*
Y1131570D01*
X998220Y731520D02*
Y812800D01*
X984250Y826770D02*
X998220Y812800D01*
X984250Y826770D02*
Y859810D01*
X856563Y1153160D02*
X898577D01*
X852170Y1131570D02*
Y1148767D01*
X856563Y1153160D01*
X902970Y1131570D02*
Y1148767D01*
X898577Y1153160D02*
X902970Y1148767D01*
Y1106170D02*
Y1131570D01*
Y1055370D02*
Y1106170D01*
X852170Y1055370D02*
X852170Y1055370D01*
X826770Y1106170D02*
Y1131570D01*
Y1055370D02*
Y1106170D01*
X1193780Y548640D02*
Y549910D01*
X1210310Y861930D02*
Y887730D01*
D84*
X937470Y926020D02*
X961040D01*
X750320Y1055620D02*
Y1131320D01*
X961040Y926020D02*
X961250Y925810D01*
X937260Y926230D02*
X937470Y926020D01*
X750070Y1131570D02*
X750320Y1131320D01*
Y1055620D02*
X750570Y1055370D01*
D85*
X1233283Y676967D02*
X1270567D01*
X1232900Y676584D02*
X1233283Y676967D01*
X1270567D02*
X1271020Y677420D01*
X1231700Y578450D02*
Y651310D01*
X1231900Y651510D01*
X1197610Y607060D02*
X1201420D01*
X1193780Y603230D02*
X1197610Y607060D01*
X1193780Y572910D02*
Y603230D01*
X1231700Y578450D02*
X1231900Y578250D01*
X1231500Y577850D02*
X1231900Y578250D01*
X1231500Y565150D02*
Y577850D01*
D86*
X1176450Y637540D02*
Y646000D01*
X1171290Y651160D02*
X1176450Y646000D01*
X1171290Y651160D02*
Y664210D01*
X1127780Y549910D02*
Y618510D01*
X1146810Y637540D01*
X1176450D01*
X1193084Y549214D02*
X1193780Y549910D01*
X1180404Y549214D02*
X1193084D01*
X1179830Y548640D02*
X1180404Y549214D01*
X1276350Y541020D02*
Y546100D01*
X1280270Y550020D01*
X1290350D01*
X1128630Y490220D02*
Y502920D01*
Y549060D01*
X1127780Y549910D02*
X1128630Y549060D01*
D87*
X800870Y496570D02*
D03*
X572270Y1106170D02*
D03*
X572270Y1131570D02*
D03*
X800870D02*
D03*
X724670Y1106170D02*
D03*
Y1131570D02*
D03*
X750070Y1106170D02*
D03*
Y1131570D02*
D03*
X775470Y1106170D02*
D03*
Y1131570D02*
D03*
X800870Y1106170D02*
D03*
X699270Y1131570D02*
D03*
X699270Y1106170D02*
D03*
X673870Y1131570D02*
D03*
X673870Y1106170D02*
D03*
X648470Y1131570D02*
D03*
Y1106170D02*
D03*
X623070Y1131570D02*
D03*
Y1106170D02*
D03*
X597670D02*
D03*
Y1131570D02*
D03*
X953770Y1106170D02*
D03*
X953770Y1131570D02*
D03*
X979170Y1106170D02*
D03*
X979170Y1131570D02*
D03*
X1004570Y1106170D02*
D03*
Y1131570D02*
D03*
X1029970Y1106170D02*
D03*
X928370Y1131570D02*
D03*
Y1106170D02*
D03*
X902970Y1131570D02*
D03*
Y1106170D02*
D03*
X877570Y1131570D02*
D03*
Y1106170D02*
D03*
X852170Y1131570D02*
D03*
X852170Y1106170D02*
D03*
X826770Y1106170D02*
D03*
Y1131570D02*
D03*
X572270Y521970D02*
D03*
X800870D02*
D03*
X724670Y496570D02*
D03*
X724670Y521970D02*
D03*
X699270D02*
D03*
X673870D02*
D03*
X648470D02*
D03*
X623070D02*
D03*
X597670D02*
D03*
X953770Y496570D02*
D03*
Y521970D02*
D03*
X979170Y496570D02*
D03*
Y521970D02*
D03*
X1004570Y496570D02*
D03*
X1004570Y521970D02*
D03*
X1029970Y496570D02*
D03*
X928370Y521970D02*
D03*
Y496570D02*
D03*
X877570Y521970D02*
D03*
X877570Y496570D02*
D03*
X572270Y496570D02*
D03*
X597670Y496570D02*
D03*
X623070D02*
D03*
X648470Y496570D02*
D03*
X673870D02*
D03*
X699270D02*
D03*
X750070D02*
D03*
Y521970D02*
D03*
X775470Y496570D02*
D03*
Y521970D02*
D03*
X826770Y496570D02*
D03*
Y521970D02*
D03*
X852170Y496570D02*
D03*
Y521970D02*
D03*
X902970Y496570D02*
D03*
X902970Y521970D02*
D03*
D88*
X934720Y807720D02*
D03*
X1322070D02*
D03*
X998220Y680720D02*
D03*
D89*
X934720Y833120D02*
D03*
X1283970Y1131570D02*
D03*
Y496570D02*
D03*
X1322070Y833120D02*
D03*
X1125220Y1042670D02*
D03*
X1245870Y941070D02*
D03*
X1271270D02*
D03*
X1296670D02*
D03*
X1156970Y1131570D02*
D03*
X998220Y731520D02*
D03*
Y706120D02*
D03*
X750570Y1055370D02*
D03*
X775970D02*
D03*
X801370D02*
D03*
X826770D02*
D03*
X852170D02*
D03*
X877570D02*
D03*
X902970D02*
D03*
X572770Y572770D02*
D03*
X598170D02*
D03*
X623570D02*
D03*
X648970D02*
D03*
X674370D02*
D03*
X699770D02*
D03*
X725170D02*
D03*
X1131570Y1080770D02*
D03*
X1182370D02*
D03*
X1233170D02*
D03*
X1156970D02*
D03*
X1207770D02*
D03*
D90*
X1309370Y1131570D02*
D03*
Y496570D02*
D03*
X1150620Y1042670D02*
D03*
X1322070Y941070D02*
D03*
X1131570Y1131570D02*
D03*
X928370Y1055370D02*
D03*
X750570Y572770D02*
D03*
X1258570Y1080770D02*
D03*
D91*
X1068070Y1055370D02*
D03*
X1055370Y572770D02*
D03*
X547370Y725170D02*
D03*
D92*
X1029970Y1131570D02*
D03*
Y521970D02*
D03*
D93*
X699770Y1055370D02*
D03*
X1019810Y572770D02*
D03*
D94*
X617270Y833828D02*
D03*
Y883828D02*
D03*
X1207370Y909320D02*
D03*
X1157370D02*
D03*
D95*
X1167130Y923290D02*
D03*
X1187450Y922020D02*
D03*
X1196340Y900430D02*
D03*
X1167130Y897890D02*
D03*
X1283677Y834444D02*
D03*
X1245870Y836930D02*
D03*
X1244600Y792480D02*
D03*
X1121410Y787400D02*
D03*
X745490Y764540D02*
D03*
X864870Y905510D02*
D03*
X865137Y868326D02*
D03*
X803910Y892810D02*
D03*
X836930Y792480D02*
D03*
X814070Y791210D02*
D03*
X774943Y774728D02*
D03*
X1340000Y1130000D02*
D03*
Y1070000D02*
D03*
Y1010000D02*
D03*
Y950000D02*
D03*
Y890000D02*
D03*
Y830000D02*
D03*
Y770000D02*
D03*
Y710000D02*
D03*
Y590000D02*
D03*
Y530000D02*
D03*
X1325000Y1100000D02*
D03*
X1310000Y1070000D02*
D03*
X1325000Y1040000D02*
D03*
X1310000Y1010000D02*
D03*
X1325000Y980000D02*
D03*
Y920000D02*
D03*
X1310000Y890000D02*
D03*
X1325000Y860000D02*
D03*
X1310000Y770000D02*
D03*
X1325000Y680000D02*
D03*
Y620000D02*
D03*
X1310000Y590000D02*
D03*
X1325000Y560000D02*
D03*
X1310000Y530000D02*
D03*
X1295000Y1100000D02*
D03*
X1280000Y1070000D02*
D03*
Y890000D02*
D03*
X1295000Y740000D02*
D03*
Y680000D02*
D03*
Y620000D02*
D03*
X1280000Y590000D02*
D03*
X1295000Y560000D02*
D03*
X1250000Y1130000D02*
D03*
X1265000Y1100000D02*
D03*
X1250000Y1010000D02*
D03*
Y890000D02*
D03*
X1265000Y860000D02*
D03*
X1250000Y770000D02*
D03*
X1265000Y620000D02*
D03*
X1250000Y590000D02*
D03*
X1265000Y560000D02*
D03*
X1220000Y1130000D02*
D03*
X1235000Y1100000D02*
D03*
Y1040000D02*
D03*
Y920000D02*
D03*
X1220000Y590000D02*
D03*
Y530000D02*
D03*
X1190000Y1130000D02*
D03*
X1205000Y1100000D02*
D03*
X1190000Y1010000D02*
D03*
X1205000Y980000D02*
D03*
Y560000D02*
D03*
X1160000Y1010000D02*
D03*
Y650000D02*
D03*
X1175000Y620000D02*
D03*
X1160000Y590000D02*
D03*
X1175000Y560000D02*
D03*
X1160000Y530000D02*
D03*
X1145000Y1100000D02*
D03*
X1115000D02*
D03*
X1100000Y770000D02*
D03*
X1115000Y680000D02*
D03*
Y620000D02*
D03*
X1070000Y1130000D02*
D03*
X1085000Y1100000D02*
D03*
Y1040000D02*
D03*
X1070000Y1010000D02*
D03*
X1085000Y980000D02*
D03*
Y920000D02*
D03*
X1070000Y890000D02*
D03*
Y830000D02*
D03*
Y770000D02*
D03*
X1085000Y740000D02*
D03*
Y680000D02*
D03*
Y620000D02*
D03*
X1070000Y590000D02*
D03*
Y530000D02*
D03*
X1055000Y1100000D02*
D03*
X1040000Y1070000D02*
D03*
Y1010000D02*
D03*
X1055000Y980000D02*
D03*
Y920000D02*
D03*
Y860000D02*
D03*
X1040000Y830000D02*
D03*
Y770000D02*
D03*
Y590000D02*
D03*
X1025000Y1040000D02*
D03*
Y980000D02*
D03*
X1010000Y950000D02*
D03*
X1025000Y920000D02*
D03*
X1010000Y830000D02*
D03*
Y770000D02*
D03*
X1025000Y740000D02*
D03*
Y680000D02*
D03*
Y620000D02*
D03*
X980000Y1070000D02*
D03*
X995000Y1040000D02*
D03*
X980000Y1010000D02*
D03*
X995000Y980000D02*
D03*
X980000Y950000D02*
D03*
X995000Y920000D02*
D03*
X980000Y770000D02*
D03*
Y710000D02*
D03*
X995000Y620000D02*
D03*
X980000Y590000D02*
D03*
X965000Y1040000D02*
D03*
X950000Y710000D02*
D03*
X965000Y680000D02*
D03*
X950000Y590000D02*
D03*
X935000Y1040000D02*
D03*
X920000Y950000D02*
D03*
Y710000D02*
D03*
X935000Y680000D02*
D03*
Y620000D02*
D03*
X920000Y590000D02*
D03*
X935000Y560000D02*
D03*
X890000Y710000D02*
D03*
X905000Y680000D02*
D03*
X890000Y650000D02*
D03*
X905000Y620000D02*
D03*
Y560000D02*
D03*
X875000Y980000D02*
D03*
X860000Y950000D02*
D03*
X875000Y680000D02*
D03*
X860000Y590000D02*
D03*
X875000Y560000D02*
D03*
X845000Y1040000D02*
D03*
Y980000D02*
D03*
X830000Y950000D02*
D03*
X845000Y920000D02*
D03*
Y680000D02*
D03*
X830000Y650000D02*
D03*
X845000Y620000D02*
D03*
X815000Y1040000D02*
D03*
Y980000D02*
D03*
Y680000D02*
D03*
X785000Y1040000D02*
D03*
Y920000D02*
D03*
X770000Y650000D02*
D03*
X785000Y620000D02*
D03*
X770000Y590000D02*
D03*
X785000Y560000D02*
D03*
X755000Y1040000D02*
D03*
Y680000D02*
D03*
X740000Y650000D02*
D03*
X755000Y620000D02*
D03*
X710000Y1070000D02*
D03*
Y1010000D02*
D03*
X725000Y680000D02*
D03*
X710000Y650000D02*
D03*
X725000Y620000D02*
D03*
X710000Y590000D02*
D03*
X680000Y1010000D02*
D03*
X695000Y680000D02*
D03*
X680000Y650000D02*
D03*
X650000Y1010000D02*
D03*
X665000Y740000D02*
D03*
Y680000D02*
D03*
X650000Y650000D02*
D03*
Y590000D02*
D03*
X665000Y560000D02*
D03*
X620000Y1010000D02*
D03*
X635000Y920000D02*
D03*
Y740000D02*
D03*
Y680000D02*
D03*
X620000Y650000D02*
D03*
Y590000D02*
D03*
X635000Y560000D02*
D03*
X590000Y1070000D02*
D03*
Y1010000D02*
D03*
X605000Y920000D02*
D03*
X590000Y890000D02*
D03*
X605000Y860000D02*
D03*
Y560000D02*
D03*
X727014Y769096D02*
D03*
X773430Y765810D02*
D03*
X1235710Y829310D02*
D03*
X1149310Y772600D02*
D03*
X1280160Y791210D02*
D03*
X1213200Y650240D02*
D03*
X749140Y962500D02*
D03*
X878840Y864200D02*
D03*
X881042Y847600D02*
D03*
X1140460Y725740D02*
D03*
X1122680Y732790D02*
D03*
X1139190Y755650D02*
D03*
X1174750Y887730D02*
D03*
X717550D02*
D03*
X732757Y914750D02*
D03*
X812656Y759316D02*
D03*
X704500Y816970D02*
D03*
X688500Y816610D02*
D03*
Y840740D02*
D03*
X829500Y718225D02*
D03*
X837500Y717550D02*
D03*
X694240Y858970D02*
D03*
X702310Y856970D02*
D03*
X693420Y873470D02*
D03*
X621152Y780388D02*
D03*
X821500Y717550D02*
D03*
X859060D02*
D03*
X825500Y739140D02*
D03*
X1136650Y674370D02*
D03*
X1131745Y788670D02*
D03*
X1078230Y887730D02*
D03*
X765810Y712440D02*
D03*
X881380Y730250D02*
D03*
X871043Y763622D02*
D03*
X890703Y832283D02*
D03*
X885046Y826626D02*
D03*
X895510Y922661D02*
D03*
X879510Y924560D02*
D03*
X867060Y717550D02*
D03*
X741581Y945710D02*
D03*
X685800Y892810D02*
D03*
X741000Y910590D02*
D03*
X702310Y864970D02*
D03*
X632258Y804978D02*
D03*
X626601Y799321D02*
D03*
X600870Y789940D02*
D03*
X586140Y794420D02*
D03*
X608680Y783940D02*
D03*
X565310Y779725D02*
D03*
X745000Y901700D02*
D03*
X830230Y826970D02*
D03*
X822960Y836930D02*
D03*
X828040Y904590D02*
D03*
X836930Y868680D02*
D03*
X749300Y943610D02*
D03*
X828960Y876970D02*
D03*
X744220Y753110D02*
D03*
X949960Y925830D02*
D03*
X828040Y912590D02*
D03*
X788000Y899160D02*
D03*
X796000D02*
D03*
X748987Y920750D02*
D03*
X1047403Y475327D02*
D03*
X1144270Y843280D02*
D03*
X1143000Y835280D02*
D03*
X871220Y771620D02*
D03*
X1032510Y763270D02*
D03*
X716280Y768350D02*
D03*
Y785096D02*
D03*
X729000Y785610D02*
D03*
X1169670Y1068070D02*
D03*
X1221740Y740410D02*
D03*
X1234410Y707390D02*
D03*
X1242410Y707289D02*
D03*
X1162100Y699770D02*
D03*
X1210310Y887730D02*
D03*
X1223010Y1004220D02*
D03*
Y996220D02*
D03*
X1243330Y995680D02*
D03*
X1174750Y704500D02*
D03*
X1195070Y756920D02*
D03*
X1258570Y948690D02*
D03*
X1240790Y777240D02*
D03*
X1232900Y676584D02*
D03*
X1231900Y651510D02*
D03*
X1198900Y637520D02*
D03*
X1231900Y607060D02*
D03*
X1201420D02*
D03*
X1179830Y548640D02*
D03*
X1276350Y541020D02*
D03*
X1190300Y749300D02*
D03*
D96*
X789500Y811970D02*
D03*
X778500D02*
D03*
X767500D02*
D03*
X756500D02*
D03*
X745500D02*
D03*
X734500D02*
D03*
X789500Y822970D02*
D03*
X778500D02*
D03*
X767500D02*
D03*
X756500D02*
D03*
X745500D02*
D03*
X734500D02*
D03*
X789500Y833970D02*
D03*
X778500D02*
D03*
X767500D02*
D03*
X756500D02*
D03*
X745500D02*
D03*
X734500D02*
D03*
X789500Y844970D02*
D03*
X778500D02*
D03*
X767500D02*
D03*
X756500D02*
D03*
X745500D02*
D03*
X734500D02*
D03*
X789500Y855970D02*
D03*
X778500D02*
D03*
X767500D02*
D03*
X756500D02*
D03*
X745500D02*
D03*
X734500D02*
D03*
X789500Y866970D02*
D03*
X778500D02*
D03*
X767500D02*
D03*
X756500D02*
D03*
X745500D02*
D03*
X734500D02*
D03*
D97*
X1193800Y800100D02*
D03*
X1171800Y778100D02*
D03*
Y789100D02*
D03*
Y800100D02*
D03*
Y811100D02*
D03*
Y822100D02*
D03*
X1182800D02*
D03*
X1182800Y811100D02*
D03*
X1182800Y800100D02*
D03*
X1182800Y789100D02*
D03*
X1182800Y778100D02*
D03*
X1193800Y778100D02*
D03*
X1193800Y789100D02*
D03*
Y811100D02*
D03*
X1193800Y822100D02*
D03*
X1204800Y822100D02*
D03*
X1204800Y811100D02*
D03*
X1204800Y800100D02*
D03*
X1204800Y789100D02*
D03*
X1204800Y778100D02*
D03*
X1215800Y778100D02*
D03*
X1215800Y789100D02*
D03*
X1215800Y800100D02*
D03*
X1215800Y811100D02*
D03*
X1215800Y822100D02*
D03*
M02*
