M48
;Layer_Color=9474304
;FILE_FORMAT=4:4
METRIC,LZ
;TYPE=PLATED
T1F00S00C0.3000
T2F00S00C0.3300
T3F00S00C0.3500
T4F00S00C0.6000
T5F00S00C1.0000
T6F00S00C1.1000
T7F00S00C3.2720
%
T01
X0122Y0053
X01205Y0056
X0122Y0059
X012319Y0060706
X0120142
X011989Y0063752
X012132Y0065024
X012319Y0065151
X012329Y00676584
X0123441Y0070739
X0124241Y00707289
X0122174Y0074041
X0119507Y0075692
X0124079Y0077724
X0125Y0077
X012446Y0079248
X0128016Y0079121
X0131Y0077
X0134
Y0071
X01325Y0068
X01295
Y0074
Y0062
X01325
X0134Y0059
X0131
X0128
X0125
X01265Y0062
Y0056
X01295
X01325
X0134Y0053
X0131
X0127635Y0054102
X0117983Y0054864
X01175Y0056
X0116Y0059
X01175Y0062
X0116Y0065
X0113665Y0067437
X01115Y0068
X01085
Y0074
X0112268Y0073279
X0114046Y0072574
X0113919Y0075565
X0114931Y007726
X01131745Y0078867
X0112141Y007874
X011Y0077
X0107
X0104
X0103251Y0076327
X0101Y0077
X0098
Y0071
X0095
X0092
X0089
X0088138Y0073025
X0086706Y0071755
X0085906
X008375
X008295Y00718225
X008215Y0071755
X008255Y0073914
X00812656Y00759316
X0081407Y0079121
X0083693Y0079248
X0087122Y0077162
X00871043Y00763622
X00875Y0068
X00905
X00935
X00965
X01025
Y0074
Y0062
X00995
X0098Y0059
X0095
X0092
X00935Y0062
X00905
X0089Y0065
X0083
X00845Y0068
X00815
X00845Y0062
X0086Y0059
X00875Y0056
X00905
X00935
X0104Y0059
X0107
X01085Y0062
X01115
X011621Y0069977
X0117475Y007045
X011903Y007493
X0116Y0053
X0107
X01047403Y00475327
X00785Y0056
X0077Y0059
X00785Y0062
X00755
X00725
X0074Y0065
X0077
X00755Y0068
X00725
X00695
X00665
X00635
X0065Y0065
X0068
X0071
Y0059
X0065
X0062
X00635Y0056
X00665
X00605
X0062Y0065
X00635Y0074
X00665
X0071628Y0076835
X00727014Y00769096
X00729Y0078561
X0071628Y00785096
X0074549Y0076454
X0074422Y0075311
X0077343Y0076581
X00774943Y00774728
X0076581Y0071244
X00621152Y00780388
X0060868Y0078394
X0060087Y0078994
X0056531Y00779725
X0058614Y0079442
X00626601Y00799321
X00632258Y00804978
X006885Y0081661
X007045Y0081697
X006885Y0084074
X0069424Y0085897
X0070231Y0085697
Y0086497
X0069342Y0087347
X006858Y0089281
X0071755Y0088773
X00745Y009017
X00741Y0091059
X00732757Y0091475
X00748987Y0092075
X007493Y0094361
X00741581Y0094571
X0074914Y009625
X00785Y0092
X00788Y0089916
X00785Y0104
X00755
X0071Y0107
Y0101
X0068
X0065
X0062
X0059
Y0107
X00605Y0092
X00635
X0059Y0089
X00605Y0086
X00796Y0089916
X0080391Y0089281
X0082804Y0090459
Y0091259
X00845Y0092
X0086487Y0090551
X0087951Y0092456
X0089551Y00922661
X0092Y0095
X0094996Y0092583
X00995Y0092
X01025
X01055
X01085
X0107823Y0088773
X0107Y0089
X01055Y0086
X0107Y0083
X0104
X0101
Y0095
X0098
X00995Y0098
X01025
X01055
X01085
X0107Y0101
X0104
X01025Y0104
X00995
X00965
X00935
X0098Y0107
X0104
X01055Y011
X01085
X01115
X01145
X0116967Y0106807
X0116Y0101
X0119
X0118745Y0092202
X0116713Y0092329
Y0089789
X0117475Y0088773
X0114427Y0084328
X01143Y0083528
X00890703Y00832283
X00885046Y00826626
X00881042Y008476
X0087884Y008642
X00865137Y00868326
X0083693Y0086868
X0082896Y0087697
X0082296Y0083693
X0083023Y0082697
X0083Y0095
X0086
X00875Y0098
X00845
X00815
Y0104
X00845
X0098Y0101
X01085Y0104
X0107Y0113
X0119
X0122
X0125
X01265Y011
X01295
X01325
X0134Y0113
Y0107
X0131
X0128
X01325Y0104
X0134Y0101
X0131
X01325Y0098
X0134Y0095
X01325Y0092
X0134Y0089
X0131
X0128
X0125
X0121031Y0088773
X0119634Y0090043
X01235Y0092
X0125857Y0094869
X0124333Y0099568
X0122301Y0099622
Y0100422
X0125Y0101
X01235Y0104
Y011
X01205
Y0098
X01265Y0086
X0124587Y0083693
X0123571Y0082931
X01283677Y00834444
X0134Y0083
X01325Y0086
T02
X011938Y007781
X011938Y007891
X012048Y007891
X012048Y007781
X012158Y007781
X012158Y007891
X011828
X011718
Y007781
X011828
Y008001
X011718
Y008111
Y008221
X011828
X011828Y008111
X011938
X011938Y008221
X012048Y008221
X012158Y008221
X012158Y008111
X012158Y008001
X012048
X011938
X012048Y008111
T03
X007345Y0081197
X007455
X007565
X007675
X007785
X007895
Y0082297
X007785
X007675
X007565
X007455
X007345
Y0083397
Y0084497
X007455
Y0083397
X007565
X007675
Y0084497
X007565
Y0085597
X007675
X007785
Y0084497
Y0083397
X007895
Y0084497
Y0085597
Y0086697
X007785
X007675
X007565
X007455
Y0085597
X007345
Y0086697
T04
X0061727Y00833828
Y00883828
X0115737Y0090932
X0120737
T05
X0128397Y0049657
X0130937
X0130302Y0067142
Y0071542
X0099822Y0070612
Y0073152
Y0068072
X0075057Y0057277
X0072517
X0069977
X0067437
X0064897
X0062357
X0059817
X0057277
X0075057Y0105537
X0077597
X0080137
X0082677
X0085217
X0087757
X0090297
X0092837
X0112522Y0104267
X0115062
X0115697Y0108077
X0113157
Y0113157
X0115697
X0118237Y0108077
X0093472Y0083312
Y0080772
X0132207
Y0083312
Y0094107
X0129667
X0127127
X0124587
X0123317Y0108077
X0125857
X0120777
X0128397Y0113157
X0130937
T06
X0080087Y0049657
Y0052197
X0082677
Y0049657
X0085217
X0087757Y0049657
X0087757Y0052197
X0090297
X0092837
X0095377
Y0049657
X0097917
Y0052197
X0100457
X0102997
Y0049657
X0100457Y0049657
X0092837Y0049657
X0090297Y0049657
X0085217Y0052197
X0084201Y0057277
X0086741
X0089281
X0091821
X0094361
X0096901
X0099441
X0101981
X0081661
X0079121
X0077547Y0052197
X0075007
Y0049657
X0072467Y0049657
X0072467Y0052197
X0069927
X0067387
X0064847
X0062307
X0059767
X0057227
Y0049657
X0059767Y0049657
X0062307
X0064847Y0049657
X0067387
X0069927
X0077547
Y0110617
X0075007
X0072467
Y0113157
X0075007
X0077547
X0069927
X0067387
X0067387Y0110617
X0064847Y0110617
Y0113157
X0062307
Y0110617
X0059767
Y0113157
X0057227
X0057227Y0110617
X0057277Y0105537
X0059817
X0062357
X0064897
X0067437
X0069977
X0069927Y0110617
X0080087
X0080087Y0113157
X0082677
Y0110617
X0085217Y0110617
X0085217Y0113157
X0087757
X0090297
X0092837
X0095377
X0097917
X0097917Y0110617
X0100457Y0110617
Y0113157
X0102997
Y0110617
X0095377Y0110617
X0092837Y0110617
X0090297
X0087757
T07
X0105537Y0057277
X0054737Y0072517
X0106807Y0105537
M30
