M48
;Layer_Color=9474304
;FILE_FORMAT=4:4
METRIC,LZ
;TYPE=PLATED
T1F00S00C2.2000
T2F00S00C4.2000
%
T01
X0016005Y0021881
X0323205
Y0288281
X0016005
T02
X0028805Y0021881
Y0036681
X0016005
X0041605
X0054405
X0067205
Y0021881
X0054405
X0041605
X0080005
X0092805
X0105605
X0118405
Y0036681
X0105605
X0092805
X0080005
X0131205
X0144005
X0156805
Y0021881
X0144005
X0131205
X0169605
X0182405
X0195205
Y0036681
X0182405
X0169605
X0208005
X0220805
X0233605
Y0021881
X0220805
X0208005
X0246405
X0259205
X0272005
Y0036681
X0259205
X0246405
X0284805
X0297605
X0310405
Y0021881
X0297605
X0284805
X0323205Y0036681
Y0051481
Y0066281
X0310405
X0297605
X0284805
Y0051481
X0297605
X0310405
X0272005
X0259205
X0246405
Y0066281
X0259205
X0272005
X0233605
X0220805
X0208005
Y0051481
X0220805
X0233605
X0195205
X0182405
X0169605
Y0066281
X0182405
X0195205
X0156805
X0144005
X0131205
Y0051481
X0144005
X0156805
X0118405
X0105605
X0092805
X0080005
Y0066281
X0092805
X0105605
X0118405
X0067205
X0054405
X0041605
Y0051481
X0054405
X0067205
X0028805
X0016005
Y0066281
X0028805
Y0081081
X0016005
Y0095881
X0028805
Y0110681
X0016005
X0041605
X0054405
X0067205
Y0095881
X0054405
X0041605
Y0081081
X0054405
X0067205
X0080005
X0092805
X0105605
X0118405
Y0095881
X0105605
X0092805
X0080005
Y0110681
X0092805
X0105605
X0118405
X0131205
X0144005
X0156805
Y0095881
X0144005
X0131205
Y0081081
X0144005
X0156805
X0169605
X0182405
X0195205
Y0095881
X0182405
X0169605
Y0110681
X0182405
X0195205
X0208005
X0220805
X0233605
Y0095881
X0220805
X0208005
Y0081081
X0220805
X0233605
X0246405
X0259205
X0272005
Y0095881
X0259205
X0246405
Y0110681
X0259205
X0272005
X0284805
X0297605
X0310405
Y0095881
X0297605
X0284805
Y0081081
X0297605
X0310405
X0323205
Y0095881
Y0110681
Y0125481
Y0140281
Y0155081
X0310405
X0297605
X0284805
Y0140281
X0297605
X0310405
Y0125481
X0297605
X0284805
X0272005
X0259205
X0246405
Y0140281
X0259205
X0272005
Y0155081
X0259205
X0246405
X0233605
X0220805
X0208005
Y0140281
X0220805
X0233605
Y0125481
X0220805
X0208005
X0195205
X0182405
X0169605
Y0140281
X0182405
X0195205
Y0155081
X0182405
X0169605
X0156805
X0144005
X0131205
Y0140281
X0144005
X0156805
Y0125481
X0144005
X0131205
X0118405
X0105605
X0092805
X0080005
Y0140281
X0092805
X0105605
X0118405
Y0155081
X0105605
X0092805
X0080005
X0067205
X0054405
X0041605
Y0140281
X0054405
X0067205
Y0125481
X0054405
X0041605
X0028805
X0016005
Y0140281
X0028805
Y0155081
X0016005
Y0169881
X0028805
Y0184681
X0016005
X0041605
X0054405
X0067205
Y0169881
X0054405
X0041605
X0080005
X0092805
X0105605
X0118405
Y0184681
X0105605
X0092805
X0080005
X0131205
X0144005
X0156805
Y0169881
X0144005
X0131205
X0169605
X0182405
X0195205
Y0184681
X0182405
X0169605
X0208005
X0220805
X0233605
Y0169881
X0220805
X0208005
X0246405
X0259205
X0272005
Y0184681
X0259205
X0246405
X0284805
X0297605
X0310405
Y0169881
X0297605
X0284805
X0323205
Y0184681
Y0199481
Y0214281
Y0229081
X0310405
X0297605
X0284805
Y0214281
X0297605
X0310405
Y0199481
X0297605
X0284805
X0272005
X0259205
X0246405
Y0214281
X0259205
X0272005
Y0229081
X0259205
X0246405
X0233605
X0220805
X0208005
Y0214281
X0220805
X0233605
Y0199481
X0220805
X0208005
X0195205
X0182405
X0169605
Y0214281
X0182405
X0195205
Y0229081
X0182405
X0169605
X0156805
X0144005
X0131205
Y0214281
X0144005
X0156805
Y0199481
X0144005
X0131205
X0118405
X0105605
X0092805Y0199481
X0080005
Y0214281
X0092805
X0105605
X0118405
Y0229081
X0105605
X0092805
X0080005
X0067205
X0054405
X0041605
Y0214281
X0054405
X0067205
Y0199481
X0054405
X0041605
X0028805
X0016005
Y0214281
X0028805
Y0229081
X0016005
Y0243881
X0028805
Y0258681
X0016005
Y0273481
X0028805
X0041605
X0054405
X0067205
Y0258681
X0054405
X0041605
Y0243881
X0054405
X0067205
X0080005
X0092805
X0105605
X0118405
Y0258681
X0105605
X0092805
X0080005
Y0273481
X0092805
X0105605
X0118405
X0131205
X0144005
X0156805
Y0258681
X0144005
X0131205
Y0243881
X0144005
X0156805
X0169605
X0182405
X0195205
Y0258681
X0182405
X0169605
Y0273481
X0182405
X0195205
X0208005
X0220805
X0233605
Y0258681
X0220805
X0208005
Y0243881
X0220805
X0233605
X0246405
X0259205
X0272005
Y0258681
X0259205
X0246405
Y0273481
X0259205
X0272005
X0284805
X0297605
X0310405
Y0258681
X0297605
X0284805
Y0243881
X0297605
X0310405
X0323205
Y0258681
Y0273481
X0310405Y0288281
X0297605
X0284805
X0272005
X0259205
X0246405
X0233605
X0220805
X0208005
X0195205
X0182405
X0169605
X0156805
X0144005
X0131205
X0118405
X0105605
X0092805
X0080005
X0067205
X0054405
X0041605
X0028805
M30
