M48
;Layer_Color=9474304
;FILE_FORMAT=4:4
METRIC,LZ
;TYPE=PLATED
T1F00S00C0.8500
T2F00S00C8.1000
%
T01
X002345Y0024416
Y0026956
X002853Y0029496
Y0032036
Y0034576
Y0037116
Y0039656
X002345
X0045675Y0039616
X00456749Y0034691
X00425Y0030766
Y0028226
Y0025686
Y0023146
X0053295
X0055835
X008695Y0024416
Y0026956
X009845
Y0024416
X010353Y0029496
Y0032036
Y0034576
Y0037116
Y0039656
X009845
X01175Y0030766
Y0028226
Y0025686
Y0023146
X0128295
X0130835
X01206749Y0034691
X0120675Y0039616
X017345Y0039656
X017853
Y0037116
Y0034576
Y0032036
Y0029496
X017345Y0026956
Y0024416
X016195
Y0026956
X01925Y0028226
Y0030766
Y0025686
Y0023146
X0195675Y0034691
X0195675Y0039616
X0203295Y0023146
X0205835
X023695Y0024416
Y0026956
X024845
Y0024416
X025353Y0029496
Y0032036
Y0034576
Y0037116
Y0039656
X024845
X0270675Y0039616
X0270675Y0034691
X02675Y0030766
Y0028226
Y0025686
Y0023146
X0278295
X0280835
X031195Y0024416
Y0026956
Y0052356
Y0054896
Y0057436
Y0059976
X030941
Y0057436
Y0054896
Y0052356
X030433Y0053372
Y0055912
Y0058452
Y0060992
Y0063532
Y0066072
Y0068612
Y0071152
Y0073692
Y0076232
X030941Y0075266
Y0077806
X031195
Y0075266
Y0072676
Y0070136
X030941
Y0067596
Y0065056
X031195
Y0062516
X030941
X031195Y0067596
X030941Y0072676
X0293535Y0055531
X0290995
X0288455
X0280835Y0061881
X0278295
X025607Y0062516
Y0065056
Y0067596
Y0070136
Y0072676
Y0075216
Y0077756
X025099Y0077806
Y0075266
X024845
Y0077806
Y0072676
Y0070136
Y0067596
X025099
Y0065056
Y0062516
X024845
Y0059976
X025099
Y0057436
Y0054896
X024845
Y0052356
X025099
X024845Y0057436
Y0065056
X025099Y0070136
Y0072676
X025353Y0042196
X025734Y0042831
Y0040291
X024845Y0042196
X023695Y0052356
Y0054896
Y0057436
Y0059976
X023441
Y0057436
Y0054896
Y0052356
X022933Y0053372
Y0055912
Y0058452
Y0060992
Y0063532
Y0066072
Y0068612
Y0071152
Y0073692
Y0076232
X023441Y0075266
Y0077806
X023695
Y0075266
Y0072676
Y0070136
X023441
Y0067596
Y0065056
X023695
Y0062516
X023441
X023695Y0067596
X023441Y0072676
X0218535Y0055531
X0215995
X0213455
X0205835Y0061881
X0203295
X018107Y0062516
Y0065056
Y0067596
Y0070136
Y0072676
Y0075216
Y0077756
X017599Y0077806
Y0075266
X017345
Y0077806
Y0072676
Y0070136
Y0067596
X017599
Y0065056
Y0062516
X017345
Y0059976
X017599
Y0057436
Y0054896
X017345
Y0052356
X017599
X017345Y0057436
Y0065056
X017599Y0070136
Y0072676
X016195
Y0070136
X015941
Y0067596
Y0065056
X016195
Y0062516
Y0059976
X015941
Y0057436
X016195
Y0054896
X015941
Y0052356
X016195
X015941Y0062516
X016195Y0067596
X015941Y0072676
Y0075266
Y0077806
X016195
Y0075266
X017345Y0042196
X017853
X018234Y0042831
Y0040291
X015433Y0053372
Y0055912
Y0058452
Y0060992
Y0063532
Y0066072
Y0068612
Y0071152
Y0073692
Y0076232
X0143535Y0055531
X0140995
X0138455
X0130835Y0061881
X0128295
X010607Y0062516
Y0065056
Y0067596
Y0070136
Y0072676
Y0075216
Y0077756
X010099Y0077806
Y0075266
X009845
Y0077806
Y0072676
Y0070136
Y0067596
X010099
Y0065056
Y0062516
X009845
Y0059976
X010099
Y0057436
Y0054896
X009845
Y0052356
X010099
X009845Y0057436
Y0065056
X010099Y0070136
Y0072676
X008695
Y0070136
X008441
Y0067596
Y0065056
X008695
Y0062516
Y0059976
X008441
Y0057436
X008695
Y0054896
X008441
Y0052356
X008695
X008441Y0062516
X008695Y0067596
X008441Y0072676
Y0075266
Y0077806
X008695
Y0075266
X009845Y0042196
X010353
X010734Y0042831
Y0040291
X007933Y0053372
Y0055912
Y0058452
Y0060992
Y0063532
Y0066072
Y0068612
Y0071152
Y0073692
Y0076232
X0068535Y0055531
X0065995
X0063455
X0055835Y0061881
X0053295
X003107Y0062516
Y0065056
Y0067596
Y0070136
Y0072676
Y0075216
Y0077756
X002599Y0077806
Y0075266
X002345
Y0077806
Y0072676
Y0070136
Y0067596
X002599
Y0065056
Y0062516
X002345
Y0059976
X002599
Y0057436
Y0054896
X002345
Y0052356
X002599
X002345Y0057436
Y0065056
X002599Y0070136
Y0072676
X002853Y0042196
X003234Y0042831
Y0040291
X002345Y0042196
Y0080346
X002599
Y0082886
Y0085426
Y0087966
X002345
Y0090506
Y0093046
Y0095586
X002599
Y0093046
Y0090506
X003107Y0090456
Y0087916
Y0085376
Y0080296
X002345Y0082886
Y0085426
Y0098126
X002599
X003107Y0098076
Y0095536
Y0092996
X002345Y0111916
Y0114456
X002853Y0116996
X00425Y0118266
Y0115726
Y0113186
Y0110646
X0053295
X0055835
X00531992Y0093626
X00482992
X007933Y0092996
Y0090456
Y0087916
Y0085376
Y0082836
Y0080296
Y0095536
Y0098076
X008441Y0098126
X008695
Y0095586
Y0093046
X008441
Y0095586
Y0090506
Y0087966
Y0085426
Y0082886
Y0080346
X008695
Y0082886
Y0085426
Y0087966
Y0090506
X009845
Y0093046
Y0095586
X010099
Y0093046
Y0090506
Y0087966
X009845
Y0085426
X010099
Y0082886
Y0080346
X009845
Y0082886
X010607Y0085376
Y0087916
Y0090456
Y0092996
Y0095536
Y0098076
X010099Y0098126
X009845
Y0111916
Y0114456
X010353Y0116996
X01175Y0118266
Y0115726
Y0113186
Y0110646
X008695Y0111916
Y0114456
X010607Y0080296
X01232992Y0093626
X01281992
X0128295Y0110646
X0130835
X015433Y0098076
Y0095536
Y0092996
Y0090456
Y0087916
Y0085376
Y0082836
Y0080296
X015941Y0080346
Y0082886
Y0085426
Y0087966
X016195
Y0085426
Y0082886
Y0080346
Y0090506
Y0093046
Y0095586
Y0098126
X015941
Y0095586
Y0093046
Y0090506
X017345
Y0093046
Y0095586
X017599
Y0093046
Y0090506
Y0087966
X017345
Y0085426
X017599
Y0082886
Y0080346
X017345
Y0082886
X018107Y0085376
Y0087916
Y0090456
Y0092996
Y0095536
Y0098076
X017599Y0098126
X017345
Y0111916
Y0114456
X017853Y0116996
X01925Y0118266
Y0115726
Y0113186
Y0110646
X01982992Y0093626
X018107Y0080296
X016195Y0111916
Y0114456
X0203295Y0110646
X0205835
X02031992Y0093626
X022933Y0092996
Y0090456
Y0087916
Y0085376
Y0082836
Y0080296
X023441Y0080346
Y0082886
Y0085426
Y0087966
X023695
Y0085426
Y0082886
Y0080346
Y0090506
Y0093046
Y0095586
Y0098126
X023441
Y0095586
Y0093046
Y0090506
X022933Y0095536
Y0098076
X023695Y0111916
Y0114456
X024845
Y0111916
X025353Y0116996
X02675Y0118266
Y0115726
Y0113186
Y0110646
X02732992Y0093626
X025607Y0092996
Y0095536
Y0098076
X025099Y0098126
Y0095586
X024845
Y0093046
Y0090506
Y0087966
X025099
Y0090506
Y0093046
X024845Y0098126
Y0085426
X025099
Y0082886
Y0080346
X024845
Y0082886
X025607Y0085376
Y0087916
Y0090456
Y0080296
X02781992Y0093626
X0278295Y0110646
X0280835
X031195Y0111916
Y0114456
Y0098126
Y0095586
Y0093046
X030941
Y0095586
Y0098126
X030433Y0098076
Y0095536
Y0092996
Y0090456
Y0087916
Y0085376
Y0082836
Y0080296
X030941Y0080346
Y0082886
Y0085426
Y0087966
X031195
Y0085426
Y0082886
Y0080346
Y0090506
X030941
Y0139856
Y0142396
Y0144936
Y0147476
X031195
Y0144936
Y0142396
Y0139856
X030433Y0140872
Y0143412
Y0145952
Y0148492
Y0151032
Y0153572
Y0156112
Y0158652
X030941Y0157636
Y0155096
Y0152556
X031195
Y0150016
X030941
X031195Y0155096
Y0157636
X0293535Y0143031
X0290995
X0288455
X0280835Y0149381
X0278295
X025607Y0150016
Y0152556
Y0155096
Y0157636
X025099
Y0155096
Y0152556
Y0150016
X024845
Y0147476
X025099
Y0144936
Y0142396
X024845
Y0139856
X025099
X024845Y0144936
Y0152556
Y0155096
Y0157636
Y0129696
Y0127156
X025353
Y0129696
X025734Y0130331
Y0127791
X025353Y0124616
Y0122076
Y0119536
X0270675Y0122191
X0270675Y0127116
X023695Y0139856
Y0142396
Y0144936
Y0147476
X023441
Y0144936
Y0142396
Y0139856
X022933Y0140872
Y0143412
Y0145952
Y0148492
Y0151032
Y0153572
Y0156112
Y0158652
X023441Y0157636
Y0155096
Y0152556
X023695
Y0150016
X023441
X023695Y0155096
Y0157636
X0218535Y0143031
X0215995
X0213455
X0205835Y0149381
X0203295
X018107Y0150016
Y0152556
Y0155096
Y0157636
X017599
Y0155096
Y0152556
Y0150016
X017345
Y0147476
X017599
Y0144936
Y0142396
X017345
Y0139856
X017599
X017345Y0144936
Y0152556
Y0155096
Y0157636
X016195
X015941
Y0155096
Y0152556
X016195
Y0150016
Y0147476
X015941
Y0144936
X016195
Y0142396
X015941
Y0139856
X016195
X015941Y0150016
X016195Y0155096
X017345Y0129696
Y0127156
X017853
Y0129696
X018234Y0130331
Y0127791
X017853Y0124616
Y0122076
Y0119536
X0195675Y0122191
Y0127116
X015433Y0140872
Y0143412
Y0145952
Y0148492
Y0151032
Y0153572
Y0156112
Y0158652
X0143535Y0143031
X0140995
X0138455
X0130835Y0149381
X0128295
X0120675Y0127116
X01206749Y0122191
X010353Y0122076
Y0124616
Y0127156
Y0129696
X010734Y0130331
Y0127791
X009845Y0127156
Y0129696
Y0139856
Y0142396
X010099
Y0144936
Y0147476
X009845
Y0150016
X010099
Y0152556
Y0155096
X009845
Y0157636
X010099
X010607
Y0155096
Y0152556
Y0150016
X009845Y0152556
Y0144936
X010099Y0139856
X008695
Y0142396
Y0144936
Y0147476
X008441
Y0144936
Y0142396
Y0139856
Y0150016
Y0152556
Y0155096
Y0157636
X008695
Y0155096
Y0152556
Y0150016
X010353Y0119536
X007933Y0140872
Y0143412
Y0145952
Y0148492
Y0151032
Y0153572
Y0156112
Y0158652
X0068535Y0143031
X0065995
X0063455
X0055835Y0149381
X0053295
X0045675Y0127116
X00456749Y0122191
X002853Y0122076
Y0124616
Y0127156
Y0129696
X003234Y0130331
Y0127791
X002345Y0127156
Y0129696
Y0139856
Y0142396
X002599
Y0144936
Y0147476
X002345
Y0150016
X002599
Y0152556
Y0155096
X002345
Y0157636
X002599
X003107
Y0155096
Y0152556
Y0150016
X002345Y0152556
Y0144936
X002599Y0139856
X002853Y0119536
X003107Y0160176
Y0162716
Y0165256
Y0167796
Y0172876
Y0175416
Y0177956
Y0180496
Y0183036
Y0185576
X002599Y0185626
Y0183086
X002345
Y0180546
Y0178006
Y0175466
X002599
Y0178006
Y0180546
X002345Y0185626
Y0172926
X002599
Y0170386
Y0167846
Y0165306
Y0162766
X002345
Y0165306
Y0167846
Y0170386
Y0160176
X002599
X00482992Y0181126
X00531992
X0053295Y0198146
X0055835
X00425
X007933Y0185576
Y0183036
Y0180496
Y0177956
Y0175416
Y0172876
Y0170336
Y0167796
Y0163732
Y0161192
X008441Y0160176
X008695
Y0162766
X008441
Y0165306
Y0167846
Y0170386
Y0172926
Y0175466
X008695
Y0172926
Y0170386
Y0167846
Y0165306
X009845
X010099
Y0167846
Y0170386
Y0172926
Y0175466
X009845
Y0178006
Y0180546
Y0183086
X010099
Y0180546
Y0178006
X010607Y0177956
Y0175416
Y0172876
Y0167796
Y0165256
Y0162716
Y0160176
X010099
X009845
Y0162766
X010099
X009845Y0167846
Y0170386
Y0172926
Y0185626
X010099
X010607Y0185576
Y0183036
Y0180496
X008695Y0180546
Y0183086
Y0185626
X008441
Y0183086
Y0180546
Y0178006
X008695
X01175Y0198146
X0128295
X0130835
X01281992Y0181126
X01232992
X015433Y0180496
Y0177956
Y0175416
Y0172876
Y0170336
Y0167796
Y0163732
Y0161192
Y0183036
Y0185576
X015941Y0185626
X016195
Y0183086
Y0180546
X015941
Y0183086
Y0178006
Y0175466
Y0172926
Y0170386
Y0167846
Y0165306
Y0162766
X016195
Y0165306
Y0167846
Y0170386
Y0172926
Y0175466
Y0178006
X017345
Y0180546
Y0183086
X017599
Y0180546
Y0178006
Y0175466
X017345
Y0172926
X017599
Y0170386
Y0167846
Y0165306
Y0162766
X017345
Y0165306
Y0167846
Y0170386
X018107Y0172876
Y0175416
Y0177956
Y0180496
Y0183036
Y0185576
X017599Y0185626
X017345
Y0160176
X017599
X018107
Y0162716
Y0165256
Y0167796
X016195Y0160176
X015941
X01982992Y0181126
X01925Y0198146
X0203295
X0205835
X02031992Y0181126
X022933Y0180496
Y0177956
Y0175416
Y0172876
Y0170336
Y0167796
Y0163732
Y0161192
X023441Y0160176
X023695
Y0162766
X023441
Y0165306
Y0167846
Y0170386
Y0172926
Y0175466
X023695
Y0172926
Y0170386
Y0167846
Y0165306
Y0178006
Y0180546
Y0183086
Y0185626
X023441
Y0183086
Y0180546
Y0178006
X022933Y0183036
Y0185576
X024845Y0185626
Y0183086
Y0180546
Y0178006
Y0175466
X025099
Y0178006
Y0180546
Y0183086
Y0185626
X025607Y0185576
Y0183036
Y0180496
Y0177956
Y0175416
Y0172876
Y0167796
Y0165256
Y0162716
Y0160176
X025099
X024845
Y0162766
X025099
Y0165306
Y0167846
Y0170386
Y0172926
X024845
Y0170386
Y0167846
Y0165306
X02732992Y0181126
X02675Y0198146
X0278295
X0280835
X02781992Y0181126
X030433Y0180496
Y0177956
Y0175416
Y0172876
Y0170336
Y0167796
Y0163732
Y0161192
X030941Y0160176
X031195
Y0162766
X030941
Y0165306
Y0167846
Y0170386
Y0172926
Y0175466
X031195
Y0172926
Y0170386
Y0167846
Y0165306
Y0178006
Y0180546
Y0183086
Y0185626
X030941
Y0183086
Y0180546
Y0178006
X030433Y0183036
Y0185576
X031195Y0199416
Y0201956
Y0227356
Y0229896
Y0232436
Y0234976
X030941
Y0232436
Y0229896
Y0227356
X030433Y0228372
Y0230912
Y0233452
Y0235992
X030941Y0237516
X031195
X0293535Y0230531
X0290995
X0288455
X0280835Y0236881
X0278295
X025607Y0237516
X025099
X024845
Y0234976
X025099
Y0232436
Y0229896
X024845
Y0227356
X025099
X024845Y0232436
Y0217196
Y0214656
X025353
Y0217196
X025734Y0217831
Y0215291
X025353Y0212116
Y0209576
Y0207036
Y0204496
X024845Y0201956
Y0199416
X02675Y0200686
Y0203226
Y0205766
X0270675Y0209691
X0270675Y0214616
X023695Y0201956
Y0199416
Y0227356
Y0229896
Y0232436
Y0234976
X023441
Y0232436
Y0229896
Y0227356
X022933Y0228372
Y0230912
Y0233452
Y0235992
X023441Y0237516
X023695
X0218535Y0230531
X0215995
X0213455
X0205835Y0236881
X0203295
X018107Y0237516
X017599
X017345
Y0234976
X017599
Y0232436
Y0229896
X017345
Y0227356
X017599
X017345Y0232436
X016195
Y0234976
X015941
Y0232436
Y0229896
X016195
Y0227356
X015941
Y0237516
X016195
X017345Y0217196
Y0214656
X017853
Y0217196
X018234Y0217831
Y0215291
X017853Y0212116
Y0209576
Y0207036
Y0204496
X017345Y0201956
Y0199416
X016195
Y0201956
X01925Y0203226
Y0205766
Y0200686
X0195675Y0209691
Y0214616
X015433Y0228372
Y0230912
Y0233452
Y0235992
X0143535Y0230531
X0140995
X0138455
X0130835Y0236881
X0128295
X0120675Y0214616
X01206749Y0209691
X01175Y0205766
Y0203226
Y0200686
X010353Y0204496
Y0207036
Y0209576
Y0212116
Y0214656
Y0217196
X010734Y0217831
Y0215291
X009845Y0214656
Y0217196
Y0227356
Y0229896
X010099
Y0232436
Y0234976
X009845
Y0237516
X010099
X010607
X009845Y0232436
X010099Y0227356
X008695
Y0229896
Y0232436
Y0234976
X008441
Y0232436
Y0229896
Y0227356
Y0237516
X008695
X008695Y0201956
Y0199416
X009845
Y0201956
X007933Y0228372
Y0230912
Y0233452
Y0235992
X0068535Y0230531
X0065995
X0063455
X0055835Y0236881
X0053295
X0045675Y0214616
X00456749Y0209691
X00425Y0205766
Y0203226
Y0200686
X002853Y0204496
Y0207036
Y0209576
Y0212116
Y0214656
Y0217196
X003234Y0217831
Y0215291
X002345Y0214656
Y0217196
Y0227356
Y0229896
X002599
Y0232436
Y0234976
X002345
Y0237516
X002599
X003107
X002345Y0232436
X002599Y0227356
X002345Y0201956
Y0199416
Y0240056
X002599
Y0242596
X002345
Y0245136
Y0247676
X002599
Y0245136
X003107
Y0247676
Y0250216
Y0252756
Y0255296
Y0260376
Y0262916
Y0265456
Y0267996
Y0270536
Y0273076
X002599Y0273126
Y0270586
X002345
Y0268046
Y0265506
Y0262966
X002599
Y0265506
Y0268046
X002345Y0273126
Y0260426
X002599
Y0257886
Y0255346
Y0252806
Y0250266
X002345
Y0252806
Y0255346
Y0257886
X003107Y0242596
Y0240056
X00482992Y0268626
X00531992
X007933Y0267996
Y0265456
Y0262916
Y0260376
Y0257836
Y0255296
Y0251232
Y0248692
Y0246152
Y0243612
Y0241072
Y0238532
Y0270536
Y0273076
X008441Y0273126
X008695
Y0270586
Y0268046
X008441
Y0270586
Y0265506
Y0262966
Y0260426
Y0257886
Y0255346
Y0252806
Y0250266
X008695
Y0252806
Y0255346
Y0257886
Y0260426
Y0262966
Y0265506
X009845
Y0268046
Y0270586
X010099
Y0268046
Y0265506
Y0262966
X009845
Y0260426
X010099
Y0257886
Y0255346
Y0252806
Y0250266
X009845
Y0252806
Y0255346
Y0257886
X010607Y0260376
Y0262916
Y0265456
Y0267996
Y0270536
Y0273076
X010099Y0273126
X009845
Y0247676
Y0245136
Y0242596
X010099
Y0240056
X009845
X010607
Y0242596
Y0245136
Y0247676
Y0250216
Y0252756
Y0255296
X010099Y0247676
Y0245136
X008695
Y0247676
X008441
Y0245136
Y0242596
Y0240056
X008695
Y0242596
X01232992Y0268626
X01281992
X015433Y0267996
Y0265456
Y0262916
Y0260376
Y0257836
Y0255296
Y0251232
Y0248692
Y0246152
Y0243612
Y0241072
Y0238532
Y0270536
Y0273076
X015941Y0273126
X016195
Y0270586
Y0268046
X015941
Y0270586
Y0265506
Y0262966
Y0260426
Y0257886
Y0255346
Y0252806
Y0250266
X016195
Y0252806
Y0255346
Y0257886
Y0260426
Y0262966
Y0265506
X017345
Y0268046
Y0270586
X017599
Y0268046
Y0265506
Y0262966
X017345
Y0260426
X017599
Y0257886
Y0255346
Y0252806
Y0250266
X017345
Y0252806
Y0255346
Y0257886
X018107Y0260376
Y0262916
Y0265456
Y0267996
Y0270536
Y0273076
X017599Y0273126
X017345
Y0247676
Y0245136
Y0242596
X017599
Y0240056
X017345
X018107
Y0242596
Y0245136
Y0247676
Y0250216
Y0252756
Y0255296
X017599Y0247676
Y0245136
X016195
Y0247676
X015941
Y0245136
Y0242596
Y0240056
X016195
Y0242596
X01982992Y0268626
X02031992
X022933Y0267996
Y0265456
Y0262916
Y0260376
Y0257836
Y0255296
Y0251232
Y0248692
Y0246152
Y0243612
Y0241072
Y0238532
X023441Y0240056
Y0242596
Y0245136
X023695
Y0247676
X023441
Y0250266
Y0252806
Y0255346
Y0257886
Y0260426
Y0262966
X023695
Y0260426
Y0257886
Y0255346
Y0252806
Y0250266
Y0242596
Y0240056
Y0265506
Y0268046
Y0270586
Y0273126
X023441
Y0270586
Y0268046
Y0265506
X022933Y0270536
Y0273076
X024845Y0273126
Y0270586
Y0268046
Y0265506
Y0262966
X025099
Y0265506
Y0268046
Y0270586
Y0273126
X025607Y0273076
Y0270536
Y0267996
Y0265456
Y0262916
Y0260376
Y0255296
Y0252756
Y0250216
Y0247676
Y0245136
Y0242596
Y0240056
X025099
Y0242596
X024845
Y0245136
Y0247676
X025099
Y0245136
Y0250266
Y0252806
Y0255346
Y0257886
Y0260426
X024845
Y0257886
Y0255346
Y0252806
Y0250266
Y0240056
X02732992Y0268626
X02781992
X030433Y0267996
Y0265456
Y0262916
Y0260376
Y0257836
Y0255296
Y0251232
Y0248692
Y0246152
Y0243612
Y0241072
Y0238532
X030941Y0240056
Y0242596
Y0245136
X031195
Y0247676
X030941
Y0250266
Y0252806
Y0255346
Y0257886
Y0260426
Y0262966
X031195
Y0260426
Y0257886
Y0255346
Y0252806
Y0250266
Y0242596
Y0240056
Y0265506
Y0268046
Y0270586
Y0273126
X030941
Y0270586
Y0268046
Y0265506
X030433Y0270536
Y0273076
T02
X001269Y00122417
X032271
Y02864903
X001269
M30
